<svg width="351" height="652" viewBox="0 0 351 652" fill="none" xmlns="http://www.w3.org/2000/svg">
<path d="M283.822 459.186L283.44 455.924C282.879 451.126 284.599 446.341 288.087 442.998L289.084 442.043C290.125 441.045 291.043 439.928 291.82 438.714L292.772 437.227C294.94 433.839 296.471 430.083 297.289 426.144L298.131 422.083C299.215 416.862 299.54 411.511 299.098 406.197L298.415 398.006L292.339 368.974L291.112 351.062C290.807 346.609 291.278 342.136 292.504 337.844L293.132 335.648C294.167 332.023 295.936 328.65 298.329 325.737L299.555 324.244C301.469 321.914 303.901 320.063 306.657 318.838L307.361 318.525C310.122 317.298 313.165 316.848 316.162 317.222C320.171 317.723 323.86 319.669 326.537 322.695L327.526 323.813C329.246 325.758 330.453 328.102 331.037 330.632C331.776 333.832 331.484 337.182 330.205 340.206L329.359 342.204C328.761 343.618 328.311 345.09 328.015 346.597L327.032 351.612C325.74 358.203 325.382 364.943 325.969 371.634L326.772 380.79L328.032 403.466C328.317 408.597 328.234 413.741 327.785 418.859L327.416 423.064C326.988 427.95 326.036 432.775 324.578 437.458L324.157 438.807C321.651 446.855 317.522 454.303 312.027 460.693L307.178 466.331C306.293 467.361 305.254 468.25 304.1 468.966C295.799 474.119 284.958 468.89 283.822 459.186Z" fill="#1CA6E5" stroke="#2A2F2D" stroke-width="6.07643" stroke-linecap="round"/>
<path d="M163.21 289.642H215.51C220.084 289.642 224.613 290.545 228.837 292.299C232.166 293.682 235.259 295.574 238.007 297.907L247.822 306.245L259.464 319.363C261.286 321.416 262.88 323.662 264.218 326.06L278.483 351.63C280.932 356.021 279.319 361.567 274.897 363.959L281.332 385.796C282.399 389.415 283.149 393.121 283.574 396.87L286.192 419.974C286.543 423.077 288.161 425.896 290.662 427.766C293.521 429.903 295.204 433.263 295.204 436.832V444.496C295.204 446.406 295.409 448.31 295.817 450.175L298.022 460.272C298.961 464.571 299.434 468.958 299.434 473.358V477.447C299.434 481.351 298.803 485.229 297.565 488.931L296.893 490.941C295.779 494.273 293.998 497.344 291.659 499.966L287.572 504.549C287.03 505.157 286.329 505.601 285.548 505.831L282.758 506.654C280.904 507.201 279.127 505.597 279.483 503.697C279.994 500.966 276.428 499.459 274.826 501.728L269.692 509.002C268.965 510.032 267.841 510.712 266.591 510.879L261.322 511.583C258.302 511.986 255.229 511.555 252.437 510.337L250.36 509.432L240.63 510.618L248.345 560.772C249.497 568.258 244.907 575.434 237.627 577.527C235.157 578.237 232.547 578.303 230.044 577.718L223.079 576.091C206.095 572.124 193.255 558.187 190.691 540.935L185.773 507.85L184.439 507.568C176.201 505.825 169.828 499.284 168.3 491.004C167.216 485.128 163.656 480.003 158.528 476.936L156.018 475.435L159.92 484.129C160.973 486.476 161.518 489.02 161.518 491.593V492.681C161.518 497.293 159.51 501.676 156.018 504.688L157.287 548.567L158.54 559.099C158.824 561.49 158.268 563.906 156.967 565.933C155.057 568.906 151.766 570.704 148.233 570.704H143.793C142.359 570.704 140.929 570.537 139.533 570.207L128.601 567.621C116.652 564.794 108.213 554.125 108.213 541.847L105.675 504.075L90.8676 500.735L90.0923 501.77C88.6851 503.648 86.6317 504.939 84.3288 505.392C81.5085 505.947 78.5887 505.193 76.3889 503.343L75.6376 502.711L72.5722 504C69.0352 505.488 65.1738 506.035 61.3627 505.59C56.3616 505.006 51.7063 502.743 48.1571 499.172L46.7147 497.72C44.0258 495.015 41.9157 491.79 40.5128 488.243L40.0964 487.19C37.0994 479.613 36.9566 471.204 39.6945 463.529L41.6567 458.029C42.306 456.209 43.29 454.526 44.558 453.068L52.0407 444.463C52.9509 443.416 52.9301 441.853 51.9924 440.83C51.429 440.216 51.1774 439.378 51.3095 438.555L52.8573 428.913C53.3433 425.886 55.3567 423.323 58.1831 422.135C60.6598 421.093 62.5318 418.987 63.2749 416.405L72.8413 383.163C74.6814 376.769 77.9524 370.878 82.4065 365.936C77.387 361.715 75.7383 354.696 78.3533 348.682L78.9166 347.386C79.2684 346.577 79.6837 345.797 80.1586 345.054L95.0982 321.662L106.379 307.091C108.438 304.432 110.858 302.073 113.569 300.082C118.653 296.349 124.625 294.012 130.892 293.302L163.21 289.642Z" fill="#F9F5F2"/>
<path d="M82.4065 365.936L95.0982 369.889C97.2931 370.573 98.6684 372.747 98.3454 375.023L88.7524 442.625M82.4065 365.936C77.9524 370.878 74.6814 376.769 72.8413 383.163L63.2749 416.405C62.5318 418.987 60.6598 421.093 58.1831 422.135C55.3567 423.323 53.3433 425.886 52.8573 428.913L51.3095 438.555C51.1774 439.378 51.429 440.216 51.9924 440.83C52.9301 441.853 52.9509 443.416 52.0407 444.463L44.558 453.068C43.29 454.526 42.306 456.209 41.6567 458.029L39.6945 463.529C36.9566 471.204 37.0994 479.613 40.0964 487.19L40.5128 488.243C41.9157 491.79 44.0258 495.015 46.7147 497.72L48.1571 499.172C51.7063 502.743 56.3616 505.006 61.3627 505.59C65.1738 506.035 69.0352 505.488 72.5722 504L75.6376 502.711M82.4065 365.936C77.387 361.715 75.7383 354.696 78.3533 348.682L78.9166 347.386C79.2684 346.577 79.6837 345.797 80.1586 345.054L95.0982 321.662L106.379 307.091C108.438 304.432 110.858 302.073 113.569 300.082C118.653 296.349 124.625 294.012 130.892 293.302L163.21 289.642H215.51C220.084 289.642 224.613 290.545 228.837 292.299C232.166 293.682 235.259 295.574 238.007 297.907L247.822 306.245L259.464 319.363C261.286 321.416 262.88 323.662 264.218 326.06L278.483 351.63C280.932 356.021 279.319 361.567 274.897 363.959M88.7524 442.625L90.8676 500.735M88.7524 442.625C102.531 446.566 116.698 448.998 131.003 449.878L141.634 450.531H170.825H194.516L221.169 447.369L231.322 444.997L235.13 444.206M235.13 444.206L234.918 440.043C234.781 437.369 235.586 434.731 237.191 432.588L240.249 428.506C240.489 428.187 240.865 427.999 241.264 427.999C242.042 427.999 242.636 427.304 242.516 426.535L235.605 382.411C235.289 380.391 234.816 378.398 234.191 376.451L233.861 375.423M235.13 444.206C235.935 446.462 235.702 448.958 234.495 451.026L234.25 451.446C233.991 451.89 233.695 452.31 233.366 452.704L226.905 460.432C224.508 463.298 222.615 466.549 221.305 470.047L218.81 476.708C217.871 479.215 217.786 481.962 218.569 484.523C219.427 487.329 221.272 489.731 223.764 491.283L231.322 495.991M233.861 375.423L274.897 363.959M233.861 375.423C229.993 376.699 225.863 374.389 224.925 370.426L216.938 336.683M274.897 363.959L281.332 385.796C282.399 389.415 283.149 393.121 283.574 396.87L286.192 419.974C286.543 423.077 288.161 425.896 290.662 427.766C293.521 429.903 295.204 433.263 295.204 436.832V444.496C295.204 446.406 295.409 448.31 295.817 450.175L298.022 460.272C298.961 464.571 299.434 468.958 299.434 473.358V477.447C299.434 481.351 298.803 485.229 297.565 488.931L296.893 490.941C295.779 494.273 293.998 497.344 291.659 499.966L287.572 504.549C287.03 505.157 286.329 505.601 285.548 505.831L282.758 506.654C280.904 507.201 279.127 505.597 279.483 503.697C279.994 500.966 276.428 499.459 274.826 501.728L269.692 509.002C268.965 510.032 267.841 510.712 266.591 510.879L261.322 511.583C258.302 511.986 255.229 511.555 252.437 510.337L250.36 509.432M250.36 509.432L260.513 497.572M250.36 509.432L240.63 510.618M240.63 510.618L238.887 509.701C235.696 508.025 233.397 505.038 232.592 501.526M240.63 510.618L248.345 560.772C249.497 568.258 244.907 575.434 237.627 577.527C235.157 578.237 232.547 578.303 230.044 577.718L223.079 576.091C206.095 572.124 193.255 558.187 190.691 540.935L185.773 507.85M231.322 495.991L232.592 501.526M231.322 495.991C234.359 493.412 236.577 490.003 237.705 486.182L239.36 480.574M75.6376 502.711L76.3889 503.343C78.5887 505.193 81.5085 505.947 84.3288 505.392C86.6317 504.939 88.6851 503.648 90.0923 501.77L90.8676 500.735M75.6376 502.711C77.039 500.092 78.0186 497.269 78.5402 494.345L78.599 494.015M78.599 494.015L83.5136 491.719C85.7446 490.676 87.3502 488.639 87.842 486.226L87.8624 486.126C88.412 483.43 87.462 480.647 85.3783 478.85C84.0065 477.667 83.1022 476.033 82.8284 474.242L82.4065 471.482M78.599 494.015L72.9667 493.235C69.2158 492.716 65.7483 490.951 63.1214 488.223C60.8005 485.814 59.2478 482.769 58.6604 479.475L57.4462 472.668M90.8676 500.735L105.675 504.075M156.018 504.688L152.16 505.375C142.921 507.019 133.516 507.523 124.155 506.875C118.33 506.472 112.544 505.624 106.848 504.339L105.675 504.075M156.018 504.688L157.287 548.567L158.54 559.099C158.824 561.49 158.268 563.906 156.967 565.933C155.057 568.906 151.766 570.704 148.233 570.704H143.793C142.359 570.704 140.929 570.537 139.533 570.207L128.601 567.621C116.652 564.794 108.213 554.125 108.213 541.847L105.675 504.075M156.018 504.688C159.51 501.676 161.518 497.293 161.518 492.681V491.593C161.518 489.02 160.973 486.476 159.92 484.129L156.018 475.435M156.018 475.435L145.865 469.901M156.018 475.435L158.528 476.936C163.656 480.003 167.216 485.128 168.3 491.004C169.828 499.284 176.201 505.825 184.439 507.568L185.773 507.85M232.592 501.526C226.469 505.166 219.591 507.351 212.49 507.912L200.863 508.83C195.812 509.229 190.73 508.899 185.773 507.85" stroke="#2A2F2D" stroke-width="6.07643" stroke-linecap="round"/>
<mask id="path-4-inside-1_3603_6406" fill="white">
<path d="M245.127 1.22839C250.409 -0.238324 256.04 -0.388484 261.399 0.761597C267.925 2.16197 273.995 5.43924 278.711 10.162L282.698 14.1542C287.394 18.8562 291.176 24.3891 293.852 30.4716L294.317 31.5302C296.296 36.0267 297.713 40.7498 298.537 45.5927L299.769 52.8241C300.894 59.4344 301.459 66.1285 301.459 72.8339V86.3407L299.521 110.735C299.435 111.825 299.618 112.918 300.032 113.93C305.303 126.791 308.211 140.873 308.211 155.633V172.418C308.211 173.766 308.621 175.079 309.349 176.213C317.645 189.137 322.39 204.127 322.39 220.11C322.39 268.771 278.408 308.218 224.154 308.219C220.028 308.219 215.961 307.988 211.968 307.545C211.441 307.486 210.91 307.486 210.384 307.544C206.37 307.988 202.291 308.219 198.159 308.219H147.522C143.063 308.219 138.665 307.952 134.344 307.436C133.776 307.369 133.202 307.369 132.635 307.437C128.34 307.951 123.957 308.219 119.505 308.219C65.2509 308.219 21.2695 268.771 21.2695 220.11C21.2695 202.963 26.7315 186.959 36.1795 173.423C37.004 172.242 37.4717 170.844 37.4717 169.404V155.633C37.4717 141.674 40.0717 128.321 44.8122 116.034C45.2385 114.929 45.1696 113.71 44.9561 112.545L42.874 86.3407V72.8339C42.874 66.1285 43.4402 59.4344 44.5654 52.8241L45.7959 45.5927C46.6203 40.7498 48.0373 36.0267 50.0156 31.5302L50.4814 30.4716C53.1575 24.3889 56.9401 18.8563 61.6357 14.1542L65.6221 10.162C70.3384 5.43916 76.4086 2.16194 82.9346 0.761597C88.2941 -0.38842 93.9244 -0.238299 99.2061 1.22839C103.247 2.35048 107.045 4.21142 110.407 6.71765L114.073 9.45105C118.757 12.9424 122.891 17.1166 126.336 21.8348L134.169 32.5624C135.47 34.3445 136.573 36.2634 137.46 38.2841C137.689 38.8069 137.903 39.3331 138.101 39.8621C139.33 43.1501 142.363 45.6464 145.873 45.5942C146.422 45.586 146.972 45.5819 147.522 45.5819H198.159C198.293 45.5819 198.427 45.5822 198.561 45.5826C202.033 45.5952 205.014 43.1185 206.23 39.8668C206.429 39.3363 206.643 38.8085 206.873 38.2841C207.76 36.2634 208.864 34.3446 210.165 32.5624L217.997 21.8348C221.442 17.1166 225.576 12.9424 230.26 9.45105L233.927 6.71765C237.289 4.21158 241.086 2.35046 245.127 1.22839Z"/>
</mask>
<path d="M245.127 1.22839C250.409 -0.238324 256.04 -0.388484 261.399 0.761597C267.925 2.16197 273.995 5.43924 278.711 10.162L282.698 14.1542C287.394 18.8562 291.176 24.3891 293.852 30.4716L294.317 31.5302C296.296 36.0267 297.713 40.7498 298.537 45.5927L299.769 52.8241C300.894 59.4344 301.459 66.1285 301.459 72.8339V86.3407L299.521 110.735C299.435 111.825 299.618 112.918 300.032 113.93C305.303 126.791 308.211 140.873 308.211 155.633V172.418C308.211 173.766 308.621 175.079 309.349 176.213C317.645 189.137 322.39 204.127 322.39 220.11C322.39 268.771 278.408 308.218 224.154 308.219C220.028 308.219 215.961 307.988 211.968 307.545C211.441 307.486 210.91 307.486 210.384 307.544C206.37 307.988 202.291 308.219 198.159 308.219H147.522C143.063 308.219 138.665 307.952 134.344 307.436C133.776 307.369 133.202 307.369 132.635 307.437C128.34 307.951 123.957 308.219 119.505 308.219C65.2509 308.219 21.2695 268.771 21.2695 220.11C21.2695 202.963 26.7315 186.959 36.1795 173.423C37.004 172.242 37.4717 170.844 37.4717 169.404V155.633C37.4717 141.674 40.0717 128.321 44.8122 116.034C45.2385 114.929 45.1696 113.71 44.9561 112.545L42.874 86.3407V72.8339C42.874 66.1285 43.4402 59.4344 44.5654 52.8241L45.7959 45.5927C46.6203 40.7498 48.0373 36.0267 50.0156 31.5302L50.4814 30.4716C53.1575 24.3889 56.9401 18.8563 61.6357 14.1542L65.6221 10.162C70.3384 5.43916 76.4086 2.16194 82.9346 0.761597C88.2941 -0.38842 93.9244 -0.238299 99.2061 1.22839C103.247 2.35048 107.045 4.21142 110.407 6.71765L114.073 9.45105C118.757 12.9424 122.891 17.1166 126.336 21.8348L134.169 32.5624C135.47 34.3445 136.573 36.2634 137.46 38.2841C137.689 38.8069 137.903 39.3331 138.101 39.8621C139.33 43.1501 142.363 45.6464 145.873 45.5942C146.422 45.586 146.972 45.5819 147.522 45.5819H198.159C198.293 45.5819 198.427 45.5822 198.561 45.5826C202.033 45.5952 205.014 43.1185 206.23 39.8668C206.429 39.3363 206.643 38.8085 206.873 38.2841C207.76 36.2634 208.864 34.3446 210.165 32.5624L217.997 21.8348C221.442 17.1166 225.576 12.9424 230.26 9.45105L233.927 6.71765C237.289 4.21158 241.086 2.35046 245.127 1.22839Z" fill="#1CA6E5"/>
<path d="M245.127 1.22839L242.959 -6.57811L242.959 -6.57808L245.127 1.22839ZM261.399 0.761597L263.099 -7.15997L263.099 -7.15999L261.399 0.761597ZM278.711 10.162L272.978 15.887L272.979 15.8874L278.711 10.162ZM282.698 14.1542L288.431 8.42926L288.431 8.42877L282.698 14.1542ZM293.852 30.4716L286.436 33.7342L286.436 33.7347L293.852 30.4716ZM294.317 31.5302L301.733 28.2675L301.733 28.267L294.317 31.5302ZM298.537 45.5927L290.55 46.9522L290.55 46.9527L298.537 45.5927ZM299.769 52.8241L307.756 51.4645L307.755 51.464L299.769 52.8241ZM301.459 86.3407L309.535 86.9822L309.561 86.6619V86.3407H301.459ZM224.154 308.219L224.154 316.321L224.154 316.321L224.154 308.219ZM147.522 308.219L147.522 316.321H147.522V308.219ZM119.505 308.219L119.505 316.321H119.505V308.219ZM44.9561 112.545L36.8796 113.187L36.9124 113.599L36.987 114.006L44.9561 112.545ZM42.874 86.3407H34.7721V86.6621L34.7976 86.9824L42.874 86.3407ZM44.5654 52.8241L52.5525 54.1836L52.5525 54.1831L44.5654 52.8241ZM45.7959 45.5927L37.8089 44.2331L37.8088 44.2336L45.7959 45.5927ZM50.0156 31.5302L42.5999 28.267L42.5997 28.2675L50.0156 31.5302ZM50.4814 30.4716L57.8971 33.7347L57.8974 33.7342L50.4814 30.4716ZM61.6357 14.1542L67.3686 19.8791L67.3689 19.8789L61.6357 14.1542ZM65.6221 10.162L59.8892 4.43702L59.889 4.43728L65.6221 10.162ZM82.9346 0.761597L81.2348 -7.16L81.2347 -7.15999L82.9346 0.761597ZM99.2061 1.22839L101.374 -6.57811L101.374 -6.57811L99.2061 1.22839ZM110.407 6.71765L115.25 0.222448L115.249 0.221768L110.407 6.71765ZM114.073 9.45105L109.23 15.9463L109.231 15.9469L114.073 9.45105ZM126.336 21.8348L119.793 26.6124L119.793 26.6126L126.336 21.8348ZM134.169 32.5624L140.712 27.7848L140.712 27.7846L134.169 32.5624ZM137.46 38.2841L144.879 35.0287L144.879 35.0286L137.46 38.2841ZM147.522 45.5819L147.522 37.48L147.522 37.48L147.522 45.5819ZM206.873 38.2841L199.454 35.0286L199.454 35.0287L206.873 38.2841ZM210.165 32.5624L216.708 37.3399L216.709 37.3397L210.165 32.5624ZM217.997 21.8348L211.454 17.0573L211.454 17.0575L217.997 21.8348ZM230.26 9.45105L235.102 15.9469L235.102 15.9469L230.26 9.45105ZM233.927 6.71765L229.085 0.221725L229.085 0.22183L233.927 6.71765ZM198.561 45.5826L198.532 53.6845L198.561 45.5826ZM206.23 39.8668L198.642 37.0284L206.23 39.8668ZM299.521 110.735L307.598 111.377L299.521 110.735ZM300.032 113.93L307.529 110.857L300.032 113.93ZM36.1795 173.423L42.8232 178.06L36.1795 173.423ZM138.101 39.8621L130.512 42.7L138.101 39.8621ZM145.873 45.5942L145.994 53.6952L145.873 45.5942ZM134.344 307.436L135.304 299.392L134.344 307.436ZM132.635 307.437L131.671 299.392L132.635 307.437ZM309.349 176.213L316.167 171.837L309.349 176.213ZM211.968 307.545L211.074 315.597L211.968 307.545ZM210.384 307.544L209.493 299.492L210.384 307.544ZM245.127 1.22839L247.295 9.0349C251.299 7.92306 255.602 7.80396 259.7 8.68318L261.399 0.761597L263.099 -7.15999C256.477 -8.58093 249.519 -8.39971 242.959 -6.57811L245.127 1.22839ZM261.399 0.761597L259.7 8.68317C264.718 9.76011 269.381 12.285 272.978 15.887L278.711 10.162L284.444 4.43702C278.608 -1.40655 271.132 -5.43616 263.099 -7.15997L261.399 0.761597ZM278.711 10.162L272.979 15.8874L276.966 19.8796L282.698 14.1542L288.431 8.42877L284.443 4.43658L278.711 10.162ZM282.698 14.1542L276.965 19.8791C280.952 23.8716 284.163 28.5696 286.436 33.7342L293.852 30.4716L301.267 27.2089C298.188 20.2087 293.835 13.8409 288.431 8.42926L282.698 14.1542ZM293.852 30.4716L286.436 33.7347L286.902 34.7933L294.317 31.5302L301.733 28.267L301.267 27.2084L293.852 30.4716ZM294.317 31.5302L286.901 34.7928C288.612 38.6806 289.837 42.7645 290.55 46.9522L298.537 45.5927L306.524 44.2331C305.588 38.7351 303.979 33.3728 301.733 28.2675L294.317 31.5302ZM298.537 45.5927L290.55 46.9527L291.782 54.1842L299.769 52.8241L307.755 51.464L306.524 44.2326L298.537 45.5927ZM299.769 52.8241L291.782 54.1836C292.83 60.3444 293.357 66.5837 293.357 72.8339H301.459H309.561C309.561 65.6732 308.957 58.5243 307.756 51.4645L299.769 52.8241ZM301.459 72.8339H293.357V86.3407H301.459H309.561V72.8339H301.459ZM301.459 86.3407L293.383 85.6992L291.445 110.094L299.521 110.735L307.598 111.377L309.535 86.9822L301.459 86.3407ZM300.032 113.93L292.536 117.002C297.414 128.906 300.109 141.945 300.109 155.633H308.211H316.313C316.313 139.8 313.192 124.677 307.529 110.857L300.032 113.93ZM308.211 155.633H300.109V172.418H308.211H316.313V155.633H308.211ZM309.349 176.213L302.531 180.59C310.038 192.285 314.288 205.767 314.288 220.11H322.39H330.492C330.492 202.486 325.252 185.99 316.167 171.837L309.349 176.213ZM322.39 220.11H314.288C314.288 263.49 274.785 300.117 224.154 300.117L224.154 308.219L224.154 316.321C282.031 316.32 330.492 274.052 330.492 220.11H322.39ZM224.154 308.219V300.117C220.33 300.117 216.561 299.903 212.862 299.492L211.968 307.545L211.074 315.597C215.361 316.073 219.726 316.321 224.154 316.321V308.219ZM210.384 307.544L209.493 299.492C205.771 299.903 201.99 300.117 198.159 300.117V308.219V316.321C202.592 316.321 206.968 316.073 211.274 315.597L210.384 307.544ZM198.159 308.219V300.117H147.522V308.219V316.321H198.159V308.219ZM147.522 308.219L147.522 300.117C143.386 300.117 139.309 299.87 135.304 299.392L134.344 307.436L133.384 315.481C138.021 316.035 142.74 316.321 147.522 316.321L147.522 308.219ZM132.635 307.437L131.671 299.392C127.693 299.869 123.633 300.117 119.505 300.117V308.219V316.321C124.281 316.321 128.986 316.034 133.599 315.481L132.635 307.437ZM119.505 308.219L119.505 300.117C68.874 300.117 29.3714 263.49 29.3714 220.11H21.2695H13.1676C13.1676 274.052 61.6279 316.32 119.505 316.321L119.505 308.219ZM21.2695 220.11H29.3714C29.3714 204.727 34.2618 190.326 42.8232 178.06L36.1795 173.423L29.5359 168.786C19.2011 183.593 13.1676 201.198 13.1676 220.11H21.2695ZM37.4717 169.404H45.5736V155.633H37.4717H29.3698V169.404H37.4717ZM37.4717 155.633H45.5736C45.5736 142.687 47.9837 130.322 52.3711 118.95L44.8122 116.034L37.2533 113.118C32.1597 126.321 29.3698 140.66 29.3698 155.633H37.4717ZM44.9561 112.545L53.0325 111.903L50.9505 85.699L42.874 86.3407L34.7976 86.9824L36.8796 113.187L44.9561 112.545ZM42.874 86.3407H50.9759V72.8339H42.874H34.7721V86.3407H42.874ZM42.874 72.8339H50.9759C50.9759 66.5845 51.5036 60.3452 52.5525 54.1836L44.5654 52.8241L36.5784 51.4645C35.3768 58.5236 34.7721 65.6724 34.7721 72.8339H42.874ZM44.5654 52.8241L52.5525 54.1831L53.783 46.9517L45.7959 45.5927L37.8088 44.2336L36.5783 51.465L44.5654 52.8241ZM45.7959 45.5927L53.7829 46.9522C54.4958 42.7645 55.7211 38.6806 57.4316 34.7928L50.0156 31.5302L42.5997 28.2675C40.3536 33.3728 38.7448 38.7351 37.8089 44.2331L45.7959 45.5927ZM50.0156 31.5302L57.4313 34.7933L57.8971 33.7347L50.4814 30.4716L43.0657 27.2084L42.5999 28.267L50.0156 31.5302ZM50.4814 30.4716L57.8974 33.7342C60.1694 28.57 63.3811 23.8722 67.3686 19.8791L61.6357 14.1542L55.9029 8.42921C50.499 13.8405 46.1456 20.2079 43.0655 27.2089L50.4814 30.4716ZM61.6357 14.1542L67.3689 19.8789L71.3552 15.8867L65.6221 10.162L59.889 4.43728L55.9026 8.42947L61.6357 14.1542ZM65.6221 10.162L71.3549 15.887C74.9517 12.2852 79.6154 9.76016 84.6344 8.68318L82.9346 0.761597L81.2347 -7.15999C73.2019 -5.43629 65.7251 -1.40687 59.8892 4.43702L65.6221 10.162ZM82.9346 0.761597L84.6343 8.6832C88.7317 7.80402 93.0345 7.92309 97.0382 9.0349L99.2061 1.22839L101.374 -6.57811C94.8142 -8.39968 87.8566 -8.58086 81.2348 -7.16L82.9346 0.761597ZM99.2061 1.22839L97.0382 9.03489C100.115 9.88927 103.006 11.306 105.565 13.2135L110.407 6.71765L115.249 0.221768C111.084 -2.88322 106.379 -5.18831 101.374 -6.57811L99.2061 1.22839ZM110.407 6.71765L105.564 13.2129L109.23 15.9463L114.073 9.45105L118.916 2.95585L115.25 0.222448L110.407 6.71765ZM114.073 9.45105L109.231 15.9469C113.266 18.9541 116.826 22.5492 119.793 26.6124L126.336 21.8348L132.879 17.0572C128.956 11.6841 124.249 6.93076 118.915 2.95519L114.073 9.45105ZM126.336 21.8348L119.793 26.6126L127.626 37.3401L134.169 32.5624L140.712 27.7846L132.879 17.0571L126.336 21.8348ZM134.169 32.5624L127.626 37.3399C128.58 38.6465 129.389 40.0548 130.041 41.5395L137.46 38.2841L144.879 35.0286C143.757 32.4719 142.361 30.0425 140.712 27.7848L134.169 32.5624ZM137.46 38.2841L130.041 41.5394C130.21 41.9244 130.367 42.3114 130.512 42.7L138.101 39.8621L145.689 37.0241C145.439 36.3548 145.169 35.6894 144.879 35.0287L137.46 38.2841ZM145.873 45.5942L145.994 53.6952C146.503 53.6876 147.012 53.6838 147.522 53.6838L147.522 45.5819L147.522 37.48C146.931 37.48 146.342 37.4844 145.753 37.4932L145.873 45.5942ZM147.522 45.5819V53.6838H198.159V45.5819V37.48H147.522V45.5819ZM198.159 45.5819V53.6838C198.283 53.6838 198.408 53.684 198.532 53.6845L198.561 45.5826L198.591 37.4808C198.447 37.4803 198.303 37.48 198.159 37.48V45.5819ZM206.23 39.8668L213.819 42.7052C213.965 42.315 214.122 41.9263 214.292 41.5394L206.873 38.2841L199.454 35.0287C199.163 35.6907 198.893 36.3575 198.642 37.0284L206.23 39.8668ZM206.873 38.2841L214.292 41.5395C214.943 40.0567 215.753 38.6483 216.708 37.3399L210.165 32.5624L203.622 27.7848C201.974 30.0409 200.577 32.47 199.454 35.0286L206.873 38.2841ZM210.165 32.5624L216.709 37.3397L224.541 26.6122L217.997 21.8348L211.454 17.0575L203.622 27.785L210.165 32.5624ZM217.997 21.8348L224.54 26.6124C227.507 22.5492 231.067 18.9541 235.102 15.9469L230.26 9.45105L225.418 2.95521C220.084 6.93075 215.377 11.6841 211.454 17.0573L217.997 21.8348ZM230.26 9.45105L235.102 15.9469L238.769 13.2135L233.927 6.71765L229.085 0.22183L225.418 2.95523L230.26 9.45105ZM233.927 6.71765L238.769 13.2136C241.328 11.3059 244.219 9.88909 247.295 9.03487L245.127 1.22839L242.959 -6.57808C237.954 -5.18816 233.25 -2.88273 229.085 0.221725L233.927 6.71765ZM198.561 45.5826L198.532 53.6845C206.041 53.7117 211.659 48.4799 213.819 42.7052L206.23 39.8668L198.642 37.0284C198.599 37.1435 198.539 37.2528 198.471 37.3466C198.402 37.4406 198.339 37.4985 198.302 37.5271C198.266 37.5547 198.27 37.543 198.326 37.523C198.387 37.5011 198.481 37.4804 198.591 37.4808L198.561 45.5826ZM299.521 110.735L291.445 110.094C291.253 112.512 291.663 114.874 292.536 117.002L300.032 113.93L307.529 110.857C307.572 110.962 307.617 111.138 307.598 111.377L299.521 110.735ZM36.1795 173.423L42.8232 178.06C44.535 175.608 45.5736 172.607 45.5736 169.404H37.4717H29.3698C29.3698 169.081 29.4729 168.876 29.5359 168.786L36.1795 173.423ZM138.101 39.8621L130.512 42.7C132.693 48.5307 138.401 53.8082 145.994 53.6952L145.873 45.5942L145.753 37.4932C145.863 37.4915 145.958 37.5116 146.019 37.5331C146.075 37.5526 146.078 37.564 146.04 37.5349C146.001 37.505 145.936 37.4453 145.865 37.3488C145.794 37.2527 145.733 37.1411 145.689 37.0241L138.101 39.8621ZM134.344 307.436L135.304 299.392C134.097 299.247 132.877 299.248 131.671 299.392L132.635 307.437L133.599 315.481C133.528 315.49 133.455 315.49 133.384 315.481L134.344 307.436ZM44.8122 116.034L52.3711 118.95C53.6047 115.752 53.2297 112.745 52.9252 111.084L44.9561 112.545L36.987 114.006C37.0359 114.273 37.0212 114.304 37.0232 114.183C37.0254 114.045 37.05 113.645 37.2533 113.118L44.8122 116.034ZM308.211 172.418H300.109C300.109 175.416 301.019 178.235 302.531 180.59L309.349 176.213L316.167 171.837C316.222 171.923 316.313 172.116 316.313 172.418H308.211ZM211.968 307.545L212.862 299.492C211.743 299.368 210.613 299.368 209.493 299.492L210.384 307.544L211.274 315.597C211.207 315.605 211.14 315.605 211.074 315.597L211.968 307.545Z" fill="#2A2F2D" mask="url(#path-4-inside-1_3603_6406)"/>
<path d="M282.335 189.936L282.945 189.089C284.22 187.318 286.099 186.06 288.221 185.548C291.368 184.79 294.698 185.762 296.931 188.105C298.538 189.792 299.434 192.032 299.434 194.361V198.724C299.434 201.977 297.888 205.037 295.268 206.967L294.885 207.249C293.374 208.362 291.548 208.962 289.672 208.962C286.707 208.962 283.943 207.468 282.318 204.988L281.97 204.456C281.147 203.2 280.619 201.774 280.425 200.286L280.186 198.456C279.793 195.446 280.561 192.4 282.335 189.936Z" fill="#0968A5"/>
<path d="M269.34 229.031L271.962 228.225C273.415 227.778 274.986 227.912 276.343 228.597C278.325 229.598 279.574 231.629 279.574 233.849V236.361C279.574 238.723 278.736 241.008 277.207 242.809L276.957 243.104C275.678 244.612 273.965 245.687 272.052 246.185L270.69 246.538C269.279 246.905 267.782 246.739 266.486 246.07C264.864 245.234 263.718 243.697 263.38 241.904L262.949 239.619C262.585 237.685 262.844 235.686 263.69 233.91C264.807 231.564 266.857 229.795 269.34 229.031Z" fill="#0968A5"/>
<path d="M246.611 257.765L248.889 257.333C249.228 257.269 249.577 257.271 249.915 257.34C251.907 257.747 252.725 260.147 251.395 261.685L250.451 262.776C249.785 263.545 248.818 263.987 247.801 263.987H247.195C245.461 263.987 244.056 262.582 244.056 260.848C244.056 259.34 245.129 258.045 246.611 257.765Z" fill="#0968A5"/>
<path d="M233.12 225.54L234.232 224.339C235.114 223.386 236.432 222.964 237.703 223.229C239.998 223.706 241.278 226.168 240.35 228.32L240.158 228.765C239.511 230.268 238.031 231.242 236.394 231.242H235.612C233.737 231.242 232.216 229.722 232.216 227.846C232.216 226.991 232.539 226.167 233.12 225.54Z" fill="#0968A5"/>
<path d="M260.589 199.405L261.128 199.148C262.845 198.331 264.871 198.525 266.401 199.652C267.72 200.624 268.499 202.165 268.499 203.803V205.413C268.499 207.603 267.309 209.619 265.393 210.678L265.296 210.731C263.494 211.727 261.3 211.696 259.525 210.651C257.749 209.604 256.659 207.696 256.659 205.635V205.578C256.659 204.48 256.965 203.403 257.541 202.468L257.998 201.729C258.62 200.721 259.52 199.914 260.589 199.405Z" fill="#0968A5"/>
<path d="M62.5425 228.031L63.4655 226.982C63.9149 226.471 64.5623 226.178 65.2426 226.178C66.5499 226.178 67.6097 227.238 67.6097 228.545V228.896C67.6097 230.243 66.6218 231.388 65.2884 231.584L64.5336 231.695C63.6255 231.829 62.7286 231.39 62.2767 230.591C61.8111 229.768 61.9178 228.741 62.5425 228.031Z" fill="#0968A5"/>
<path d="M44.496 220.551L45.4074 218.71C45.9065 217.702 46.9342 217.064 48.0592 217.064C49.2586 217.064 50.3393 217.788 50.7956 218.897L52.258 222.452C52.7908 223.747 52.7355 225.209 52.1064 226.46L51.7405 227.188C50.7888 229.081 48.5198 229.894 46.582 229.038C45.3987 228.515 44.5439 227.449 44.2906 226.18L43.9669 224.559C43.6958 223.201 43.8819 221.792 44.496 220.551Z" fill="#0968A5"/>
<path d="M282.335 189.936L282.945 189.089C284.22 187.318 286.099 186.06 288.221 185.548C291.368 184.79 294.698 185.762 296.931 188.105C298.538 189.792 299.434 192.032 299.434 194.361V198.724C299.434 201.977 297.888 205.037 295.268 206.967L294.885 207.249C293.374 208.362 291.548 208.962 289.672 208.962C286.707 208.962 283.943 207.468 282.318 204.988L281.97 204.456C281.147 203.2 280.619 201.774 280.425 200.286L280.186 198.456C279.793 195.446 280.561 192.4 282.335 189.936Z" stroke="#0869A6" stroke-width="6.07643" stroke-linecap="round"/>
<path d="M269.34 229.031L271.962 228.225C273.415 227.778 274.986 227.912 276.343 228.597C278.325 229.598 279.574 231.629 279.574 233.849V236.361C279.574 238.723 278.736 241.008 277.207 242.809L276.957 243.104C275.678 244.612 273.965 245.687 272.052 246.185L270.69 246.538C269.279 246.905 267.782 246.739 266.486 246.07C264.864 245.234 263.718 243.697 263.38 241.904L262.949 239.619C262.585 237.685 262.844 235.686 263.69 233.91C264.807 231.564 266.857 229.795 269.34 229.031Z" stroke="#0869A6" stroke-width="6.07643" stroke-linecap="round"/>
<path d="M246.611 257.765L248.889 257.333C249.228 257.269 249.577 257.271 249.915 257.34C251.907 257.747 252.725 260.147 251.395 261.685L250.451 262.776C249.785 263.545 248.818 263.987 247.801 263.987H247.195C245.461 263.987 244.056 262.582 244.056 260.848C244.056 259.34 245.129 258.045 246.611 257.765Z" stroke="#0869A6" stroke-width="6.07643" stroke-linecap="round"/>
<path d="M233.12 225.54L234.232 224.339C235.114 223.386 236.432 222.964 237.703 223.229C239.998 223.706 241.278 226.168 240.35 228.32L240.158 228.765C239.511 230.268 238.031 231.242 236.394 231.242H235.612C233.737 231.242 232.216 229.722 232.216 227.846C232.216 226.991 232.539 226.167 233.12 225.54Z" stroke="#0869A6" stroke-width="6.07643" stroke-linecap="round"/>
<path d="M260.589 199.405L261.128 199.148C262.845 198.331 264.871 198.525 266.401 199.652C267.72 200.624 268.499 202.165 268.499 203.803V205.413C268.499 207.603 267.309 209.619 265.393 210.678L265.296 210.731C263.494 211.727 261.3 211.696 259.525 210.651C257.749 209.604 256.659 207.696 256.659 205.635V205.578C256.659 204.48 256.965 203.403 257.541 202.468L257.998 201.729C258.62 200.721 259.52 199.914 260.589 199.405Z" stroke="#0869A6" stroke-width="6.07643" stroke-linecap="round"/>
<path d="M62.5425 228.031L63.4655 226.982C63.9149 226.471 64.5623 226.178 65.2426 226.178C66.5499 226.178 67.6097 227.238 67.6097 228.545V228.896C67.6097 230.243 66.6218 231.388 65.2884 231.584L64.5336 231.695C63.6255 231.829 62.7286 231.39 62.2767 230.591C61.8111 229.768 61.9178 228.741 62.5425 228.031Z" stroke="#0869A6" stroke-width="6.07643" stroke-linecap="round"/>
<path d="M44.496 220.551L45.4074 218.71C45.9065 217.702 46.9342 217.064 48.0592 217.064C49.2586 217.064 50.3393 217.788 50.7956 218.897L52.258 222.452C52.7908 223.747 52.7355 225.209 52.1064 226.46L51.7405 227.188C50.7888 229.081 48.5198 229.894 46.582 229.038C45.3987 228.515 44.5439 227.449 44.2906 226.18L43.9669 224.559C43.6958 223.201 43.8819 221.792 44.496 220.551Z" stroke="#0869A6" stroke-width="6.07643" stroke-linecap="round"/>
<path d="M48.0854 109.459C49.4945 108.577 50.9289 107.73 52.217 107.067C57.4127 104.391 60.6287 103.517 66.1607 101.632C82.6654 96.007 92.6324 95.0131 109.928 92.7994C128.855 90.3769 139.655 90.8664 158.731 90.4215C176.272 90.0123 186.154 89.2461 203.66 90.4215C219.331 91.4736 228.099 92.7231 243.555 95.517C254.972 97.581 269.247 101.316 280.926 104.617C294.943 108.58 310.15 118.908 307.463 133.224C306.162 140.152 297.997 142.665 291.294 140.482C289.639 139.944 288.005 139.429 286.547 138.999C265.354 132.749 252.723 132.022 230.773 129.487C210.595 127.157 199.174 126.711 178.872 126.09C161.031 125.545 151.001 125.347 133.168 126.09C116.641 126.779 107.327 127.171 90.9493 129.487C77.6826 131.363 70.0019 131.822 57.2522 135.942C53.3135 137.214 48.4604 139.206 44.4619 140.94C40.8439 142.51 36.7241 139.885 36.7241 135.942C36.7241 130.768 35.3717 127.687 36.7241 122.693C38.2868 116.923 43.0192 112.634 48.0854 109.459Z" fill="#F7F6F2" stroke="#050A06" stroke-width="6.07643" stroke-linecap="round"/>
<path d="M136.439 67.1604L140.406 66.75C141.868 66.5988 143.287 67.2984 144.057 68.5499C144.918 69.9488 144.79 71.7412 143.738 73.003L138.782 78.9505C137.69 80.2609 136.072 81.0186 134.367 81.0186C131.192 81.0186 128.619 78.4453 128.619 75.2711V74.872C128.619 73.3931 129.152 71.9639 130.121 70.8464L130.749 70.1219C132.2 68.4474 134.234 67.3885 136.439 67.1604Z" fill="#064E7E"/>
<path d="M168.251 61.5064L171.725 60.762C173.649 60.3497 175.64 61.0668 176.859 62.6109C178.575 64.7852 178.27 67.9267 176.167 69.7295L172.359 72.9929C171.146 74.0329 169.601 74.6045 168.002 74.6045H167.202C164.571 74.6045 162.285 72.7986 161.675 70.2397C161.266 68.5222 161.679 66.7121 162.793 65.3419L163.586 64.3651C164.77 62.9083 166.416 61.8997 168.251 61.5064Z" fill="#064E7E"/>
<path d="M207.054 62.1141H209.822C211.734 62.1141 213.437 63.3224 214.068 65.1269C214.817 67.2642 213.859 69.6245 211.834 70.6372L205.711 73.6987C204.571 74.2689 203.228 74.2689 202.088 73.6987C200.715 73.0125 199.848 71.6098 199.848 70.0754V68.8572C199.848 67.3433 200.419 65.8849 201.445 64.7725L201.759 64.4324C203.124 62.9546 205.043 62.1141 207.054 62.1141Z" fill="#064E7E"/>
<path d="M136.439 67.1604L140.406 66.75C141.868 66.5988 143.287 67.2984 144.057 68.5499C144.918 69.9488 144.79 71.7412 143.738 73.003L138.782 78.9505C137.69 80.2609 136.072 81.0186 134.367 81.0186C131.192 81.0186 128.619 78.4453 128.619 75.2711V74.872C128.619 73.3931 129.152 71.9639 130.121 70.8464L130.749 70.1219C132.2 68.4474 134.234 67.3885 136.439 67.1604Z" stroke="#064E7E" stroke-width="6.07643" stroke-linecap="round"/>
<path d="M168.251 61.5064L171.725 60.762C173.649 60.3497 175.64 61.0668 176.859 62.6109C178.575 64.7852 178.27 67.9267 176.167 69.7295L172.359 72.9929C171.146 74.0329 169.601 74.6045 168.002 74.6045H167.202C164.571 74.6045 162.285 72.7986 161.675 70.2397C161.266 68.5222 161.679 66.7121 162.793 65.3419L163.586 64.3651C164.77 62.9083 166.416 61.8997 168.251 61.5064Z" stroke="#064E7E" stroke-width="6.07643" stroke-linecap="round"/>
<path d="M207.054 62.1141H209.822C211.734 62.1141 213.437 63.3224 214.068 65.1269C214.817 67.2642 213.859 69.6245 211.834 70.6372L205.711 73.6987C204.571 74.2689 203.228 74.2689 202.088 73.6987C200.715 73.0125 199.848 71.6098 199.848 70.0754V68.8572C199.848 67.3433 200.419 65.8849 201.445 64.7725L201.759 64.4324C203.124 62.9546 205.043 62.1141 207.054 62.1141Z" stroke="#064E7E" stroke-width="6.07643" stroke-linecap="round"/>
<ellipse cx="157.989" cy="235.707" rx="66.5032" ry="54.0892" fill="#F9F5F2"/>
<path d="M145.105 180.022L148.322 179.532C152.382 178.913 156.501 178.761 160.596 179.081L176.579 180.33C179.789 180.58 182.912 181.493 185.753 183.009L186.746 183.539C188.355 184.398 189.812 185.517 191.056 186.851L193.107 189.048C194.174 190.192 194.85 191.646 195.036 193.199C195.245 194.935 194.829 196.689 193.863 198.148L193.037 199.394C192.684 199.928 192.287 200.43 191.849 200.897L189.035 203.902C186.96 206.118 184.72 208.174 182.335 210.054L178.945 212.725L173.472 215.982C171.147 217.365 168.664 218.464 166.077 219.254L162.696 220.286C158.043 221.707 153.06 221.61 148.466 220.01C146.977 219.491 145.545 218.819 144.194 218.006L140.816 215.975C138.019 214.291 135.368 212.375 132.894 210.245L131.082 208.685C130.054 207.801 129.096 206.839 128.215 205.809L126.494 203.797C125.157 202.233 124.171 200.401 123.6 198.425L123.57 198.321C123.375 197.645 123.235 196.954 123.151 196.255L122.897 194.134C122.748 192.89 122.979 191.63 123.561 190.52C124.135 189.425 125.024 188.527 126.113 187.941L133.848 183.782C137.358 181.894 141.166 180.623 145.105 180.022Z" fill="#2A2F2D" stroke="black" stroke-width="1.00353"/>
<path d="M154.615 220.438C157.101 233.44 169.089 242.402 182.263 241.106L200.188 239.343" stroke="#2A2F2D" stroke-width="6.07643" stroke-linecap="round"/>
<path d="M158.431 232.583C142.648 235.485 137.347 250.945 118.015 240.014" stroke="#2A2F2D" stroke-width="6.07643" stroke-linecap="round"/>
<path d="M110.644 109.714C120.274 109.714 128.761 114.925 134.736 122.893C140.711 130.859 144.316 141.725 144.316 153.599C144.316 165.472 140.711 176.339 134.736 184.306C128.761 192.273 120.274 197.484 110.644 197.484C101.013 197.484 92.5253 192.273 86.5498 184.306C80.575 176.339 76.9697 165.472 76.9697 153.599C76.9698 141.725 80.575 130.859 86.5498 122.893C92.5253 114.925 101.013 109.714 110.644 109.714Z" fill="#F7F6F2" stroke="#080808" stroke-width="6.07643"/>
<path d="M207.866 109.714C217.496 109.714 225.984 114.925 231.959 122.893C237.934 130.859 241.539 141.725 241.539 153.599C241.539 165.472 237.934 176.339 231.959 184.306C225.984 192.273 217.496 197.484 207.866 197.484C198.236 197.484 189.748 192.273 183.772 184.306C177.798 176.339 174.192 165.472 174.192 153.599C174.192 141.725 177.798 130.859 183.772 122.893C189.748 114.925 198.236 109.714 207.866 109.714Z" fill="#F7F6F2" stroke="#080808" stroke-width="6.07643"/>
<path d="M265.468 86.2814C265.925 83.268 264.275 80.3364 261.423 79.2603C255.461 77.0102 245.143 73.4115 237.313 72.2428C229.622 71.0949 218.906 71.4813 212.637 71.8646C209.614 72.0494 207.185 74.3466 206.73 77.3414C206.125 81.3334 209.216 84.9278 213.253 84.9278L233.622 84.9278C234.279 84.9278 234.932 85.0236 235.561 85.2122L257.004 91.6411C260.868 92.7995 264.863 90.2698 265.468 86.2814Z" fill="#2A2F2D"/>
<path d="M120.504 76.9346C119.828 73.9626 117.22 71.8371 114.173 71.8778C107.801 71.9627 96.8817 72.3844 89.1662 74.1586C81.5881 75.9013 71.7544 80.1781 66.0593 82.8263C63.3127 84.1035 61.8914 87.1296 62.5634 90.0832C63.4591 94.0202 67.6495 96.2362 71.4078 94.7604L90.3673 87.315C90.9786 87.075 91.6216 86.9254 92.2761 86.871L114.585 85.017C118.605 84.6829 121.399 80.868 120.504 76.9346Z" fill="#2A2F2D"/>
<ellipse cx="200.185" cy="153.261" rx="26.3312" ry="28.3567" fill="#080808"/>
<ellipse cx="102.288" cy="153.936" rx="26.3312" ry="28.3567" fill="#080808"/>
<ellipse cx="119.48" cy="137.815" rx="9.11465" ry="11.8153" fill="white"/>
<ellipse cx="219.478" cy="132.815" rx="9.11465" ry="11.8153" fill="white"/>
<path d="M301.115 214.024L347.364 204.234" stroke="#050A06" stroke-width="6.07643" stroke-linecap="round"/>
<path d="M294.667 226.344L340.985 235.804" stroke="#050A06" stroke-width="6.07643" stroke-linecap="round"/>
<path d="M49.2871 217.063L3.03872 207.274" stroke="#050A06" stroke-width="6.07643" stroke-linecap="round"/>
<path d="M3.03906 240.693L49.2875 230.904" stroke="#050A06" stroke-width="6.07643" stroke-linecap="round"/>
<path d="M245.55 426.261L236.872 379.771C236.552 378.054 237.594 376.376 239.275 375.902L270.031 367.234C271.887 366.711 273.803 367.846 274.236 369.724L277.491 383.828L279.516 391.592L280.867 400.369L282.892 418.936L283.567 422.987C283.567 422.987 284.073 424.884 284.918 426.025C285.812 427.233 287.618 428.726 287.618 428.726L290.36 431.468C290.776 431.883 291.075 432.4 291.23 432.967L291.888 435.379C291.967 435.668 292.007 435.967 292.007 436.267V441.554V447.326C292.007 447.528 292.025 447.731 292.061 447.93L293.357 455.057C293.357 455.057 295.112 461.404 295.72 465.522C296.262 469.195 296.395 474.974 296.395 474.974L295.72 482.401C295.72 482.401 294.768 487.02 293.695 489.828C292.916 491.866 292.463 493.026 291.332 494.891C290.306 496.582 288.294 498.942 288.294 498.942L285.13 502.422C284.989 502.577 284.834 502.721 284.657 502.834C284.184 503.138 283.174 503.689 282.555 503.331C282.108 503.072 282.015 502.427 282.039 501.832C282.069 501.063 281.944 500.275 281.542 499.618C281.129 498.942 280.192 498.942 279.516 498.605C279.113 498.403 278.713 498.184 278.361 497.983C277.578 497.535 276.657 497.365 275.776 497.561L275.075 497.716C274.448 497.856 273.874 498.171 273.42 498.625L272.63 499.415C272.495 499.55 272.372 499.696 272.262 499.851L267.462 506.627C266.965 507.329 266.22 507.816 265.372 507.954C263.565 508.247 260.272 508.678 257.911 508.395C257.115 508.299 256.643 508.321 255.886 508.057C252.477 506.87 259.694 501.93 262.368 500.211C262.977 499.82 263.438 499.241 263.667 498.555C263.875 497.93 263.875 497.254 263.667 496.629L263.594 496.411C263.41 495.86 263.071 495.374 262.618 495.011C261.983 494.503 261.17 494.273 260.363 494.374L260.229 494.391C259.39 494.496 258.623 494.915 258.082 495.564L249.692 505.633C249.119 506.32 248.296 506.752 247.404 506.833L241.944 507.33C241.565 507.364 241.184 507.32 240.823 507.2C240.515 507.097 240.227 506.94 239.974 506.737L238.669 505.694L237.555 504.58C237.398 504.423 237.257 504.251 237.134 504.066L236.306 502.825C236.083 502.49 235.921 502.117 235.829 501.725L234.974 498.09C234.762 497.19 235.156 496.257 235.949 495.781C236.185 495.639 236.391 495.454 236.556 495.234L238.079 493.204C238.247 492.979 238.386 492.735 238.494 492.476L240.02 488.815L241.032 485.777L242.233 481.873C242.332 481.552 242.383 481.217 242.383 480.881V480.579C242.383 479.8 242.073 479.053 241.523 478.503C241.2 478.18 240.807 477.937 240.375 477.793L240.127 477.711C239.41 477.472 238.627 477.527 237.951 477.865C237.326 478.178 236.838 478.708 236.579 479.356L236.306 480.038L235.631 482.739L234.618 485.777L233.268 489.49C233.268 489.49 232.304 492.114 230.905 492.191C230.149 492.232 229.27 491.529 228.828 491.121C228.632 490.941 228.43 490.766 228.208 490.618L225.504 488.815L223.854 487.441C223.605 487.233 223.387 486.99 223.207 486.72L222.408 485.521C222.222 485.243 222.079 484.939 221.983 484.619L221.258 482.2C221.163 481.886 221.115 481.559 221.115 481.23V479.911C221.115 479.548 221.174 479.187 221.288 478.843L222.803 474.299L225.504 468.223L226.735 466.068C226.814 465.929 226.903 465.796 227.001 465.67L231.58 459.783L236.647 453.766C236.869 453.503 237.049 453.208 237.181 452.89L238.41 449.941C238.581 449.53 238.669 449.089 238.669 448.643V446.222C238.669 446.036 238.654 445.85 238.623 445.667L238.378 444.193C238.347 444.009 238.332 443.824 238.332 443.638V443.242L238.039 440.313C238.009 440.016 238.019 439.717 238.068 439.423L238.332 437.841L238.579 436.85C238.639 436.611 238.725 436.379 238.835 436.159L239.345 435.14L240.223 433.676C240.312 433.527 240.413 433.385 240.524 433.251L242.045 431.427C242.267 431.205 242.538 431.037 242.836 430.938L242.889 430.92C243.222 430.809 243.525 430.622 243.773 430.374L244.172 429.975C244.329 429.818 244.47 429.645 244.594 429.46L245.083 428.726L245.251 428.39C245.58 427.732 245.685 426.984 245.55 426.261Z" fill="#1CA6E5" stroke="#1CA6E5" stroke-width="0.675159" stroke-linecap="round"/>
<path d="M94.0649 372.738L85.5326 369.657C83.9226 369.075 82.1322 369.791 81.3667 371.322L77.983 378.089L76.2951 382.478L74.2697 389.229L71.9066 397.669L67.5181 412.185L65.6234 418.816C65.5366 419.12 65.4076 419.41 65.2402 419.678L64.0911 421.516C63.9014 421.82 63.6646 422.091 63.3896 422.321L62.0802 423.412C61.8802 423.578 61.6616 423.721 61.4288 423.838L59.3985 424.853C59.1858 424.959 58.985 425.088 58.7993 425.236L57.8 426.036C57.5287 426.253 57.2926 426.51 57.1 426.799L56.4474 427.778C56.1792 428.18 56.0005 428.636 55.9235 429.113L54.5257 437.78C54.4131 438.478 54.5227 439.194 54.839 439.827L55.3464 440.841C55.5808 441.31 55.7028 441.827 55.7028 442.351V443.13C55.7028 443.86 55.4659 444.571 55.0276 445.155L54.6901 445.605L49.9639 451.006L45.6743 455.909C45.3861 456.238 45.1647 456.621 45.0224 457.035L41.6383 466.879C41.5626 467.099 41.5099 467.327 41.481 467.558L40.5641 474.893C40.5293 475.172 40.5293 475.453 40.5641 475.731L41.1427 480.36C41.1721 480.595 41.2261 480.826 41.304 481.05L43.752 488.088C43.842 488.347 43.9632 488.594 44.1128 488.823L48.5567 495.637C48.8167 496.036 49.1583 496.375 49.5588 496.633L57.639 501.827C58.1397 502.149 58.7166 502.333 59.3112 502.36L65.4487 502.639C65.7022 502.65 65.9562 502.633 66.2059 502.588L69.1852 502.046C69.4234 502.003 69.6563 501.934 69.8797 501.841L73.2649 500.43C73.484 500.339 73.6926 500.226 73.8819 500.083C74.8063 499.383 77.4981 497.147 74.9448 496.58C72.4579 496.027 68.6139 495.022 67.3007 494.676C66.9958 494.595 66.7057 494.472 66.4353 494.31L63.8235 492.743C63.5868 492.601 63.3684 492.43 63.1733 492.235L59.1284 488.19C58.8718 487.933 58.6583 487.637 58.496 487.313L56.575 483.471C56.4442 483.209 56.3479 482.931 56.2887 482.645L54.472 473.864C54.3929 473.482 54.3807 473.089 54.4359 472.703L54.555 471.869C54.6427 471.255 54.927 470.687 55.3652 470.249L55.4361 470.178C56.029 469.585 56.8665 469.306 57.6966 469.424C58.3675 469.52 58.9767 469.868 59.4001 470.397L59.6073 470.656C59.9258 471.054 60.15 471.52 60.2631 472.017L61.7792 478.688L62.6576 481.616C62.7468 481.913 62.8764 482.197 63.043 482.458L64.8725 485.333C65.0597 485.627 65.2914 485.891 65.5594 486.114L66.98 487.298C67.1135 487.409 67.2553 487.51 67.4043 487.599L70.0172 489.167C70.3735 489.381 70.7663 489.527 71.1756 489.598L77.1774 490.642C77.9183 490.771 78.681 490.649 79.3445 490.295L82.9411 488.377C83.235 488.22 83.504 488.021 83.7395 487.785L84.0119 487.513C84.4832 487.041 84.8044 486.441 84.9351 485.788L85.0067 485.43C85.0503 485.212 85.0722 484.99 85.0722 484.768V484.349C85.0722 483.737 84.9059 483.137 84.5911 482.612L84.2733 482.083C84.1313 481.846 83.9608 481.628 83.7656 481.432L82.6336 480.3C82.4594 480.126 82.3049 479.933 82.1726 479.726L80.3635 476.883C80.1291 476.514 79.9683 476.104 79.8902 475.674L79.3878 472.911C79.3516 472.712 79.3334 472.51 79.3334 472.307V471.104C79.3334 470.34 79.6369 469.607 80.1773 469.067C80.7177 468.527 81.4506 468.223 82.2148 468.223H82.5342C82.8728 468.223 83.2083 468.288 83.5226 468.413C84.2871 468.719 84.867 469.362 85.0932 470.153L86.0849 473.624C89.2748 484.47 86.1349 447.39 85.7794 443.273C85.7571 443.015 85.7658 442.775 85.8024 442.519L95.4435 375.032C95.5045 374.605 95.4339 374.169 95.241 373.784C94.9977 373.297 94.5766 372.923 94.0649 372.738Z" fill="#1CA6E5" stroke="#1CA6E5" stroke-width="0.675159" stroke-linecap="round"/>
<path d="M79.3344 501.644C77.9867 500.553 79.9134 497.942 80.8725 496.797C81.1855 496.423 81.5942 496.149 82.0468 495.968L83.9577 495.203C84.4683 494.999 84.9197 494.672 85.2862 494.262C86.0952 493.357 87.5026 491.866 87.4363 492.529C87.2219 494.67 87.4151 497.219 87.5852 498.797C87.6816 499.691 87.228 500.566 86.4235 500.969L84.8389 501.874C84.3288 502.166 83.7515 502.319 83.164 502.319H81.3598C81.3598 502.319 79.9824 502.168 79.3344 501.644Z" fill="#1CA6E5" stroke="#1CA6E5" stroke-width="0.675159" stroke-linecap="round"/>
<path d="M303.636 355.954L304.073 353.549C304.12 353.294 304.342 353.108 304.601 353.108C304.908 353.108 305.152 352.851 305.136 352.544L304.828 346.694L304.588 344.53C304.524 343.957 304.315 343.41 303.98 342.941L303.29 341.975C302.97 341.527 302.546 341.164 302.053 340.918L301.732 340.758C301.121 340.452 300.413 340.402 299.765 340.618C299.116 340.834 298.58 341.299 298.275 341.91L297.638 343.183C297.482 343.496 297.375 343.833 297.321 344.179L296.8 347.566C296.751 347.883 296.748 348.207 296.791 348.525L297.309 352.416C297.37 352.873 297.524 353.312 297.761 353.707L299.176 356.066C299.342 356.343 299.554 356.59 299.802 356.796L300.26 357.179C300.968 357.768 301.978 357.822 302.744 357.311C303.213 356.998 303.535 356.508 303.636 355.954Z" fill="#003568" stroke="#003568" stroke-width="0.675159" stroke-linecap="round"/>
<path d="M115.192 508.614C112.997 507.385 110.299 506.081 109.042 508.054C106.68 511.765 110.393 530.672 110.393 530.672L111.406 540.462V544.668C111.406 545.013 111.458 545.356 111.562 545.684L113.262 551.068C113.374 551.422 113.543 551.755 113.764 552.054L117.839 557.584C118.05 557.87 118.305 558.122 118.594 558.328L124.786 562.751C125.091 562.969 125.43 563.134 125.789 563.241L134.361 565.781L141.771 567.391C142.006 567.443 142.247 567.468 142.488 567.468H145.839H149.352C149.926 567.468 150.49 567.322 150.992 567.044L152.684 566.103C153.068 565.89 153.406 565.604 153.681 565.261L154.207 564.604C154.477 564.266 154.68 563.88 154.804 563.465L155.424 561.399C155.559 560.949 155.598 560.476 155.54 560.01L154.322 550.263C154.293 550.031 154.288 549.797 154.307 549.564L154.616 545.863L153.624 526.033C153.61 525.751 153.63 525.474 153.682 525.197C154.188 522.493 156.769 507.404 151.24 508.054C146.327 508.633 141.167 509.705 139.783 510.002C139.542 510.054 139.3 510.08 139.054 510.08H128.285L122.608 509.688C120.481 509.542 117.052 509.657 115.192 508.614Z" fill="#1CA6E5" stroke="#1CA6E5" stroke-width="0.675159" stroke-linecap="round"/>
<path d="M198.488 511.903C196.184 511.23 188.811 509.309 189.381 512.445C189.917 515.399 189.974 517.769 189.977 518.568C189.977 518.763 189.989 518.956 190.017 519.148L191.325 527.974L193.013 536.751L194.363 544.178L195.713 548.566L197.958 553.376C198.037 553.545 198.129 553.707 198.235 553.861L201.653 558.832C201.744 558.965 201.845 559.091 201.954 559.209L205.841 563.42L209.265 566.533C209.457 566.707 209.669 566.859 209.896 566.986L215.631 570.172L219.63 572.017C219.888 572.137 220.161 572.223 220.441 572.274L223.732 572.872L231.078 574.788C231.356 574.861 231.642 574.898 231.93 574.898H233.62C233.78 574.898 233.939 574.886 234.097 574.864L235.822 574.617C236.088 574.579 236.349 574.51 236.598 574.41L237.911 573.885L240.536 572.427C240.81 572.274 241.061 572.084 241.283 571.863L242.978 570.168C243.199 569.946 243.389 569.695 243.542 569.421L244.717 567.305C244.904 566.968 245.032 566.601 245.096 566.221L245.584 563.29C245.644 562.929 245.645 562.56 245.587 562.199L237.797 513.837C237.654 512.946 237.16 512.151 236.426 511.626L235.21 510.758L233.819 509.54C232.997 508.821 232.674 507.721 232.395 506.666C232.208 505.96 231.778 505.375 230.822 505.694C228.796 506.369 224.408 508.394 224.408 508.394L218.013 510.313C217.776 510.384 217.531 510.429 217.284 510.447L212.93 510.758L205.841 511.433L199.867 512.037C199.403 512.083 198.936 512.033 198.488 511.903Z" fill="#1CA6E5" stroke="#1CA6E5" stroke-width="0.675159" stroke-linecap="round"/>
<path d="M117.811 451.678L104.645 449.652L97.5622 447.968C96.0784 447.671 95.3772 447.57 95 447.521C94.4442 447.449 93.8832 447.301 93.3592 447.103C92.7434 446.869 92.1654 446.551 92.1546 446.952C92.1271 447.975 93.743 497.251 93.8487 497.928C93.9545 498.604 97.6141 499.286 99.5833 499.616C103.357 500.248 109.377 501.643 109.377 501.643L125.339 503.967C125.5 503.991 125.663 504.003 125.826 504.003H137.053L146.167 502.99L153.13 502.156C154.072 502.043 154.923 501.539 155.475 500.766L156.297 499.616L157.359 497.752C157.548 497.42 157.68 497.059 157.748 496.684L158.32 493.538L158.589 490.847C158.634 490.395 158.588 489.938 158.452 489.504L156.97 484.761L154.069 478.669C153.76 478.021 153.253 477.488 152.621 477.148L145.086 473.09C144.907 472.994 144.737 472.881 144.578 472.754L143.802 472.133C143.365 471.784 143.056 471.301 142.92 470.759C142.835 470.42 142.821 470.066 142.879 469.721L142.992 469.041C143.081 468.506 143.335 468.013 143.718 467.63C144.206 467.143 144.867 466.869 145.556 466.869H146.021C146.561 466.869 147.093 466.998 147.572 467.246L156.632 471.933L161.698 475.415C161.922 475.569 162.127 475.75 162.308 475.954L167.437 481.724L170.097 485.567C170.345 485.926 170.522 486.33 170.616 486.756L171.743 491.827C171.796 492.066 171.876 492.3 171.979 492.522L173.973 496.794C174.115 497.097 174.3 497.377 174.523 497.625L176.91 500.276C177.12 500.51 177.362 500.713 177.629 500.88L182.118 503.685C182.454 503.895 182.824 504.044 183.212 504.126L189.04 505.353L193.428 505.69H197.479L203.556 505.353L213.346 504.678L220.786 503.384C221.001 503.346 221.213 503.288 221.417 503.209L227.91 500.717C228.926 500.326 229.317 499.094 228.712 498.189C228.596 498.015 228.449 497.864 228.278 497.744L219.742 491.737C219.529 491.588 219.335 491.414 219.162 491.219L217.233 489.049C216.896 488.671 216.649 488.221 216.51 487.734L214.912 482.142C214.77 481.644 214.744 481.12 214.837 480.61L215.328 477.907C215.357 477.75 215.396 477.595 215.447 477.444L217.059 472.608L219.993 465.437C220.062 465.266 220.146 465.102 220.242 464.946L222.798 460.792L229.549 452.353L231.575 449.99C231.575 449.99 233.26 447.963 232.25 447.964C231.24 447.966 219.76 450.665 219.76 450.665L203.893 452.353L194.679 453.669C194.52 453.692 194.361 453.703 194.201 453.703H168.448H150.218H140.428L128.951 453.028L117.811 451.678Z" fill="#2A2F2D" stroke="#2A2F2D" stroke-width="0.675159" stroke-linecap="round"/>
<path d="M157.18 549.065L156.612 549.338C154.051 550.574 151.787 552.348 149.975 554.54L147.904 557.045C147.436 557.611 146.917 558.135 146.355 558.608L145.62 559.228C143.976 560.613 141.912 561.399 139.764 561.46L137.056 561.536C134.546 561.606 132.277 560.049 131.441 557.681L129.61 553.266C128.486 550.556 126.635 548.21 124.262 546.486C122.534 545.23 120.571 544.335 118.49 543.854L116.118 543.306C114.224 542.869 112.261 542.82 110.348 543.164C107.007 543.764 103.987 545.529 101.824 548.146L98.7287 551.891L93.5569 558.414C92.1758 560.156 90.144 561.259 87.9309 561.469C86.4268 561.612 84.9918 562.169 83.7856 563.079L82.6272 563.953C81.8738 564.522 81.2723 565.267 80.8759 566.123L80.3464 567.268C79.8174 568.411 78.7213 569.187 77.4676 569.306C77.2354 569.328 77.0061 569.373 76.7828 569.44L74.4982 570.127C73.0031 570.576 71.7993 571.691 71.2361 573.147C70.7522 574.398 69.7909 575.406 68.5638 575.949L67.525 576.408L64.7404 577.349C62.8816 577.977 61.2519 579.143 60.0588 580.701L59.6471 581.238C58.5371 582.687 56.9632 583.711 55.1888 584.139C53.9149 584.446 52.7363 585.062 51.7576 585.934L48.516 588.819L47.676 589.502C45.0881 591.606 42.0896 593.147 38.8723 594.027C37.0181 594.534 35.2316 595.262 33.5512 596.195L32.9759 596.515C31.5818 597.289 30.2584 598.185 29.0209 599.191L27.2981 600.591C25.8865 601.739 24.2787 602.622 22.5526 603.196C21.4225 603.573 20.341 604.082 19.3307 604.713L18.3059 605.353C16.141 606.705 14.2083 608.397 12.5821 610.364L12.169 610.911C10.2564 613.441 9.11932 616.472 8.89586 619.636C8.83229 620.536 8.84321 621.439 8.92847 622.338L9.0687 623.815C9.25237 625.75 9.85785 627.621 10.8425 629.297C11.7411 630.826 12.9365 632.16 14.3584 633.221L15.6203 634.162C18.4525 636.274 21.7699 637.641 25.2679 638.137L25.8613 638.221C27.6856 638.48 29.534 638.523 31.3683 638.349L35.1299 637.991C38.4163 637.68 41.7287 638.188 44.7702 639.471C47.8117 640.755 51.1241 641.263 54.4105 640.951L60.3531 640.387C61.8603 640.244 63.3806 640.345 64.8557 640.686L66.5186 641.07C68.7478 641.586 71.0881 641.28 73.1101 640.209L76.5836 638.37C78.2655 637.479 80.3335 637.807 81.6575 639.174C82.1814 639.715 82.8388 640.108 83.5633 640.314L85.6703 640.911C87.7135 641.49 89.8711 641.536 91.9371 641.044L104.659 638.015C105.219 637.882 105.732 637.596 106.14 637.189L109.355 633.987C109.943 633.4 110.948 633.763 111.027 634.59C111.078 635.13 111.558 635.527 112.098 635.476L114.85 635.214L124.337 634.314C126.123 634.144 127.838 633.534 129.33 632.538L133.844 629.525C134.798 628.889 136.043 628.896 136.99 629.544C137.402 629.825 137.881 629.992 138.379 630.027L142.969 630.352C144.903 630.488 146.847 630.34 148.737 629.911L154.519 628.6C155.671 628.339 156.75 627.823 157.677 627.091L158.624 626.342C160.484 624.871 163.034 624.625 165.141 625.713C166.17 626.245 167.33 626.469 168.483 626.36L170.194 626.197C172.356 625.992 174.42 625.199 176.163 623.904L183.314 618.592C184.864 617.441 186.3 616.144 187.603 614.719L188.094 614.182C190.768 611.258 192.765 607.782 193.945 604L195.282 599.717C195.468 599.12 195.534 598.491 195.474 597.868L195.448 597.586C195.238 595.38 193.42 593.676 191.205 593.61C190.163 593.579 189.166 593.179 188.393 592.48L185.475 589.847L185.382 589.747C182.972 587.162 181.485 583.853 181.151 580.335L180.781 576.438C180.62 574.751 180.205 573.097 179.549 571.534L178.566 569.193C178.409 568.819 178.184 568.478 177.902 568.187L177.594 567.87C177.099 567.359 176.399 567.1 175.69 567.167C174.084 567.32 172.808 565.84 173.194 564.274L174.133 560.472L175.029 555.98C175.348 554.38 175.071 552.719 174.25 551.309C173.487 549.997 172.299 548.983 170.883 548.436L170.015 548.1C169.214 547.791 168.375 547.593 167.52 547.513L166.398 547.407C163.232 547.11 160.044 547.683 157.18 549.065Z" fill="#F3F5E8" stroke="black" stroke-width="6.81245"/>
<path d="M180.162 587.955C175.686 590.633 170.668 592.278 165.476 592.771L161.494 593.149C157.492 593.528 153.655 594.929 150.348 597.216L147.364 599.28L133.07 610.901L131.471 612.08" stroke="black" stroke-width="3.40622"/>
<path d="M92.1835 619.916L89.8657 619.981C84.6731 620.127 79.605 621.604 75.147 624.27C71.5558 626.396 67.4165 627.414 63.2489 627.195L60.3554 627.043" stroke="black" stroke-width="3.40622"/>
<path d="M18.6188 609.108L21.9585 610.833C23.0767 611.411 24.0562 612.224 24.8292 613.217L25.1713 613.657C25.9631 614.674 26.4483 615.896 26.5702 617.18C26.72 618.758 27.4186 620.234 28.5443 621.351L30.5793 623.37" stroke="black" stroke-width="3.40622"/>
<path d="M164.203 553.203L161.829 556.076C160.361 557.851 159.31 559.933 158.752 562.167C158.328 563.864 158.197 565.62 158.362 567.361L158.649 570.388C158.656 570.459 158.676 570.528 158.709 570.591C158.957 571.074 158.442 571.592 157.958 571.346L153.074 568.873C152.807 568.738 152.516 568.656 152.218 568.63L146.075 568.105C145.415 568.049 144.751 568.085 144.101 568.213L140.585 568.905C139.294 569.159 138.005 568.463 137.51 567.245C137.202 566.487 136.572 565.906 135.792 565.659L129.894 563.799C128.54 563.371 127.134 563.128 125.714 563.074L120.874 562.89C118.701 562.808 116.548 563.329 114.654 564.396C112.727 565.481 110.533 566.001 108.324 565.896L102.082 565.601M102.082 565.601L94.2351 562.24M102.082 565.601L102.757 572.722C102.866 573.864 101.793 574.758 100.689 574.446L97.5016 573.542C96.9434 573.384 96.4275 573.103 95.9917 572.72L93.6911 570.698C91.7101 568.957 89.3601 567.687 86.8178 566.986L83.3024 566.015" stroke="black" stroke-width="3.40622"/>
<path d="M80.3962 571.422L85.8415 573.647C87.1788 574.193 88.3814 575.023 89.3664 576.08L90.9938 577.826C91.4392 578.304 91.7142 578.915 91.7759 579.565C91.9756 581.669 89.9707 583.299 87.9517 582.675L84.6623 581.657C84.0496 581.467 83.4768 581.167 82.9721 580.771L78.3905 577.177C77.0753 576.146 75.4141 575.659 73.7501 575.817L73.187 575.87C73.0302 575.885 72.8759 575.919 72.7275 575.971C71.0226 576.574 71.0129 578.981 72.7127 579.597L74.1168 580.106C74.2961 580.171 74.4673 580.257 74.6269 580.362L76.4407 581.55C78.6015 582.966 80.0016 585.288 80.2457 587.86C80.3915 589.396 78.8479 590.533 77.4241 589.939L75.449 589.115C75.2989 589.052 75.1537 588.979 75.0143 588.895L67.7446 584.519C67.1688 584.172 66.5496 583.903 65.9031 583.72L62.1419 582.654C61.1935 582.385 60.1803 582.763 59.64 583.588C58.8682 584.766 59.3523 586.355 60.6497 586.902L65.6591 589.016C66.7995 589.497 67.7346 590.364 68.3009 591.465L68.5483 591.946C68.9082 592.645 69.0324 593.442 68.9024 594.218C68.5432 596.363 66.3997 597.72 64.3074 597.127L62.7189 596.676C62.1767 596.523 61.6634 596.281 61.1999 595.96L54.9421 591.63L50.9867 589.611" stroke="black" stroke-width="3.40622"/>
<path d="M246.971 551.766L246.403 552.04C243.842 553.275 241.578 555.049 239.766 557.241L237.695 559.746C237.227 560.313 236.709 560.836 236.146 561.31L235.411 561.929C233.767 563.314 231.703 564.101 229.555 564.161L226.847 564.237C224.337 564.308 222.068 562.75 221.232 560.383L219.401 555.967C218.277 553.258 216.426 550.911 214.053 549.187C212.325 547.931 210.362 547.037 208.281 546.556L205.909 546.007C204.015 545.57 202.052 545.521 200.139 545.865C196.798 546.465 193.778 548.231 191.615 550.847L188.52 554.592L183.348 561.115C181.967 562.857 179.935 563.961 177.722 564.171C176.218 564.313 174.783 564.871 173.577 565.781L172.418 566.655C171.665 567.223 171.063 567.968 170.667 568.825L170.137 569.969C169.608 571.112 168.512 571.888 167.259 572.007C167.026 572.029 166.797 572.074 166.574 572.141L164.289 572.828C162.794 573.277 161.59 574.392 161.027 575.848C160.543 577.099 159.582 578.107 158.355 578.65L157.316 579.109L154.531 580.05C152.673 580.678 151.043 581.845 149.85 583.402L149.438 583.939C148.328 585.388 146.754 586.412 144.98 586.84C143.706 587.147 142.527 587.764 141.549 588.635L138.307 591.521L137.467 592.204C134.879 594.308 131.881 595.849 128.663 596.728C126.809 597.235 125.023 597.963 123.342 598.896L122.767 599.216C121.373 599.99 120.049 600.886 118.812 601.892L117.089 603.293C115.677 604.44 114.07 605.323 112.344 605.898C111.213 606.274 110.132 606.783 109.122 607.414L108.097 608.054C105.932 609.406 103.999 611.098 102.373 613.066L101.96 613.612C100.047 616.142 98.9103 619.173 98.6869 622.337C98.6233 623.237 98.6342 624.141 98.7195 625.039L98.8597 626.516C99.0434 628.451 99.6489 630.322 100.634 631.998C101.532 633.527 102.728 634.861 104.149 635.922L105.411 636.863C108.244 638.975 111.561 640.342 115.059 640.838L115.652 640.922C117.477 641.181 119.325 641.224 121.159 641.05L124.921 640.693C128.207 640.381 131.52 640.889 134.561 642.173C137.603 643.456 140.915 643.965 144.202 643.653L150.144 643.089C151.651 642.946 153.172 643.046 154.647 643.387L156.31 643.772C158.539 644.287 160.879 643.981 162.901 642.91L166.375 641.071C168.056 640.18 170.125 640.508 171.449 641.875C171.972 642.416 172.63 642.809 173.354 643.015L175.461 643.612C177.505 644.191 179.662 644.237 181.728 643.745L194.45 640.717C195.01 640.583 195.523 640.297 195.931 639.89L199.146 636.688C199.734 636.102 200.739 636.464 200.818 637.291C200.869 637.832 201.349 638.228 201.889 638.177L204.641 637.916L214.128 637.015C215.914 636.846 217.629 636.236 219.121 635.24L223.635 632.227C224.589 631.59 225.834 631.597 226.781 632.245C227.193 632.527 227.672 632.694 228.17 632.729L232.76 633.053C234.694 633.19 236.638 633.041 238.528 632.612L244.31 631.301C245.462 631.04 246.541 630.525 247.468 629.792L248.415 629.043C250.275 627.572 252.825 627.327 254.932 628.415C255.961 628.946 257.121 629.17 258.274 629.061L259.985 628.899C262.147 628.693 264.211 627.9 265.954 626.606L273.105 621.294C274.655 620.142 276.091 618.845 277.394 617.42L277.885 616.883C280.559 613.959 282.556 610.483 283.736 606.701L285.073 602.418C285.259 601.821 285.325 601.192 285.266 600.569L285.239 600.287C285.029 598.082 283.211 596.377 280.996 596.311C279.954 596.281 278.957 595.88 278.184 595.182L275.266 592.548L275.173 592.448C272.763 589.864 271.276 586.555 270.942 583.036L270.572 579.14C270.411 577.452 269.996 575.798 269.34 574.235L268.357 571.895C268.2 571.521 267.975 571.179 267.693 570.888L267.386 570.571C266.89 570.06 266.19 569.801 265.481 569.869C263.875 570.021 262.599 568.542 262.985 566.975L263.924 563.173L264.82 558.681C265.139 557.081 264.862 555.42 264.041 554.01C263.278 552.698 262.09 551.685 260.674 551.137L259.806 550.802C259.005 550.492 258.166 550.294 257.311 550.214L256.189 550.109C253.023 549.811 249.835 550.384 246.971 551.766Z" fill="#F3F5E8" stroke="black" stroke-width="6.81245"/>
<path d="M269.955 590.656C265.479 593.334 260.461 594.979 255.269 595.472L251.287 595.85C247.285 596.23 243.448 597.63 240.141 599.917L237.157 601.981L222.863 613.603L221.264 614.781" stroke="black" stroke-width="3.40622"/>
<path d="M181.975 622.616L179.657 622.681C174.464 622.827 169.396 624.304 164.938 626.971C161.347 629.096 157.207 630.114 153.04 629.895L150.146 629.743" stroke="black" stroke-width="3.40622"/>
<path d="M108.412 611.81L111.751 613.534C112.87 614.112 113.849 614.925 114.622 615.918L114.964 616.358C115.756 617.375 116.241 618.597 116.363 619.881C116.513 621.459 117.212 622.936 118.337 624.052L120.372 626.071" stroke="black" stroke-width="3.40622"/>
<path d="M253.994 555.904L251.62 558.776C250.152 560.551 249.101 562.633 248.543 564.867C248.12 566.564 247.988 568.32 248.153 570.061L248.44 573.088C248.447 573.159 248.467 573.228 248.5 573.291C248.748 573.774 248.233 574.292 247.749 574.047L242.865 571.574C242.598 571.438 242.307 571.356 242.009 571.33L235.866 570.806C235.206 570.749 234.542 570.785 233.892 570.913L230.376 571.605C229.085 571.859 227.796 571.163 227.301 569.945C226.993 569.187 226.363 568.606 225.583 568.36L219.685 566.499C218.331 566.072 216.925 565.828 215.505 565.774L210.665 565.59C208.492 565.508 206.339 566.029 204.445 567.096C202.518 568.181 200.324 568.701 198.115 568.596L191.873 568.301M191.873 568.301L184.026 564.94M191.873 568.301L192.548 575.422C192.657 576.564 191.584 577.459 190.48 577.146L187.293 576.242C186.734 576.084 186.219 575.803 185.783 575.42L183.482 573.398C181.501 571.657 179.151 570.387 176.609 569.686L173.093 568.715" stroke="black" stroke-width="3.40622"/>
<path d="M170.187 574.123L175.633 576.348C176.97 576.894 178.172 577.725 179.157 578.781L180.785 580.527C181.23 581.005 181.505 581.616 181.567 582.267C181.767 584.371 179.762 586.001 177.743 585.376L174.453 584.358C173.841 584.168 173.268 583.868 172.763 583.472L168.182 579.879C166.866 578.847 165.205 578.36 163.541 578.518L162.978 578.571C162.821 578.586 162.667 578.62 162.518 578.673C160.814 579.275 160.804 581.683 162.504 582.299L163.908 582.808C164.087 582.873 164.258 582.958 164.418 583.063L166.232 584.251C168.393 585.667 169.793 587.989 170.037 590.561C170.183 592.097 168.639 593.234 167.215 592.64L165.24 591.816C165.09 591.753 164.945 591.68 164.805 591.596L157.536 587.22C156.96 586.873 156.341 586.605 155.694 586.422L151.933 585.355C150.985 585.086 149.971 585.464 149.431 586.289C148.659 587.467 149.143 589.056 150.441 589.604L155.45 591.717C156.591 592.199 157.526 593.065 158.092 594.166L158.339 594.647C158.699 595.347 158.823 596.144 158.693 596.92C158.334 599.064 156.191 600.421 154.098 599.828L152.51 599.378C151.968 599.224 151.454 598.982 150.991 598.661L144.733 594.331L140.778 592.312" stroke="black" stroke-width="3.40622"/>
<path d="M317.889 355.723L318.699 355.507C319.585 355.271 320.529 355.463 321.252 356.025C321.966 356.58 322.383 357.433 322.383 358.337V367.83C322.383 368.604 322.026 369.336 321.414 369.811C320.62 370.429 319.534 370.513 318.654 370.024L318.128 369.732C317.927 369.62 317.738 369.488 317.563 369.339L317.187 369.016C315.343 367.435 314.281 365.128 314.281 362.698V361.968V360.578C314.281 359.507 314.62 358.464 315.25 357.598L315.344 357.469C315.967 356.613 316.865 355.996 317.889 355.723Z" fill="#003568" stroke="#003568" stroke-width="4.55732" stroke-linecap="round"/>
<path d="M304.604 390.874L303.767 390.811C302.854 390.742 301.961 391.105 301.354 391.791C300.754 392.467 300.501 393.383 300.668 394.271L302.416 403.602C302.559 404.363 303.045 405.016 303.733 405.371C304.628 405.832 305.711 405.714 306.485 405.072L306.948 404.688C307.125 404.541 307.287 404.377 307.431 404.197L307.742 403.811C309.263 401.918 309.882 399.454 309.434 397.066L309.3 396.348L309.044 394.982C308.847 393.929 308.321 392.966 307.543 392.231L307.427 392.122C306.657 391.395 305.66 390.954 304.604 390.874Z" fill="#003568" stroke="#003568" stroke-width="4.55732" stroke-linecap="round"/>
<path d="M320.117 439.275L320.961 436.981C321.05 436.738 321.301 436.593 321.556 436.638C321.859 436.691 322.144 436.479 322.18 436.174L322.881 430.358L323.015 428.185C323.051 427.609 322.939 427.034 322.689 426.514L322.176 425.445C321.937 424.949 321.581 424.518 321.138 424.191L320.85 423.978C320.3 423.572 319.611 423.401 318.935 423.503C318.259 423.604 317.651 423.97 317.245 424.52L316.4 425.665C316.192 425.947 316.029 426.26 315.917 426.592L314.822 429.839C314.72 430.143 314.661 430.461 314.648 430.782L314.492 434.705C314.473 435.165 314.549 435.624 314.715 436.054L315.704 438.621C315.82 438.922 315.986 439.201 316.195 439.447L316.581 439.903C317.177 440.605 318.163 440.831 319.005 440.46C319.521 440.232 319.923 439.805 320.117 439.275Z" fill="#003568" stroke="#003568" stroke-width="0.675159" stroke-linecap="round"/>
<path d="M237.99 33.146L242.798 25.7809C243.711 24.3826 245.059 23.324 246.634 22.7688C249.125 21.8902 251.895 22.3691 253.947 24.0335L260.491 29.3422C263.901 32.108 266.434 35.805 267.781 39.9836L275.356 63.4749C275.743 64.6735 275.82 65.9502 275.582 67.1867C274.697 71.7777 269.865 74.4411 265.511 72.7377L248.537 66.0972C237.368 61.7278 231.657 49.3059 235.61 37.9833C236.205 36.2805 237.004 34.6562 237.99 33.146Z" fill="#0860A0" stroke="#0A62A2" stroke-width="4.55732" stroke-linecap="round"/>
<path d="M102.322 30.4451L97.5144 23.0801C96.6016 21.6818 95.2536 20.6232 93.6788 20.0679C91.187 19.1894 88.4178 19.6683 86.3658 21.3327L79.8212 26.6414C76.4115 29.4072 73.8789 33.1042 72.5315 37.2827L64.9563 60.7741C64.5698 61.9727 64.4921 63.2494 64.7304 64.4859C65.6153 69.0769 70.4476 71.7403 74.8017 70.0369L91.7757 63.3964C102.945 59.027 108.656 46.6051 104.702 35.2825C104.107 33.5797 103.308 31.9554 102.322 30.4451Z" fill="#0860A0" stroke="#0A62A2" stroke-width="4.55732" stroke-linecap="round"/>
<path d="M85.7691 54.4592L96.1813 50.6602C100.158 49.2091 103.849 53.3931 101.913 57.158C101.496 57.9683 100.851 58.6384 100.057 59.0851L95.8727 61.4385L86.3051 59.9435C85.5181 59.8205 84.8187 59.3733 84.3769 58.7106C83.3545 57.177 84.0376 55.091 85.7691 54.4592Z" fill="#001D32"/>
<path d="M95.8727 61.4385L86.3051 59.9435C85.5181 59.8206 84.8187 59.3733 84.3769 58.7106C83.3545 57.177 84.0376 55.091 85.7691 54.4592L96.1813 50.6602C100.158 49.2091 103.849 53.3931 101.913 57.158C101.496 57.9683 100.851 58.6384 100.057 59.0851L95.8727 61.4385ZM95.8727 61.4385L72.2422 72.241" stroke="#001D32" stroke-width="4.55732" stroke-linecap="round"/>
<path d="M89.4609 17.5547C92.8834 17.5547 96.129 19.0749 98.32 21.7041L100.419 24.2225C101.213 25.1761 101.91 26.2072 102.499 27.3002L104.619 31.2386C105.758 33.352 106.514 35.6498 106.853 38.026C107.4 41.8537 106.848 45.7579 105.261 49.2839L101.614 57.3891" stroke="#001D32" stroke-width="4.55732" stroke-linecap="round"/>
<path d="M234.449 52.6274L233.262 48.2743L247.675 50.0392C249.008 50.2024 250.176 51.0087 250.802 52.1972L252.113 54.6887C252.66 55.7281 252.104 57.0068 250.971 57.3159C249.278 57.7776 249.135 60.1231 250.759 60.7875L253.179 61.7775L259.955 65.4479C260.791 65.9005 261.368 66.7166 261.516 67.6554C261.872 69.9076 259.722 71.7402 257.554 71.0325L247.406 67.7189C246.312 67.3617 245.292 66.8105 244.393 66.0917L242.074 64.2359C240.04 62.6094 238.306 60.6412 236.948 58.4195C235.846 56.6162 235.005 54.6663 234.449 52.6274Z" fill="#001D32"/>
<path d="M247.778 20.5928L247.638 20.6528C244.627 21.9432 241.981 23.9565 239.935 26.5143C239.313 27.2916 238.75 28.1145 238.251 28.976L237.021 31.1012C235.87 33.0901 234.968 35.2135 234.337 37.4233C233.623 39.919 233.262 42.5019 233.262 45.0975V48.2743M233.262 48.2743L234.449 52.6274C235.005 54.6663 235.846 56.6162 236.948 58.4195C238.306 60.6412 240.04 62.6094 242.074 64.2359L244.393 66.0917C245.292 66.8105 246.312 67.3617 247.406 67.7189L257.554 71.0325C259.722 71.7402 261.872 69.9076 261.516 67.6554C261.368 66.7166 260.791 65.9005 259.955 65.4479L253.179 61.7775L250.759 60.7875C249.135 60.1231 249.278 57.7776 250.971 57.3159C252.104 57.0068 252.66 55.7281 252.113 54.6887L250.802 52.1972C250.176 51.0087 249.008 50.2024 247.675 50.0392L233.262 48.2743Z" stroke="#001D32" stroke-width="4.55732" stroke-linecap="round"/>
<path d="M162.364 316.999C146.812 356.732 141.687 377.91 146.74 411.336C147.473 405.68 148.126 402.873 150.272 399.338C152.429 411.192 155.085 417.838 165.039 429.699C164.616 424.465 164.623 421.724 165.213 417.343C178.791 429.297 186.09 428.808 199.259 431.392C173.847 412.608 168.359 402.234 166.7 383.894C164.32 389.703 163.583 393.054 162.651 399.094C158.598 389.089 157.425 382.076 159.317 364.48C159.317 364.48 154.496 370.701 152.824 375.642C149.339 356.893 155.573 340.366 162.364 316.999Z" fill="#2A2F2D" stroke="#2A2F2D" stroke-width="3"/>
</svg>
