<svg width="534" height="357" viewBox="0 0 534 357" fill="none" xmlns="http://www.w3.org/2000/svg">
<g clip-path="url(#clip0_3629_8429)">
<rect width="534" height="357" rx="20" fill="white"/>
<rect width="324.838" height="334.957" transform="matrix(0.457417 -0.889253 0.415312 0.909679 507.719 167.303)" fill="white"/>
<rect width="297.812" height="327.621" transform="matrix(0.457417 -0.889253 0.415312 0.909679 454.701 158.678)" fill="#055FD2"/>
<rect width="324.838" height="334.957" transform="matrix(0.457417 -0.889253 0.415312 0.909679 389.881 174.246)" fill="white"/>
<rect width="297.812" height="327.621" transform="matrix(0.457417 -0.889253 0.415312 0.909679 335.074 163.728)" fill="#055FD2"/>
<rect width="324.838" height="334.957" transform="matrix(0.457417 -0.889253 0.415312 0.909679 270.254 179.297)" fill="white"/>
<rect width="297.812" height="327.621" transform="matrix(0.457417 -0.889253 0.415312 0.909679 226.338 146.728)" fill="#055FD2"/>
<rect width="324.838" height="334.957" transform="matrix(0.457417 -0.889253 0.415312 0.909679 161.516 162.294)" fill="white"/>
<rect width="297.812" height="327.621" transform="matrix(0.457417 -0.889253 0.415312 0.909679 106.711 151.781)" fill="#055FD2"/>
<rect width="324.838" height="334.957" transform="matrix(0.457417 -0.889253 0.415312 0.909679 41.8867 167.35)" fill="white"/>
<rect width="297.812" height="327.621" transform="matrix(0.457417 -0.889253 0.415312 0.909679 -21.8164 136.239)" fill="#055FD2"/>
<rect width="324.838" height="334.957" transform="matrix(0.457417 -0.889253 0.415312 0.909679 -86.6387 151.81)" fill="white"/>
<rect width="297.812" height="327.621" transform="matrix(0.457417 -0.889253 0.415312 0.909679 -141.445 141.298)" fill="#055FD2"/>
<rect width="324.838" height="334.957" transform="matrix(0.457417 -0.889253 0.415312 0.909679 -206.266 156.861)" fill="white"/>
<rect width="297.812" height="327.621" transform="matrix(0.457417 -0.889253 0.415312 0.909679 -250.18 124.293)" fill="#055FD2"/>
<path d="M256.575 20H330.148C336.582 20 342.954 21.2704 348.896 23.7383C353.579 25.6831 357.931 28.3446 361.796 31.6275L375.603 43.3563L391.981 61.8102C394.545 64.6992 396.787 67.858 398.669 71.2312L419.361 108.322C422.464 113.883 420.421 120.907 414.82 123.937C414.071 124.343 413.278 124.663 412.458 124.892L355.964 140.674C357.152 144.376 358.051 148.164 358.653 152.005L367.591 209.076C368.17 212.777 368.462 216.517 368.462 220.264V221.301C368.462 228.344 364.24 234.702 357.749 237.436C358.931 240.748 359.534 244.238 359.534 247.755V249.806V273.583V290.266V304.67V306.972C359.534 311.295 357.562 315.381 354.178 318.071C345.565 323.193 335.889 326.266 325.899 327.055L309.543 328.347C302.438 328.908 295.289 328.444 288.316 326.968L286.439 326.571C274.85 324.12 265.885 314.918 263.735 303.269C262.21 295.003 257.202 287.793 249.987 283.479L246.457 281.368L251.946 293.597C253.428 296.9 254.194 300.479 254.194 304.098V309.457C254.194 313.514 252.428 317.37 249.356 320.02C247.459 321.656 245.156 322.751 242.689 323.19L229.209 325.59C224.063 326.505 218.825 326.786 213.611 326.425L201.634 325.596C193.439 325.029 185.3 323.836 177.287 322.029L175.636 321.657C163.359 318.888 154.487 308.197 154.029 295.619L151.83 235.212L165.325 140.111C165.78 136.909 163.845 133.85 160.757 132.889L146.059 128.311C143.976 127.662 142.043 126.605 140.373 125.2C134.813 120.524 132.986 112.749 135.883 106.086L137.993 101.233C138.488 100.094 139.072 98.9971 139.74 97.9511L160.757 65.0443L176.626 44.5469C179.522 40.8056 182.927 37.4869 186.741 34.6868C193.893 29.4359 202.294 26.1479 211.111 25.1493L256.575 20Z" fill="#F9F5F2"/>
<path d="M151.83 235.212L165.325 140.111C165.78 136.909 163.845 133.85 160.757 132.889L146.059 128.311C143.976 127.662 142.043 126.605 140.373 125.2C134.813 120.524 132.986 112.749 135.883 106.086L137.993 101.233C138.488 100.094 139.072 98.9971 139.74 97.9511L160.757 65.0443L176.626 44.5469C179.522 40.8056 182.927 37.4869 186.741 34.6868C193.893 29.4359 202.294 26.1479 211.111 25.1493L256.575 20H330.148C336.582 20 342.954 21.2704 348.896 23.7383C353.579 25.6831 357.931 28.3446 361.796 31.6275L375.603 43.3563L391.981 61.8102C394.545 64.6992 396.787 67.858 398.669 71.2312L419.361 108.322C422.463 113.883 420.421 120.907 414.82 123.937C414.071 124.343 413.278 124.663 412.458 124.892L355.964 140.674M151.83 235.212L154.029 295.619C154.487 308.197 163.359 318.888 175.636 321.657L177.287 322.029C185.3 323.836 193.439 325.029 201.634 325.596L213.611 326.425C218.825 326.786 224.063 326.505 229.209 325.59L242.689 323.19C245.156 322.751 247.459 321.656 249.356 320.02C252.428 317.37 254.194 313.514 254.194 309.457V304.098C254.194 300.479 253.428 296.9 251.946 293.597L246.458 281.368M151.83 235.212C171.214 240.756 191.143 244.177 211.266 245.414L226.223 246.334H267.287H300.615L338.109 241.885L352.393 238.548L357.749 237.436M357.749 237.436C358.931 240.748 359.534 244.238 359.534 247.755V249.806V273.583V290.266V304.67V306.972C359.534 311.295 357.562 315.381 354.178 318.071C345.565 323.192 335.889 326.266 325.899 327.055L309.543 328.347C302.438 328.908 295.289 328.444 288.316 326.968L286.439 326.571C274.85 324.119 265.885 314.918 263.735 303.269C262.21 295.003 257.202 287.793 249.987 283.479L246.458 281.368M357.749 237.436C364.24 234.702 368.462 228.344 368.462 221.301V220.264C368.462 216.517 368.17 212.777 367.591 209.076L358.653 152.005C358.051 148.164 357.152 144.376 355.964 140.674M355.964 140.674C350.523 142.469 344.712 139.219 343.392 133.644L332.158 86.1762M246.458 281.368L232.174 273.583" stroke="#2A2F2D" stroke-width="8.54812" stroke-linecap="round"/>
<path d="M158.506 292.366C157.691 281.535 156.222 259.744 156.222 243.482C156.223 232.313 176.812 246.622 187.964 247.247L196.314 247.715L222.339 250.528H259.618L282.126 253.343C282.126 253.343 289.692 253.343 299.104 252.707C311.734 251.854 324.512 251.337 336.926 248.864C351.788 245.904 354.575 240.32 354.575 243.494V303.276C354.575 308.03 351.889 312.362 347.638 314.488C346.64 314.987 345.58 315.35 344.486 315.569L331.981 318.07C325.021 319.462 317.941 320.163 310.844 320.163H294.787H290.358C284.662 320.163 279.226 317.783 275.362 313.597C273.787 311.891 272.515 309.928 271.6 307.794L268.762 301.172C264.613 291.029 257.902 282.138 249.285 275.368L243.862 271.107C243.114 270.519 242.308 270.009 241.456 269.584L240.006 268.862C239.018 268.369 237.929 268.113 236.825 268.113H232.726C228.483 268.113 226.085 272.982 228.673 276.345C229.125 276.933 229.7 277.415 230.357 277.759L234.611 279.981C241.556 283.61 246.574 290.086 248.355 297.717L249.392 302.161C250.093 305.166 249.765 308.319 248.46 311.114C246.628 315.04 243.056 317.875 238.817 318.767L234.491 319.678C232.959 320 231.397 320.163 229.831 320.163H202.644L183.819 317.81C181.373 317.504 178.974 316.898 176.676 316.004L175.94 315.718C170.442 313.58 165.775 309.734 162.625 304.746C160.266 301.011 158.837 296.771 158.506 292.366Z" fill="#2A2F2D" stroke="#2A2F2D" stroke-width="9.49568" stroke-linecap="round"/>
<path d="M255.76 33.1639C231.513 93.9191 223.386 126.249 230.483 177.055C231.69 168.431 232.727 164.146 236.039 158.728C239.109 176.74 243.024 186.812 257.916 204.704C257.361 196.742 257.419 192.569 258.388 185.889C278.771 203.86 289.845 202.992 309.766 206.704C271.557 178.533 263.412 162.833 261.206 134.938C257.5 143.822 256.326 148.936 254.811 158.148C248.835 142.983 247.175 132.326 250.34 105.505C250.34 105.505 242.927 115.056 240.308 122.608C235.342 94.1217 245.071 68.8543 255.76 33.1639Z" fill="#2A2F2D"/>
</g>
<defs>
<clipPath id="clip0_3629_8429">
<rect width="534" height="357" rx="20" fill="white"/>
</clipPath>
</defs>
</svg>
