<svg width="546" height="757" viewBox="0 0 546 757" fill="none" xmlns="http://www.w3.org/2000/svg">
<path d="M122.438 30.5373C117.972 28.8598 111.404 26.1977 116.999 27.0052C125.008 28.1609 128.008 28.707 128.008 28.707L133.595 30.0729C135.514 30.5418 137.346 31.3083 139.027 32.3445L151.945 40.3068C153.472 41.2479 154.857 42.4012 156.059 43.7324L160.672 48.8421C162.52 50.8892 163.898 53.3158 164.71 55.9518L166.2 60.7936C166.813 62.787 167.093 64.8682 167.027 66.9528L166.515 83.1999L164.225 107.961L164.039 113.856C163.992 115.333 164.119 116.811 164.417 118.26L164.69 119.587C165.079 121.479 165.755 123.301 166.696 124.988L166.798 125.17C167.993 127.314 169.595 129.205 171.513 130.737L171.924 131.065C173.624 132.424 175.546 133.478 177.605 134.182L191.28 138.86C192.687 139.341 194.144 139.654 195.624 139.794L213.099 141.443C214.333 141.56 215.575 141.555 216.808 141.428L219.964 141.104C223.291 140.762 226.467 139.544 229.17 137.575L230.238 136.796C231.91 135.578 233.371 134.093 234.562 132.402L237.261 128.569C238.807 126.374 239.868 123.875 240.373 121.239L241.387 115.947C241.802 113.781 241.835 111.558 241.484 109.38L240.904 105.781C240.526 103.438 239.711 101.186 238.5 99.1448L234.603 92.5721L227.617 83.5174C226.802 82.461 226.101 81.3212 225.526 80.1171L215.956 60.0841C214.752 57.5639 214.121 54.8083 214.109 52.0154L214.078 44.9449C214.07 43.1626 214.314 41.3882 214.803 39.6744L217.341 30.7794C217.794 29.1907 218.453 27.6683 219.302 26.251L222.77 20.461C223.844 18.6666 225.209 17.063 226.809 15.7153L235.708 8.21726C236.428 7.61037 237.101 6.94932 237.738 6.25531C240.257 3.5104 246.804 -3.29931 244.998 2.14647C243.438 6.85166 243.596 12.0562 243.829 14.7402C243.935 15.9598 244.021 17.1807 243.982 18.4042L243.859 22.3101C243.781 24.7709 244.185 27.2232 245.047 29.5293L245.738 31.3775C246.564 33.585 247.795 35.6188 249.367 37.3741L257.415 46.356C258.233 47.2685 259.137 48.0994 260.116 48.8369L279.273 63.2786L289.216 71.3402C291.069 72.8424 292.621 74.6817 293.79 76.7609L299.485 86.8904C300.532 88.7514 301.255 90.7763 301.626 92.879L302.007 95.043C302.232 96.322 302.325 97.6209 302.284 98.919L302.272 99.2899C302.18 102.212 301.412 105.073 300.028 107.648L290.915 124.6L286.169 132.25C284.419 135.071 283.443 138.304 283.338 141.622L283.008 152.075C282.928 154.633 283.367 157.181 284.3 159.565L284.789 160.814C285.071 161.533 285.428 162.22 285.854 162.863C287.582 165.473 290.348 167.216 293.448 167.649L298.786 168.395C300.315 168.609 301.864 168.635 303.399 168.472L304.629 168.341C306.628 168.129 308.58 167.6 310.412 166.773L313.615 165.328C317.039 163.782 319.926 161.252 321.906 158.059L326.285 151L332.515 140.933C333.651 139.096 335.095 137.467 336.782 136.118L342.091 131.871C343.719 130.568 345.551 129.544 347.513 128.84L355.073 126.125C356.528 125.603 358.042 125.26 359.58 125.106L370.578 124.006C373.068 123.756 375.41 122.706 377.252 121.012L377.314 120.955C379.128 119.286 380.348 117.07 380.787 114.645C381.142 112.683 380.971 110.661 380.293 108.786L379.751 107.288C379.263 105.938 378.608 104.654 377.802 103.467L365.866 85.8929C365.026 84.6558 364.335 83.3235 363.809 81.9238L361.788 76.5491C360.593 73.3709 360.275 69.9294 360.869 66.5862L361.049 65.5717C361.54 62.8087 362.686 60.2035 364.391 57.9744C365.794 56.1392 366.752 54.0167 367.614 51.8736C368.557 49.5332 369.879 47.5554 370.635 52.1639C370.82 53.2965 372.364 63.154 372.742 64.2377C373.03 65.0636 373.225 65.6706 373.222 65.7908C373.207 66.2421 382.524 73.7599 382.524 73.7599L404.659 89.3581L416.28 97.9111C418.34 99.4265 420.07 101.344 421.367 103.547L427.798 114.469C428.874 116.297 429.635 118.292 430.049 120.372L430.855 124.422C431.343 126.873 431.34 129.396 430.846 131.846L429.475 138.657C428.907 141.475 427.705 144.128 425.958 146.411L420.029 154.165C419.458 154.911 418.834 155.613 418.159 156.265L405.168 168.84L399.168 176.1C397.607 177.989 396.428 180.164 395.696 182.503L394.577 186.083C393.832 188.465 393.566 190.971 393.794 193.456L394.046 196.194C394.146 197.29 394.36 198.372 394.684 199.424C395.558 202.264 397.209 204.803 399.451 206.754L399.553 206.843C400.781 207.911 402.16 208.791 403.647 209.453L404.195 209.697C405.96 210.483 407.836 210.995 409.757 211.213L412.37 211.509L417.546 211.382C419.452 211.335 421.34 211.001 423.147 210.389L426.521 209.246L435.622 204.933C436.698 204.423 437.724 203.813 438.686 203.109L446.261 197.57C448.123 196.208 449.721 194.517 450.975 192.579L455.214 186.028C455.704 185.271 456.139 184.479 456.517 183.659L461.888 171.984C461.888 171.984 471.514 153.775 470.239 162.314C470.224 162.411 470.209 162.508 470.195 162.603C469.501 167.165 468.237 174.82 468.557 179.424C468.619 180.318 468.835 181.196 469.195 182.017L471.443 187.136C472.388 189.287 473.725 191.243 475.387 192.905L483.596 201.114L495.325 211.869L504.326 222.835C505.422 224.17 506.33 225.649 507.024 227.23L508.018 229.494C508.533 230.665 508.913 231.891 509.151 233.148C509.485 234.904 509.538 236.702 509.31 238.475L508.744 242.874C508.468 245.012 507.615 247.034 506.276 248.724C505.55 249.64 504.692 250.444 503.73 251.11L497.739 255.255C496.876 255.852 496.064 256.519 495.312 257.251L484.069 268.187C483.328 268.909 482.646 269.69 482.032 270.523L476.126 278.538L466.515 296.295L459.501 311.425L453.85 328.748C453.535 329.711 453.299 330.698 453.143 331.7L452.488 335.903C452.241 337.483 452.196 339.088 452.354 340.68L452.493 342.085C452.747 344.641 453.648 347.09 455.114 349.199C456.18 350.734 457.523 352.058 459.073 353.102L460.577 354.115C461.291 354.596 462.051 355.006 462.844 355.341C464.351 355.976 465.963 356.328 467.598 356.38L474.166 356.587L476.13 356.649C477.493 356.692 478.854 356.536 480.172 356.187C481.875 355.735 483.477 354.968 484.895 353.924L490.985 349.442L491.201 349.239C494.085 346.539 495.993 342.96 496.63 339.061C496.806 337.981 496.883 336.887 496.859 335.794L496.727 329.63C496.703 328.512 496.58 327.398 496.359 326.302L494.952 319.316L493.712 309.54C493.466 307.607 493.521 305.648 493.874 303.732L494.68 299.361C494.999 297.627 495.56 295.946 496.345 294.368L498.089 290.86C498.641 289.749 499.302 288.696 500.06 287.715L505.734 280.375C505.734 280.375 513.596 270.238 511.919 275.603C511.545 276.798 510.769 282.975 510.577 284.212L510.028 287.734L509.416 294.022C509.328 294.93 509.305 295.844 509.349 296.757L509.499 299.897C509.557 301.108 509.732 302.31 510.02 303.488L510.477 305.358L512.775 312.203L515.11 317.748C515.734 319.231 516.545 320.628 517.523 321.906L521.362 326.922L525.238 331.559L529.96 336.829C530.696 337.651 531.504 338.407 532.372 339.088L540.884 345.765C541.534 346.275 542.125 346.855 542.645 347.496L543.629 348.707C544.674 349.994 545.221 351.615 545.169 353.273C545.12 354.822 544.551 356.309 543.553 357.495L537.343 364.876C536.591 365.77 535.758 366.593 534.854 367.333L517.631 381.437L508.789 389.262C507.789 390.146 506.699 390.922 505.537 391.577L485.273 402.992L473.492 409.844L448.811 427.126L443.442 431.298C442.556 431.986 441.733 432.752 440.983 433.587L429.083 446.822L423.659 454.409C423.068 455.235 422.576 456.128 422.193 457.068L421.413 458.984C420.541 461.123 420.601 463.529 421.579 465.622C422.119 466.779 422.919 467.795 423.916 468.591L426.863 470.944C427.809 471.7 428.826 472.364 429.9 472.925L430.878 473.437C433.404 474.758 436.196 475.491 439.046 475.581L441.749 475.666L445.612 475.256C447.4 475.067 449.151 474.623 450.814 473.939L451.19 473.784C452.659 473.179 454.045 472.392 455.317 471.441L457.018 470.169C457.696 469.662 458.33 469.099 458.912 468.485C461.049 466.233 462.434 463.373 462.875 460.3L463.487 456.034L464.301 450.134C464.624 447.794 465.383 445.536 466.538 443.475L467.782 441.256C468.273 440.379 468.834 439.543 469.458 438.755L473.757 433.331L480.529 425.869C480.529 425.869 487.846 417.069 485.652 422.87C485.406 423.519 485.17 424.083 484.943 424.573C483.99 426.64 481.396 429.995 480.832 432.2L480.532 434.89C480.267 437.274 480.457 439.687 481.093 442L481.806 444.59C482.191 445.99 482.737 447.341 483.431 448.617L487.139 455.426L489.736 462.372C490.167 463.526 490.485 464.719 490.684 465.935L491.352 470.006C491.55 471.214 491.63 472.438 491.592 473.662L491.388 480.117C491.344 481.499 491.149 482.873 490.806 484.212L489.602 488.915L486.822 496.09C486.486 496.956 486.087 497.796 485.628 498.603L482.951 503.312C482.007 504.973 480.816 506.481 479.42 507.785L463.544 522.616C462.754 523.354 462.029 524.158 461.377 525.02L460.979 525.546C459.464 527.546 457.567 529.225 455.397 530.484L440.245 539.282L433.572 543.586L419.753 551.278L412.579 555.566L404.342 561.628L399.382 564.828C398.248 565.559 397.242 566.472 396.404 567.529L395.694 568.425C394.928 569.392 394.406 570.53 394.174 571.742L394.054 572.369C393.969 572.812 393.961 573.266 394.029 573.712C394.225 574.995 395.039 576.1 396.206 576.669L396.452 576.789C397.02 577.066 397.641 577.219 398.273 577.239L405.853 577.478L410.946 576.988C412.255 576.862 413.547 576.599 414.801 576.205L422.056 573.926L430.723 570.136L433.624 568.438C435.099 567.574 436.45 566.515 437.64 565.289L443.265 559.493C444.547 558.172 445.61 556.654 446.412 554.996C447.037 553.705 447.498 552.34 447.785 550.935L448.225 548.774C448.436 547.741 448.774 546.739 449.233 545.791C450.191 543.813 451.647 542.117 453.458 540.872L454.73 539.998C455.805 539.259 456.953 538.633 458.171 538.165C460.893 537.118 465.396 535.532 462.418 537.724C461.964 538.058 457.226 542.716 456.89 543.168L456.8 543.289C456.74 543.37 456.706 543.467 456.703 543.568L456.508 549.728L456.915 553.83C457.15 556.207 457.834 558.518 458.929 560.64L459.408 561.567C460.191 563.084 460.765 564.701 461.115 566.373L462.311 572.098C462.618 573.566 462.749 575.064 462.701 576.563L462.583 580.312C462.52 582.31 462.141 584.286 461.459 586.166L460.459 588.921C459.977 590.248 459.349 591.516 458.586 592.703L457.574 594.275C456.553 595.863 455.299 597.289 453.855 598.505L449.064 602.542C447.521 603.842 445.781 604.886 443.908 605.636L426.874 612.456L416.728 615.297L409.92 618.099C409.026 618.467 408.162 618.903 407.334 619.403L401.072 623.189C399.958 623.863 399.104 624.896 398.653 626.118C397.341 629.668 399.755 633.495 403.524 633.841L409.925 634.427C410.701 634.498 411.483 634.484 412.257 634.385L423.671 632.922C424.708 632.789 425.732 632.57 426.734 632.268L436.011 629.466C436.944 629.185 437.855 628.831 438.733 628.409L444.331 625.72C446.174 624.834 447.861 623.655 449.327 622.229L450.935 620.665C452.861 618.792 454.103 616.266 456.056 614.421C456.624 613.885 457.285 613.489 458.018 613.439C459.887 613.312 461.459 615.488 462.282 616.913C462.73 617.69 463.019 618.542 463.257 619.406L463.966 621.984C464.748 624.826 464.854 627.812 464.277 630.702L464.256 630.809C463.669 633.747 462.393 636.504 460.532 638.853L458.127 641.887L447.912 653.855C446.722 655.249 445.741 656.808 445 658.484L444.598 659.394C442.789 663.485 442.575 668.104 443.999 672.345C444.362 673.424 444.826 674.466 445.386 675.458L447.401 679.024L450.23 684.983L452.042 690.057C452.677 691.834 452.972 693.714 452.912 695.601L452.887 696.394C452.823 698.439 452.237 700.433 451.186 702.189C450.148 703.921 448.691 705.365 446.948 706.385L446.538 706.625C445.177 707.422 443.69 707.98 442.141 708.277L436.387 709.379L431.132 710.22C429.924 710.413 428.749 710.77 427.638 711.281L426.774 711.678C425.424 712.3 424.239 713.231 423.315 714.396C422.857 714.974 422.468 715.605 422.156 716.274L419.929 721.051L418.234 725.53C417.902 726.41 417.504 727.263 417.044 728.084L414.005 733.506L411.094 737.578C409.887 739.268 408.409 740.747 406.72 741.956L395.38 750.076L390.834 752.689C388.432 754.069 385.756 754.905 382.995 755.137L371.558 756.097L362.175 755.801C360.733 755.756 359.3 755.545 357.905 755.174L348.622 752.702C347.239 752.334 345.903 751.81 344.638 751.14L331.536 744.202C330.66 743.738 329.823 743.207 329.03 742.612L321.848 737.218C319.916 735.768 318.28 733.96 317.028 731.893L309.731 719.845C309.169 718.918 308.528 718.04 307.816 717.222L302.646 711.286C301.955 710.493 301.199 709.759 300.387 709.091L294.746 704.46L289.794 701.279C288.177 700.24 286.41 699.454 284.556 698.947L282.029 698.257C280.599 697.867 279.127 697.646 277.644 697.599L272.341 697.432L262.294 697.115L241.642 698.269L232.572 698.886L219.914 699.244C218.294 699.29 216.675 699.127 215.096 698.76L199.504 695.134L189.391 692.141C188.165 691.779 186.98 691.293 185.852 690.691L177.658 686.318L170.928 682.118C169.829 681.432 168.803 680.635 167.867 679.74L157.204 669.539C156.467 668.834 155.788 668.071 155.174 667.256L149.822 660.155C149.822 660.155 142.643 648.64 146.045 652.36C147.575 654.032 148.811 655.329 149.708 656.251C150.819 657.392 152.103 658.341 153.491 659.119L159.603 662.545C160.392 662.988 161.212 663.373 162.056 663.698L167.885 665.942C169.112 666.414 170.384 666.758 171.683 666.966L174.14 667.36C175.861 667.636 177.612 667.673 179.344 667.47L181.2 667.252C182.252 667.128 183.272 666.814 184.211 666.325L184.686 666.078C186.108 665.338 187.241 664.143 187.905 662.684C188.299 661.82 188.517 660.886 188.546 659.937L188.591 658.525C188.69 655.4 187.756 652.33 185.935 649.789L184.785 648.185C183.895 646.943 182.858 645.814 181.696 644.822L165.329 630.844L156.295 625.042C155.419 624.479 154.498 623.99 153.542 623.579L141.258 618.301C139.828 617.686 138.326 617.25 136.789 617.003L128.598 615.689L116.997 614.519C116.044 614.423 115.1 614.255 114.173 614.015L107.816 612.376C106.338 611.995 104.911 611.436 103.567 610.712L97.9561 607.688C97.1139 607.235 96.3074 606.717 95.5435 606.142L91.4383 603.047C90.3592 602.233 89.3704 601.307 88.4889 600.282L84.592 595.754C83.5511 594.545 82.6675 593.209 81.9622 591.778L78.7 585.158C78.119 583.979 77.6625 582.742 77.3379 581.469L75.6445 574.824C75.0173 572.363 74.8922 569.801 75.2767 567.291L77.401 553.423C77.7052 551.437 78.3331 549.518 79.1768 547.694C80.3965 545.059 81.9834 541.305 81.7037 540.162C81.351 538.72 86.3316 548.211 88.4181 552.22C89.0173 553.372 89.7266 554.455 90.5451 555.462L96.0905 562.288L103.829 572.014L109.689 578.319C110.962 579.69 112.432 580.864 114.051 581.803L119.017 584.684L121.318 585.806C123.718 586.976 126.339 587.624 129.008 587.708L131.489 587.786L133.001 587.834C135.322 587.907 137.637 587.552 139.83 586.787L140.072 586.703L141.751 586.195C143.317 585.722 144.751 584.89 145.938 583.764C147.464 582.317 148.519 580.445 148.968 578.391L149.77 574.72C149.951 573.89 150.056 573.043 150.083 572.194C150.177 569.219 149.311 566.288 147.612 563.843C146.796 562.667 145.801 561.625 144.665 560.753L140.094 557.246C139.376 556.695 138.619 556.196 137.83 555.753L129.628 551.155L115.719 545.75L100.792 540.764L87.4001 534.923L74.065 527.279L63.6443 519.584C62.0835 518.432 60.7094 517.046 59.5701 515.476L56.1958 510.824C54.475 508.452 53.3291 505.713 52.8484 502.822L51.9463 497.397C51.628 495.483 51.6063 493.531 51.8817 491.61L53.3999 481.024L54.5571 471.178C54.7017 469.948 54.7251 468.706 54.6268 467.471L54.3562 464.069C54.157 461.565 53.4611 459.126 52.309 456.894L51.905 456.111C50.8203 454.01 49.3567 452.127 47.5355 450.618C45.3766 448.83 42.2693 446.35 39.4686 444.464C34.5449 441.148 52.8748 449.853 52.8748 449.853L66.7264 457.063L81.6111 463.402L89.5772 465.911L92.4377 466.598C94.7492 467.154 97.1878 466.716 99.1614 465.39C100.494 464.495 101.546 463.241 102.196 461.772L102.335 461.457C103.012 459.926 103.281 458.247 103.116 456.582L102.816 453.55C102.676 452.136 102.377 450.742 101.924 449.395L101.121 447.001C100.281 444.5 98.9271 442.202 97.1464 440.256L94.5811 437.451C93.5589 436.334 92.406 435.343 91.1474 434.501L84.1182 429.795C82.5262 428.73 80.7816 427.912 78.9439 427.371L66.2724 423.637L35.2421 419.046L31.4828 418.076C30.0044 417.695 28.5775 417.136 27.2335 416.412L23.4372 414.366C21.4013 413.269 19.5839 411.808 18.0753 410.055L15.5773 407.153C14.2458 405.606 13.1735 403.853 12.4021 401.963L10.5271 397.37C10.0653 396.238 9.71429 395.065 9.47891 393.866L8.01664 386.417C7.22721 382.396 8.46676 377.675 6.3763 374.151C5.95454 373.439 5.36257 372.719 4.54487 372.023C0.137773 368.272 19.8465 381.085 19.8465 381.085L27.7698 384.947L36.224 387.923L43.702 389.965L54.6962 392.117L59.7792 392.605C61.066 392.728 62.362 392.719 63.647 392.578L68.8428 392.008C70.4737 391.829 72.0712 391.421 73.5885 390.797L74.5755 390.391C75.1081 390.171 75.6149 389.894 76.0866 389.564C77.6193 388.491 78.7171 386.904 79.1812 385.092L79.2671 384.756C79.4936 383.872 79.5805 382.958 79.5249 382.047L79.4745 381.222C79.3447 379.097 78.733 377.03 77.6858 375.177L77.5353 374.91C76.7957 373.601 75.8678 372.408 74.7814 371.369L72.2076 368.907C70.7942 367.555 69.1795 366.43 67.4213 365.573L55.2184 359.625L47.4241 356.771C46.3263 356.369 45.2681 355.866 44.2632 355.269L32.9411 348.538L24.4776 342.044C23.5759 341.352 22.7384 340.58 21.9752 339.738L16.8055 334.032L10.8858 326.472C10.0016 325.343 9.24873 324.117 8.64169 322.818L5.60267 316.313C5.09871 315.234 4.69773 314.11 4.40512 312.956L1.75824 302.517C1.432 301.23 1.24218 299.913 1.19181 298.586L0.443571 278.883L0.339682 266.237C0.339682 266.237 0.581576 258.57 0.136188 256.749C-0.309201 254.929 2.99361 261.806 2.99361 261.806L5.85102 266.863L15.4564 281.163L16.7154 283.391C17.7732 285.263 19.1427 286.941 20.7648 288.352L22.4759 289.841C23.2865 290.547 24.1864 291.143 25.1523 291.614C26.1583 292.104 27.2266 292.454 28.3275 292.655L28.615 292.707C29.3161 292.835 30.0256 292.91 30.7379 292.932L33.6867 293.025L34.3146 293.045C35.8989 293.095 37.4833 292.946 39.0304 292.6L40.2453 292.329L43.6346 291.099C44.4251 290.812 45.1865 290.45 45.9084 290.019C47.5568 289.034 48.9708 287.701 50.0524 286.115L50.7585 285.079C51.9956 283.264 52.9071 281.247 53.452 279.119L53.7753 277.856L54.2452 273.858C54.3898 272.628 54.4131 271.386 54.3149 270.151L54.2992 269.954C54.1687 268.313 53.8245 266.696 53.2754 265.144L51.38 259.789C51.0412 258.831 50.6257 257.902 50.1376 257.011L46.5919 250.539L41.8248 242.262L27.8408 223.309L14.4303 202.116L8.45654 190.974C8.00744 190.136 7.62216 189.266 7.30392 188.37L2.29844 174.284C1.95222 173.31 1.68647 172.309 1.50393 171.291L0.417974 165.237C0.185106 163.939 0.0887032 162.62 0.130286 161.302L0.409248 152.459L1.4676 145.372C1.61184 144.406 1.83066 143.453 2.12209 142.521L4.6226 134.524C4.90031 133.636 5.24317 132.77 5.64838 131.932L8.26713 126.519L9.20034 124.518C10.3619 122.026 12.0529 119.817 14.1554 118.046L18.5091 114.378C19.3316 113.685 20.2117 113.063 21.1399 112.52L23.2047 111.311C24.3107 110.663 25.4796 110.13 26.6935 109.719L28.8175 109C30.2454 108.516 31.7259 108.205 33.2277 108.073L38.5303 107.608L43.3964 107.761C43.9175 107.778 44.021 108.508 43.5251 108.668L42.1253 109.091C40.3787 109.618 38.7919 110.574 37.5093 111.872C37.0817 112.304 36.6188 112.701 36.1254 113.056L36.0049 113.143C34.2095 114.437 32.7829 116.177 31.8662 118.191L31.6443 118.678L28.9335 124.914L27.2922 130.75C26.8776 132.224 26.6437 133.743 26.5954 135.274L26.4689 139.284L26.2868 145.058C26.247 146.318 26.3333 147.578 26.5443 148.821L27.0751 151.946L28.3686 158.759L29.747 162.865C30.0533 163.777 30.4289 164.665 30.8704 165.52L33.0504 169.743L35.4499 174.392C36.0599 175.573 36.7928 176.687 37.6365 177.715L41.6938 182.658L45.5084 187.038C46.1991 187.831 46.9547 188.565 47.7674 189.232L48.7923 190.074C49.5809 190.721 50.4206 191.304 51.3033 191.816L54.915 193.911L60.8291 197.71L70.2451 202.071L72.6417 202.938C74.6266 203.656 76.8006 203.655 78.7847 202.935C79.7815 202.573 80.7066 202.038 81.5176 201.355L82.8507 200.232C83.8965 199.35 84.8431 198.358 85.6738 197.272L88.1305 194.059C88.805 193.177 89.4004 192.238 89.91 191.251L90.7069 189.709C91.7974 187.598 92.4804 185.3 92.72 182.936L93.0873 179.313L93.3292 171.645L93.0403 164.863L91.8606 154.441L90.1786 144.003L87.6748 133.772C87.2674 132.107 87.0882 130.394 87.1422 128.681L87.5161 116.829L87.7249 110.211C87.7658 108.913 87.9404 107.622 88.2458 106.36L88.844 103.888C89.2928 102.033 90.0199 100.256 91.0006 98.6187L92.9693 95.3313C93.5005 94.4445 94.1034 93.6027 94.7722 92.8143L97.0138 90.1719C98.3227 88.6289 99.8707 87.306 101.599 86.2536L102.29 85.8329C103.841 84.8881 105.521 84.1717 107.277 83.7059L113.756 81.9871L122.396 79.0991C125.711 78.3173 128.751 76.65 131.192 74.2751L134.205 71.3444C137.227 68.514 139.215 64.7541 139.853 60.6633L140.129 58.889L140.317 52.9381C140.353 51.7976 140.25 50.6569 140.011 49.5412C139.669 47.9457 139.053 46.4217 138.19 45.0371L137.374 43.729C136.874 42.9268 136.314 42.1633 135.7 41.4449L132.258 37.4198L128.663 34.2428C126.837 32.6302 124.718 31.3937 122.438 30.5373Z" fill="#055FD2" stroke="#EF5A28" stroke-width="0.189105"/>
</svg>
