<svg width="299" height="263" viewBox="0 0 299 263" fill="none" xmlns="http://www.w3.org/2000/svg">
<mask id="path-1-inside-1_3619_7951" fill="white">
<path d="M208.585 1.04492C213.079 -0.203145 217.871 -0.330195 222.432 0.648438C227.984 1.84006 233.149 4.62798 237.162 8.64648L240.555 12.0439C244.55 16.0452 247.769 20.7538 250.046 25.9297L250.442 26.8301C252.126 30.6562 253.332 34.6751 254.033 38.7959L255.081 44.9502C256.038 50.5748 256.52 56.2701 256.52 61.9756V73.4697L254.87 94.2257C254.796 95.1531 254.952 96.0832 255.305 96.9441C259.79 107.889 262.265 119.871 262.265 132.432V146.716C262.265 147.863 262.613 148.98 263.233 149.945C270.292 160.942 274.329 173.697 274.329 187.297C274.329 228.704 236.904 262.27 190.738 262.271C187.228 262.271 183.769 262.074 180.372 261.697C179.924 261.648 179.472 261.648 179.024 261.697C175.608 262.075 172.136 262.271 168.619 262.271H125.531C121.735 262.271 117.991 262.045 114.312 261.605C113.829 261.548 113.341 261.548 112.858 261.606C109.204 262.043 105.476 262.271 101.688 262.271C55.5225 262.27 18.0977 228.704 18.0977 187.297C18.0977 172.704 22.7461 159.086 30.787 147.567C31.4887 146.562 31.8867 145.372 31.8867 144.146V132.432C31.8867 120.553 34.0986 109.191 38.1328 98.7346C38.4953 97.795 38.4356 96.7582 38.2539 95.7676L36.4824 73.4697V61.9756C36.4824 56.2701 36.9635 50.5748 37.9209 44.9502L38.9688 38.7959C39.6702 34.6751 40.8762 30.6563 42.5596 26.8301L42.9561 25.9297C45.2332 20.7539 48.4507 16.0451 52.4463 12.0439L55.8389 8.64648C59.8521 4.62776 65.0173 1.84005 70.5703 0.648438C75.131 -0.330195 79.9226 -0.203145 84.417 1.04492C87.8552 1.99974 91.0863 3.58425 93.9473 5.7168L97.0674 8.04199C101.053 11.0129 104.571 14.5652 107.502 18.5801L114.167 27.708C115.274 29.2245 116.213 30.8577 116.968 32.5771C117.163 33.0219 117.345 33.4695 117.513 33.9195C118.559 36.7172 121.14 38.8416 124.127 38.7975C124.594 38.7906 125.062 38.7871 125.531 38.7871H168.619C168.733 38.7871 168.847 38.7873 168.961 38.7877C171.915 38.7984 174.452 36.691 175.487 33.9242C175.656 33.4726 175.838 33.0235 176.034 32.5771C176.789 30.8577 177.728 29.2245 178.835 27.708L185.499 18.5801C188.431 14.5651 191.949 11.013 195.935 8.04199L199.054 5.7168C201.915 3.58418 205.147 1.99973 208.585 1.04492Z"/>
</mask>
<path d="M208.585 1.04492C213.079 -0.203145 217.871 -0.330195 222.432 0.648438C227.984 1.84006 233.149 4.62798 237.162 8.64648L240.555 12.0439C244.55 16.0452 247.769 20.7538 250.046 25.9297L250.442 26.8301C252.126 30.6562 253.332 34.6751 254.033 38.7959L255.081 44.9502C256.038 50.5748 256.52 56.2701 256.52 61.9756V73.4697L254.87 94.2257C254.796 95.1531 254.952 96.0832 255.305 96.9441C259.79 107.889 262.265 119.871 262.265 132.432V146.716C262.265 147.863 262.613 148.98 263.233 149.945C270.292 160.942 274.329 173.697 274.329 187.297C274.329 228.704 236.904 262.27 190.738 262.271C187.228 262.271 183.769 262.074 180.372 261.697C179.924 261.648 179.472 261.648 179.024 261.697C175.608 262.075 172.136 262.271 168.619 262.271H125.531C121.735 262.271 117.991 262.045 114.312 261.605C113.829 261.548 113.341 261.548 112.858 261.606C109.204 262.043 105.476 262.271 101.688 262.271C55.5225 262.27 18.0977 228.704 18.0977 187.297C18.0977 172.704 22.7461 159.086 30.787 147.567C31.4887 146.562 31.8867 145.372 31.8867 144.146V132.432C31.8867 120.553 34.0986 109.191 38.1328 98.7346C38.4953 97.795 38.4356 96.7582 38.2539 95.7676L36.4824 73.4697V61.9756C36.4824 56.2701 36.9635 50.5748 37.9209 44.9502L38.9688 38.7959C39.6702 34.6751 40.8762 30.6563 42.5596 26.8301L42.9561 25.9297C45.2332 20.7539 48.4507 16.0451 52.4463 12.0439L55.8389 8.64648C59.8521 4.62776 65.0173 1.84005 70.5703 0.648438C75.131 -0.330195 79.9226 -0.203145 84.417 1.04492C87.8552 1.99974 91.0863 3.58425 93.9473 5.7168L97.0674 8.04199C101.053 11.0129 104.571 14.5652 107.502 18.5801L114.167 27.708C115.274 29.2245 116.213 30.8577 116.968 32.5771C117.163 33.0219 117.345 33.4695 117.513 33.9195C118.559 36.7172 121.14 38.8416 124.127 38.7975C124.594 38.7906 125.062 38.7871 125.531 38.7871H168.619C168.733 38.7871 168.847 38.7873 168.961 38.7877C171.915 38.7984 174.452 36.691 175.487 33.9242C175.656 33.4726 175.838 33.0235 176.034 32.5771C176.789 30.8577 177.728 29.2245 178.835 27.708L185.499 18.5801C188.431 14.5651 191.949 11.013 195.935 8.04199L199.054 5.7168C201.915 3.58418 205.147 1.99973 208.585 1.04492Z" fill="#1CA6E5"/>
<path d="M208.585 1.04492L206.74 -5.59783L206.74 -5.59782L208.585 1.04492ZM222.432 0.648438L223.878 -6.09221L223.878 -6.09224L222.432 0.648438ZM237.162 8.64648L242.04 3.77511L242.04 3.7749L237.162 8.64648ZM240.555 12.0439L235.676 16.9153L235.676 16.9155L240.555 12.0439ZM250.046 25.9297L243.735 28.706L243.736 28.708L250.046 25.9297ZM250.442 26.8301L256.753 24.0538L256.752 24.0517L250.442 26.8301ZM254.033 38.7959L247.237 39.9528L247.237 39.9531L254.033 38.7959ZM255.081 44.9502L261.877 43.7933L261.877 43.793L255.081 44.9502ZM256.52 61.9756L263.414 61.9756L263.414 61.9756L256.52 61.9756ZM256.52 73.4697L263.392 74.0159L263.414 73.7432V73.4697H256.52ZM262.265 132.432L269.159 132.432L269.159 132.432L262.265 132.432ZM274.329 187.297L281.223 187.297L281.223 187.297L274.329 187.297ZM190.738 262.271L190.738 269.165L190.738 269.165L190.738 262.271ZM125.531 262.271L125.531 269.166H125.531V262.271ZM101.688 262.271L101.688 269.165H101.688V262.271ZM18.0977 187.297L11.2035 187.297V187.297H18.0977ZM31.8867 132.432L24.9926 132.432V132.432H31.8867ZM38.2539 95.7676L31.3814 96.3136L31.4093 96.6647L31.4729 97.0111L38.2539 95.7676ZM36.4824 73.4697H29.5883V73.7432L29.61 74.0157L36.4824 73.4697ZM36.4824 61.9756L29.5883 61.9756V61.9756H36.4824ZM37.9209 44.9502L31.1246 43.793L31.1245 43.7933L37.9209 44.9502ZM38.9688 38.7959L45.7651 39.9531L45.7651 39.9528L38.9688 38.7959ZM42.5596 26.8301L36.2501 24.0517L36.2492 24.0538L42.5596 26.8301ZM42.9561 25.9297L49.2655 28.708L49.2665 28.706L42.9561 25.9297ZM52.4463 12.0439L57.3246 16.9154L57.3247 16.9153L52.4463 12.0439ZM55.8389 8.64648L50.9606 3.77497L50.9605 3.77511L55.8389 8.64648ZM70.5703 0.648438L69.1239 -6.09224L69.1238 -6.09223L70.5703 0.648438ZM84.417 1.04492L86.2617 -5.5978L86.2616 -5.59783L84.417 1.04492ZM93.9473 5.7168L89.8271 11.2443L89.8277 11.2447L93.9473 5.7168ZM97.0674 8.04199L101.188 2.51449L101.187 2.51406L97.0674 8.04199ZM107.502 18.5801L101.934 22.6454L101.934 22.6456L107.502 18.5801ZM114.167 27.708L119.735 23.6427L119.735 23.6425L114.167 27.708ZM116.968 32.5771L123.281 29.8071L123.281 29.807L116.968 32.5771ZM125.531 38.7871L125.531 31.893L125.531 31.893L125.531 38.7871ZM176.034 32.5771L169.721 29.807L169.721 29.8071L176.034 32.5771ZM178.835 27.708L184.403 31.7733L184.403 31.7731L178.835 27.708ZM185.499 18.5801L179.931 14.5147L179.931 14.515L185.499 18.5801ZM195.935 8.04199L200.055 13.5695L200.055 13.5693L195.935 8.04199ZM199.054 5.7168L194.934 0.189287L194.933 0.189481L199.054 5.7168ZM175.487 33.9242L169.03 31.5084L175.487 33.9242ZM254.87 94.2257L247.998 93.6795L254.87 94.2257ZM255.305 96.9441L248.926 99.5585L255.305 96.9441ZM30.787 147.567L25.134 143.621L30.787 147.567ZM114.312 261.605L113.495 268.451L114.312 261.605ZM112.858 261.606L113.678 268.451L112.858 261.606ZM38.1328 98.7346L31.7008 96.253L38.1328 98.7346ZM263.233 149.945L257.431 153.669L257.431 153.669L263.233 149.945ZM180.372 261.697L179.612 268.549L180.372 261.697ZM179.024 261.697L178.266 254.845L179.024 261.697ZM208.585 1.04492L210.43 7.68767C213.836 6.74178 217.498 6.64081 220.985 7.38911L222.432 0.648438L223.878 -6.09224C218.244 -7.3012 212.323 -7.14807 206.74 -5.59783L208.585 1.04492ZM222.432 0.648438L220.985 7.38909C225.256 8.30561 229.224 10.4536 232.284 13.5181L237.162 8.64648L242.04 3.7749C237.074 -1.19769 230.713 -4.62549 223.878 -6.09221L222.432 0.648438ZM237.162 8.64648L232.284 13.5179L235.676 16.9153L240.555 12.0439L245.433 7.17257L242.04 3.77511L237.162 8.64648ZM240.555 12.0439L235.676 16.9155C239.069 20.3128 241.802 24.311 243.735 28.706L250.046 25.9297L256.356 23.1534C253.736 17.1966 250.032 11.7775 245.433 7.17243L240.555 12.0439ZM250.046 25.9297L243.736 28.708L244.133 29.6084L250.442 26.8301L256.752 24.0517L256.355 23.1513L250.046 25.9297ZM250.442 26.8301L244.132 29.6063C245.588 32.9147 246.63 36.3897 247.237 39.9528L254.033 38.7959L260.83 37.639C260.033 32.9605 258.664 28.3978 256.753 24.0538L250.442 26.8301ZM254.033 38.7959L247.237 39.9531L248.285 46.1074L255.081 44.9502L261.877 43.793L260.83 37.6387L254.033 38.7959ZM255.081 44.9502L248.285 46.107C249.177 51.3493 249.625 56.6577 249.625 61.9756L256.52 61.9756L263.414 61.9756C263.414 55.8826 262.9 49.8002 261.877 43.7933L255.081 44.9502ZM256.52 61.9756H249.625V73.4697H256.52H263.414V61.9756H256.52ZM256.52 73.4697L249.647 72.9236L247.998 93.6795L254.87 94.2257L261.742 94.7718L263.392 74.0159L256.52 73.4697ZM255.305 96.9441L248.926 99.5585C253.077 109.689 255.371 120.784 255.371 132.432L262.265 132.432L269.159 132.432C269.159 118.959 266.504 106.09 261.684 94.3298L255.305 96.9441ZM262.265 132.432H255.371V146.716H262.265H269.159V132.432H262.265ZM263.233 149.945L257.431 153.669C263.819 163.621 267.435 175.093 267.435 187.297L274.329 187.297L281.223 187.297C281.223 172.301 276.765 158.264 269.035 146.221L263.233 149.945ZM274.329 187.297H267.435C267.435 224.21 233.821 255.376 190.738 255.376L190.738 262.271L190.738 269.165C239.987 269.164 281.223 233.197 281.223 187.297H274.329ZM190.738 262.271V255.376C187.485 255.376 184.28 255.195 181.133 254.845L180.372 261.697L179.612 268.549C183.258 268.954 186.971 269.165 190.738 269.165V262.271ZM179.024 261.697L178.266 254.845C175.098 255.195 171.879 255.377 168.619 255.377V262.271V269.166C172.393 269.166 176.118 268.955 179.782 268.549L179.024 261.697ZM168.619 262.271V255.377H125.531V262.271V269.166H168.619V262.271ZM125.531 262.271L125.531 255.377C122.009 255.377 118.539 255.167 115.13 254.76L114.312 261.605L113.495 268.451C117.443 268.922 121.46 269.166 125.531 269.166L125.531 262.271ZM112.858 261.606L112.038 254.76C108.654 255.166 105.2 255.376 101.688 255.376V262.271V269.165C105.751 269.165 109.754 268.921 113.678 268.451L112.858 261.606ZM101.688 262.271L101.688 255.376C58.6054 255.376 24.9918 224.21 24.9918 187.297H18.0977H11.2035C11.2035 233.197 52.4395 269.164 101.688 269.165L101.688 262.271ZM18.0977 187.297L24.9918 187.297C24.9918 174.206 29.1538 161.951 36.4401 151.513L30.787 147.567L25.134 143.621C16.3385 156.221 11.2036 171.203 11.2035 187.297L18.0977 187.297ZM31.8867 144.146H38.7808V132.432H31.8867H24.9926V144.146H31.8867ZM31.8867 132.432L38.7808 132.432C38.7809 121.415 40.8312 110.893 44.5648 101.216L38.1328 98.7346L31.7008 96.253C27.366 107.488 24.9926 119.691 24.9926 132.432L31.8867 132.432ZM38.2539 95.7676L45.1264 95.2216L43.3549 72.9237L36.4824 73.4697L29.61 74.0157L31.3814 96.3136L38.2539 95.7676ZM36.4824 73.4697H43.3765V61.9756H36.4824H29.5883V73.4697H36.4824ZM36.4824 61.9756L43.3765 61.9756C43.3766 56.6576 43.8249 51.3493 44.7173 46.107L37.9209 44.9502L31.1245 43.7933C30.1021 49.8003 29.5883 55.8826 29.5883 61.9756L36.4824 61.9756ZM37.9209 44.9502L44.7172 46.1074L45.7651 39.9531L38.9688 38.7959L32.1724 37.6387L31.1246 43.793L37.9209 44.9502ZM38.9688 38.7959L45.7651 39.9528C46.3716 36.3897 47.4144 32.9148 48.87 29.6064L42.5596 26.8301L36.2492 24.0538C34.338 28.3978 32.9688 32.9605 32.1724 37.639L38.9688 38.7959ZM42.5596 26.8301L48.8691 29.6084L49.2655 28.708L42.9561 25.9297L36.6466 23.1513L36.2501 24.0517L42.5596 26.8301ZM42.9561 25.9297L49.2665 28.706C51.2002 24.3105 53.9324 20.3123 57.3246 16.9154L52.4463 12.0439L47.568 7.17246C42.969 11.7779 39.2661 17.1973 36.6457 23.1534L42.9561 25.9297ZM52.4463 12.0439L57.3247 16.9153L60.7172 13.5179L55.8389 8.64648L50.9605 3.77511L47.5679 7.17257L52.4463 12.0439ZM55.8389 8.64648L60.7171 13.518C63.7772 10.4537 67.7454 8.3057 72.0168 7.38911L70.5703 0.648438L69.1238 -6.09223C62.2893 -4.62561 55.9269 -1.19818 50.9606 3.77497L55.8389 8.64648ZM70.5703 0.648438L72.0167 7.38911C75.504 6.64081 79.1661 6.74178 82.5723 7.68767L84.417 1.04492L86.2616 -5.59783C80.6791 -7.14807 74.7579 -7.3012 69.1239 -6.09224L70.5703 0.648438ZM84.417 1.04492L82.5722 7.68765C85.1886 8.41423 87.6483 9.62026 89.8271 11.2443L93.9473 5.7168L98.0674 0.189286C94.5242 -2.45175 90.5218 -4.41474 86.2617 -5.5978L84.417 1.04492ZM93.9473 5.7168L89.8277 11.2447L92.9478 13.5699L97.0674 8.04199L101.187 2.51406L98.0668 0.188864L93.9473 5.7168ZM97.0674 8.04199L92.9472 13.5695C96.38 16.1282 99.4093 19.1876 101.934 22.6454L107.502 18.5801L113.07 14.5147C109.732 9.94273 105.726 5.89764 101.188 2.51449L97.0674 8.04199ZM107.502 18.5801L101.934 22.6456L108.599 31.7735L114.167 27.708L119.735 23.6425L113.07 14.5146L107.502 18.5801ZM114.167 27.708L108.599 31.7733C109.411 32.8854 110.1 34.0842 110.655 35.3473L116.968 32.5771L123.281 29.807C122.326 27.6312 121.137 25.5636 119.735 23.6427L114.167 27.708ZM116.968 32.5771L110.655 35.3472C110.798 35.6749 110.932 36.0042 111.056 36.3349L117.513 33.9195L123.97 31.5041C123.757 30.9349 123.527 30.369 123.281 29.8071L116.968 32.5771ZM124.127 38.7975L124.229 45.6909C124.662 45.6844 125.096 45.6812 125.531 45.6812L125.531 38.7871L125.531 31.893C125.028 31.893 124.526 31.8967 124.025 31.9041L124.127 38.7975ZM125.531 38.7871V45.6812H168.619V38.7871V31.893H125.531V38.7871ZM168.619 38.7871V45.6812C168.725 45.6812 168.83 45.6814 168.936 45.6818L168.961 38.7877L168.986 31.8937C168.864 31.8932 168.741 31.893 168.619 31.893V38.7871ZM175.487 33.9242L181.944 36.3399C182.068 36.0077 182.203 35.6767 182.347 35.3472L176.034 32.5771L169.721 29.8071C169.474 30.3703 169.244 30.9376 169.03 31.5084L175.487 33.9242ZM176.034 32.5771L182.347 35.3473C182.902 34.0842 183.591 32.8854 184.403 31.7733L178.835 27.708L173.267 23.6427C171.864 25.5636 170.676 27.6312 169.721 29.807L176.034 32.5771ZM178.835 27.708L184.403 31.7731L191.067 22.6452L185.499 18.5801L179.931 14.515L173.267 23.6429L178.835 27.708ZM185.499 18.5801L191.067 22.6454C193.591 19.1881 196.621 16.1287 200.055 13.5695L195.935 8.04199L191.814 2.51448C187.276 5.89728 183.27 9.94213 179.931 14.5147L185.499 18.5801ZM195.935 8.04199L200.055 13.5693L203.174 11.2441L199.054 5.7168L194.933 0.189481L191.814 2.51468L195.935 8.04199ZM199.054 5.7168L203.174 11.2443C205.352 9.6205 207.813 8.41437 210.43 7.68767L208.585 1.04492L206.74 -5.59782C202.481 -4.4149 198.477 -2.45213 194.934 0.189287L199.054 5.7168ZM168.961 38.7877L168.936 45.6818C175.326 45.7049 180.106 41.2536 181.944 36.3399L175.487 33.9242L169.03 31.5084C168.993 31.6064 168.943 31.6994 168.884 31.7792C168.826 31.8592 168.772 31.9085 168.74 31.9329C168.71 31.9565 168.713 31.9465 168.761 31.9296C168.813 31.9109 168.893 31.8933 168.986 31.8937L168.961 38.7877ZM254.87 94.2257L247.998 93.6795C247.834 95.7372 248.183 97.7473 248.926 99.5585L255.305 96.9441L261.684 94.3298C261.721 94.4192 261.759 94.5691 261.742 94.7718L254.87 94.2257ZM30.787 147.567L36.4401 151.513C37.8969 149.426 38.7808 146.873 38.7808 144.146H31.8867H24.9926C24.9926 143.871 25.0804 143.697 25.134 143.621L30.787 147.567ZM117.513 33.9195L111.056 36.3349C112.911 41.2958 117.769 45.7864 124.229 45.6909L124.127 38.7975L124.025 31.9041C124.119 31.9027 124.2 31.9198 124.252 31.9381C124.299 31.9546 124.302 31.9642 124.269 31.9394C124.236 31.9138 124.18 31.8628 124.119 31.7806C124.059 31.6987 124.007 31.6036 123.97 31.5041L117.513 33.9195ZM114.312 261.605L115.13 254.76C114.102 254.637 113.064 254.637 112.038 254.76L112.858 261.606L113.678 268.451C113.617 268.458 113.556 268.458 113.495 268.451L114.312 261.605ZM38.1328 98.7346L44.5648 101.216C45.6158 98.492 45.2928 95.9304 45.035 94.5241L38.2539 95.7676L31.4729 97.0111C31.515 97.2407 31.5025 97.268 31.5041 97.1645C31.5059 97.0463 31.5267 96.7041 31.7008 96.253L38.1328 98.7346ZM262.265 146.716H255.371C255.371 149.267 256.145 151.666 257.431 153.669L263.233 149.945L269.035 146.221C269.082 146.294 269.159 146.458 269.159 146.716H262.265ZM180.372 261.697L181.133 254.845C180.181 254.74 179.219 254.739 178.266 254.845L179.024 261.697L179.782 268.549C179.725 268.556 179.668 268.556 179.612 268.549L180.372 261.697Z" fill="#2A2F2D" mask="url(#path-1-inside-1_3619_7951)"/>
<path d="M240.246 161.622L240.765 160.901C241.85 159.394 243.449 158.323 245.255 157.888C247.932 157.242 250.766 158.069 252.666 160.064C254.033 161.499 254.796 163.405 254.796 165.387V169.099C254.796 171.868 253.48 174.471 251.251 176.113L250.925 176.354C249.639 177.3 248.085 177.811 246.489 177.811C243.966 177.811 241.614 176.54 240.232 174.429L239.935 173.977C239.235 172.908 238.786 171.695 238.62 170.428L238.417 168.871C238.083 166.31 238.737 163.718 240.246 161.622Z" fill="#0968A5"/>
<path d="M229.188 194.889L231.419 194.203C232.656 193.822 233.992 193.936 235.147 194.519C236.833 195.371 237.897 197.099 237.897 198.988V201.125C237.897 203.135 237.183 205.08 235.883 206.612L235.669 206.864C234.581 208.146 233.123 209.062 231.495 209.485L230.337 209.786C229.136 210.098 227.862 209.956 226.759 209.388C225.379 208.676 224.404 207.368 224.116 205.842L223.75 203.898C223.44 202.253 223.66 200.551 224.38 199.04C225.331 197.044 227.075 195.538 229.188 194.889Z" fill="#0968A5"/>
<path d="M209.847 219.338L211.786 218.971C212.074 218.917 212.371 218.919 212.659 218.977C214.354 219.323 215.05 221.366 213.918 222.674L213.115 223.603C212.548 224.257 211.726 224.633 210.86 224.633H210.344C208.869 224.633 207.673 223.438 207.673 221.963C207.673 220.679 208.586 219.577 209.847 219.338Z" fill="#0968A5"/>
<path d="M198.368 191.917L199.313 190.896C200.064 190.084 201.185 189.726 202.268 189.951C204.22 190.357 205.309 192.452 204.52 194.284L204.357 194.662C203.805 195.941 202.546 196.77 201.154 196.77H200.488C198.892 196.77 197.599 195.476 197.599 193.88C197.599 193.152 197.873 192.451 198.368 191.917Z" fill="#0968A5"/>
<path d="M221.742 169.679L222.201 169.46C223.661 168.765 225.385 168.93 226.687 169.889C227.81 170.716 228.472 172.027 228.472 173.421V174.791C228.472 176.654 227.46 178.37 225.829 179.271L225.747 179.316C224.213 180.164 222.346 180.138 220.837 179.248C219.325 178.358 218.398 176.734 218.398 174.98V174.932C218.398 173.997 218.658 173.081 219.148 172.286L219.537 171.656C220.066 170.799 220.832 170.112 221.742 169.679Z" fill="#0968A5"/>
<path d="M53.2188 194.037L54.0042 193.145C54.3866 192.71 54.9375 192.461 55.5164 192.461C56.6288 192.461 57.5306 193.363 57.5306 194.475V194.773C57.5306 195.92 56.69 196.894 55.5554 197.061L54.9131 197.155C54.1404 197.269 53.3772 196.896 52.9927 196.216C52.5965 195.516 52.6872 194.641 53.2188 194.037Z" fill="#0968A5"/>
<path d="M37.8627 187.673L38.6381 186.106C39.0628 185.248 39.9373 184.705 40.8946 184.705C41.9152 184.705 42.8348 185.321 43.2231 186.265L44.4675 189.29C44.9208 190.392 44.8738 191.636 44.3385 192.701L44.0272 193.32C43.2173 194.931 41.2866 195.623 39.6376 194.894C38.6307 194.449 37.9033 193.542 37.6878 192.463L37.4124 191.083C37.1817 189.928 37.3401 188.729 37.8627 187.673Z" fill="#0968A5"/>
<path d="M240.246 161.622L240.765 160.901C241.85 159.394 243.449 158.323 245.255 157.888C247.932 157.242 250.766 158.069 252.666 160.064C254.033 161.499 254.796 163.405 254.796 165.387V169.099C254.796 171.868 253.48 174.471 251.251 176.113L250.925 176.354C249.639 177.3 248.085 177.811 246.489 177.811C243.966 177.811 241.614 176.54 240.232 174.429L239.935 173.977C239.235 172.908 238.786 171.695 238.62 170.428L238.417 168.871C238.083 166.31 238.737 163.718 240.246 161.622Z" stroke="#0869A6" stroke-width="5.17059" stroke-linecap="round"/>
<path d="M229.188 194.889L231.419 194.203C232.656 193.822 233.992 193.936 235.147 194.519C236.833 195.371 237.897 197.099 237.897 198.988V201.125C237.897 203.135 237.183 205.08 235.883 206.612L235.669 206.864C234.581 208.146 233.123 209.062 231.495 209.485L230.337 209.786C229.136 210.098 227.862 209.956 226.759 209.388C225.379 208.676 224.404 207.368 224.116 205.842L223.75 203.898C223.44 202.253 223.66 200.551 224.38 199.04C225.331 197.044 227.075 195.538 229.188 194.889Z" stroke="#0869A6" stroke-width="5.17059" stroke-linecap="round"/>
<path d="M209.847 219.338L211.786 218.971C212.074 218.917 212.371 218.919 212.659 218.977C214.354 219.323 215.05 221.366 213.918 222.674L213.115 223.603C212.548 224.257 211.726 224.633 210.86 224.633H210.344C208.869 224.633 207.673 223.438 207.673 221.963C207.673 220.679 208.586 219.577 209.847 219.338Z" stroke="#0869A6" stroke-width="5.17059" stroke-linecap="round"/>
<path d="M198.368 191.917L199.313 190.896C200.064 190.084 201.185 189.726 202.268 189.951C204.22 190.357 205.309 192.452 204.52 194.284L204.357 194.662C203.805 195.941 202.546 196.77 201.154 196.77H200.488C198.892 196.77 197.599 195.476 197.599 193.88C197.599 193.152 197.873 192.451 198.368 191.917Z" stroke="#0869A6" stroke-width="5.17059" stroke-linecap="round"/>
<path d="M221.742 169.679L222.201 169.46C223.661 168.765 225.385 168.93 226.687 169.889C227.81 170.716 228.472 172.027 228.472 173.421V174.791C228.472 176.654 227.46 178.37 225.829 179.271L225.747 179.316C224.213 180.164 222.346 180.138 220.837 179.248C219.325 178.358 218.398 176.734 218.398 174.98V174.932C218.398 173.997 218.658 173.081 219.148 172.286L219.537 171.656C220.066 170.799 220.832 170.112 221.742 169.679Z" stroke="#0869A6" stroke-width="5.17059" stroke-linecap="round"/>
<path d="M53.2188 194.037L54.0042 193.145C54.3866 192.71 54.9375 192.461 55.5164 192.461C56.6288 192.461 57.5306 193.363 57.5306 194.475V194.773C57.5306 195.92 56.69 196.894 55.5554 197.061L54.9131 197.155C54.1404 197.269 53.3772 196.896 52.9927 196.216C52.5965 195.516 52.6872 194.641 53.2188 194.037Z" stroke="#0869A6" stroke-width="5.17059" stroke-linecap="round"/>
<path d="M37.8627 187.673L38.6381 186.106C39.0628 185.248 39.9373 184.705 40.8946 184.705C41.9152 184.705 42.8348 185.321 43.2231 186.265L44.4675 189.29C44.9208 190.392 44.8738 191.636 44.3385 192.701L44.0272 193.32C43.2173 194.931 41.2866 195.623 39.6376 194.894C38.6307 194.449 37.9033 193.542 37.6878 192.463L37.4124 191.083C37.1817 189.928 37.3401 188.729 37.8627 187.673Z" stroke="#0869A6" stroke-width="5.17059" stroke-linecap="round"/>
<path d="M40.9173 93.1419C42.1164 92.3907 43.3369 91.6707 44.4331 91.1061C48.8542 88.8289 51.5907 88.0853 56.298 86.4811C70.3423 81.695 78.8235 80.8492 93.5409 78.9655C109.646 76.9042 118.836 77.3207 135.068 76.9421C149.995 76.5939 158.403 75.9419 173.3 76.9421C186.635 77.8374 194.095 78.9006 207.247 81.278C216.963 83.0343 229.11 86.2128 239.047 89.0218C250.974 92.3933 263.915 101.182 261.628 113.364C260.521 119.259 253.573 121.397 247.87 119.54C246.462 119.082 245.071 118.644 243.831 118.278C225.797 112.959 215.048 112.341 196.371 110.184C179.201 108.202 169.483 107.822 152.207 107.294C137.026 106.829 128.49 106.661 113.316 107.294C99.2534 107.88 91.3274 108.213 77.3913 110.184C66.1023 111.781 59.5666 112.171 48.7176 115.676C45.3661 116.759 41.2364 118.454 37.834 119.93C34.7553 121.266 31.2497 119.032 31.2497 115.676C31.2497 111.274 30.0989 108.652 31.2497 104.403C32.5795 99.4926 36.6064 95.8429 40.9173 93.1419Z" fill="#F7F6F2" stroke="#050A06" stroke-width="5.17059" stroke-linecap="round"/>
<path d="M116.099 57.1489L119.475 56.7997C120.719 56.671 121.927 57.2663 122.582 58.3313C123.315 59.5216 123.205 61.0468 122.311 62.1206L118.093 67.1814C117.164 68.2964 115.787 68.9412 114.336 68.9412C111.635 68.9412 109.445 66.7515 109.445 64.0505V63.7109C109.445 62.4525 109.899 61.2363 110.723 60.2854L111.257 59.6689C112.492 58.244 114.224 57.343 116.099 57.1489Z" fill="#064E7E"/>
<path d="M143.169 52.3378L146.125 51.7043C147.762 51.3535 149.456 51.9637 150.494 53.2777C151.954 55.1278 151.694 57.8009 149.905 59.335L146.665 62.1119C145.632 62.9969 144.317 63.4833 142.958 63.4833H142.276C140.038 63.4833 138.092 61.9466 137.574 59.7692C137.226 58.3077 137.577 56.7675 138.524 55.6015L139.2 54.7703C140.207 53.5307 141.608 52.6724 143.169 52.3378Z" fill="#064E7E"/>
<path d="M176.188 52.8549H178.543C180.17 52.8549 181.619 53.883 182.156 55.4185C182.793 57.2372 181.978 59.2457 180.255 60.1074L175.045 62.7125C174.074 63.1977 172.932 63.1977 171.962 62.7125C170.794 62.1286 170.056 60.935 170.056 59.6294V58.5927C170.056 57.3045 170.541 56.0636 171.415 55.117L171.682 54.8276C172.843 53.5701 174.476 52.8549 176.188 52.8549Z" fill="#064E7E"/>
<path d="M116.099 57.1489L119.475 56.7997C120.719 56.671 121.927 57.2663 122.582 58.3313C123.315 59.5216 123.205 61.0468 122.311 62.1206L118.093 67.1814C117.164 68.2964 115.787 68.9412 114.336 68.9412C111.635 68.9412 109.445 66.7515 109.445 64.0505V63.7109C109.445 62.4525 109.899 61.2363 110.723 60.2854L111.257 59.6689C112.492 58.244 114.224 57.343 116.099 57.1489Z" stroke="#064E7E" stroke-width="5.17059" stroke-linecap="round"/>
<path d="M143.169 52.3378L146.125 51.7043C147.762 51.3535 149.456 51.9637 150.494 53.2777C151.954 55.1278 151.694 57.8009 149.905 59.335L146.665 62.1119C145.632 62.9969 144.317 63.4833 142.958 63.4833H142.276C140.038 63.4833 138.092 61.9466 137.574 59.7692C137.226 58.3077 137.577 56.7675 138.524 55.6015L139.2 54.7703C140.207 53.5307 141.608 52.6724 143.169 52.3378Z" stroke="#064E7E" stroke-width="5.17059" stroke-linecap="round"/>
<path d="M176.188 52.8549H178.543C180.17 52.8549 181.619 53.883 182.156 55.4185C182.793 57.2372 181.978 59.2457 180.255 60.1074L175.045 62.7125C174.074 63.1977 172.932 63.1977 171.962 62.7125C170.794 62.1286 170.056 60.935 170.056 59.6294V58.5927C170.056 57.3045 170.541 56.0636 171.415 55.117L171.682 54.8276C172.843 53.5701 174.476 52.8549 176.188 52.8549Z" stroke="#064E7E" stroke-width="5.17059" stroke-linecap="round"/>
<ellipse cx="134.437" cy="200.568" rx="56.5892" ry="46.0259" fill="#F9F5F2"/>
<path d="M123.472 153.185L126.209 152.768C129.664 152.241 133.169 152.112 136.653 152.384L150.254 153.447C152.985 153.66 155.643 154.436 158.06 155.727L158.905 156.178C160.275 156.909 161.514 157.861 162.573 158.996L164.318 160.865C165.226 161.839 165.801 163.076 165.96 164.397C166.137 165.875 165.783 167.368 164.961 168.608L164.259 169.669C163.958 170.123 163.62 170.551 163.248 170.948L160.853 173.505C159.087 175.39 157.181 177.14 155.152 178.74L152.268 181.013L147.611 183.784C145.632 184.961 143.519 185.896 141.318 186.568L138.44 187.447C134.482 188.656 130.241 188.573 126.332 187.211C125.065 186.77 123.847 186.199 122.697 185.507L119.823 183.778C117.442 182.346 115.187 180.715 113.081 178.902L111.539 177.575C110.665 176.823 109.849 176.004 109.1 175.127L107.636 173.415C106.498 172.085 105.658 170.526 105.173 168.844L105.148 168.756C104.982 168.18 104.862 167.593 104.791 166.998L104.574 165.194C104.447 164.135 104.644 163.063 105.139 162.118C105.628 161.186 106.384 160.422 107.311 159.924L113.893 156.384C116.88 154.778 120.12 153.696 123.472 153.185Z" fill="#2A2F2D" stroke="black" stroke-width="0.853932"/>
<path d="M131.564 187.577C133.68 198.64 143.881 206.266 155.09 205.164L170.344 203.663" stroke="#2A2F2D" stroke-width="5.17059" stroke-linecap="round"/>
<path d="M134.814 197.91C121.383 200.38 116.873 213.535 100.423 204.234" stroke="#2A2F2D" stroke-width="5.17059" stroke-linecap="round"/>
<path d="M94.1484 93.3584C102.343 93.3584 109.565 97.7928 114.649 104.572C119.734 111.351 122.802 120.598 122.802 130.701C122.802 140.805 119.734 150.051 114.649 156.83C109.565 163.61 102.343 168.044 94.1484 168.044C85.9538 168.044 78.7322 163.61 73.6475 156.83C68.5633 150.051 65.4951 140.805 65.4951 130.701C65.4951 120.598 68.5633 111.351 73.6475 104.572C78.7322 97.7928 85.9538 93.3584 94.1484 93.3584Z" fill="#F7F6F2" stroke="#080808" stroke-width="5.17059"/>
<path d="M176.879 93.3584C185.074 93.3584 192.295 97.7928 197.38 104.572C202.464 111.351 205.532 120.598 205.532 130.701C205.532 140.805 202.464 150.051 197.38 156.83C192.295 163.61 185.074 168.044 176.879 168.044C168.684 168.044 161.463 163.61 156.378 156.83C151.294 150.051 148.226 140.805 148.226 130.701C148.226 120.598 151.294 111.351 156.378 104.572C161.463 97.7928 168.684 93.3584 176.879 93.3584Z" fill="#F7F6F2" stroke="#080808" stroke-width="5.17059"/>
<path d="M225.899 73.4187C226.287 70.8545 224.883 68.3599 222.457 67.4442C217.383 65.5295 208.604 62.4674 201.941 61.4729C195.397 60.4961 186.278 60.8249 180.943 61.151C178.371 61.3083 176.304 63.263 175.917 65.8114C175.402 69.2083 178.032 72.2669 181.468 72.2669L198.8 72.2669C199.359 72.2669 199.915 72.3484 200.45 72.5089L218.697 77.9794C221.985 78.9651 225.384 76.8125 225.899 73.4187Z" fill="#2A2F2D"/>
<path d="M102.54 65.465C101.965 62.9361 99.7459 61.1274 97.1526 61.162C91.7304 61.2343 82.4392 61.5931 75.8739 63.1029C69.4255 64.5857 61.0578 68.225 56.2117 70.4784C53.8745 71.5652 52.6651 74.1402 53.2369 76.6535C53.9991 80.0036 57.5648 81.8893 60.7628 80.6334L76.896 74.2979C77.4161 74.0937 77.9633 73.9664 78.5202 73.9201L97.5037 72.3425C100.924 72.0582 103.302 68.812 102.54 65.465Z" fill="#2A2F2D"/>
<ellipse cx="172.992" cy="131.129" rx="22.4059" ry="24.1294" fill="#080808"/>
<ellipse cx="91.9918" cy="131.129" rx="22.4059" ry="24.1294" fill="#080808"/>
<ellipse cx="97.3418" cy="127.054" rx="7.75588" ry="10.0539" fill="white"/>
<ellipse cx="175.342" cy="127.054" rx="7.75588" ry="10.0539" fill="white"/>
<path d="M256.232 182.119L295.586 173.789" stroke="#050A06" stroke-width="5.17059" stroke-linecap="round"/>
<path d="M250.745 192.602L290.158 200.651" stroke="#050A06" stroke-width="5.17059" stroke-linecap="round"/>
<path d="M41.9414 184.705L2.58748 176.375" stroke="#050A06" stroke-width="5.17059" stroke-linecap="round"/>
<path d="M2.58594 204.812L41.9399 196.482" stroke="#050A06" stroke-width="5.17059" stroke-linecap="round"/>
<path d="M202.512 28.205L206.603 21.9379C207.38 20.7481 208.527 19.8473 209.867 19.3748C211.987 18.6272 214.344 19.0347 216.09 20.451L221.659 24.9683C224.56 27.3218 226.715 30.4677 227.862 34.0233L234.308 54.0127C234.637 55.0326 234.703 56.1189 234.5 57.1712C233.747 61.0777 229.635 63.3441 225.93 61.8946L211.486 56.2441C201.982 52.526 197.123 41.9559 200.487 32.3212C200.993 30.8723 201.673 29.4901 202.512 28.205Z" fill="#0860A0" stroke="#0A62A2" stroke-width="3.87794" stroke-linecap="round"/>
<path d="M87.0682 25.9066L82.9769 19.6395C82.2002 18.4497 81.0531 17.5489 79.7131 17.0764C77.5928 16.3288 75.2364 16.7364 73.4903 18.1527L67.9213 22.67C65.0199 25.0235 62.8649 28.1693 61.7183 31.7249L55.2724 51.7143C54.9435 52.7342 54.8774 53.8206 55.0802 54.8728C55.8332 58.7794 59.9451 61.0457 63.6501 59.5963L78.0937 53.9457C87.5976 50.2277 92.4576 39.6576 89.093 30.0228C88.5871 28.5739 87.9072 27.1918 87.0682 25.9066Z" fill="#0860A0" stroke="#0A62A2" stroke-width="3.87794" stroke-linecap="round"/>
<path d="M72.985 46.341L81.845 43.1083C85.2293 41.8735 88.3697 45.4338 86.7221 48.6375C86.3676 49.327 85.8183 49.8972 85.1426 50.2773L81.5825 52.2798L73.4411 51.0078C72.7715 50.9031 72.1763 50.5226 71.8003 49.9586C70.9304 48.6537 71.5117 46.8786 72.985 46.341Z" fill="#001D32"/>
<path d="M81.5825 52.2798L73.4411 51.0078C72.7715 50.9031 72.1763 50.5226 71.8003 49.9586C70.9304 48.6537 71.5117 46.8786 72.985 46.341L81.845 43.1083C85.2293 41.8735 88.3697 45.4338 86.7221 48.6375C86.3676 49.327 85.8183 49.8972 85.1426 50.2773L81.5825 52.2798ZM81.5825 52.2798L61.4746 61.472" stroke="#001D32" stroke-width="3.87794" stroke-linecap="round"/>
<path d="M76.123 14.937C79.0353 14.937 81.7971 16.2306 83.6615 18.4678L85.4473 20.6108C86.1235 21.4223 86.7165 22.2997 87.2173 23.2297L89.0218 26.581C89.9902 28.3794 90.6336 30.3346 90.9225 32.3566C91.3878 35.6136 90.918 38.9358 89.5678 41.9362L86.4642 48.8331" stroke="#001D32" stroke-width="3.87794" stroke-linecap="round"/>
<path d="M199.504 44.782L198.494 41.0779L210.759 42.5796C211.893 42.7185 212.887 43.4046 213.419 44.4159L214.535 46.5361C215.001 47.4205 214.528 48.5086 213.564 48.7716C212.123 49.1644 212.001 51.1603 213.383 51.7257L215.442 52.568L221.208 55.6913C221.919 56.0764 222.41 56.7709 222.536 57.5697C222.839 59.4862 221.01 61.0456 219.165 60.4433L210.53 57.6237C209.599 57.3198 208.731 56.8508 207.966 56.2391L205.992 54.66C204.262 53.2759 202.787 51.6011 201.631 49.7106C200.694 48.1762 199.978 46.5169 199.504 44.782Z" fill="#001D32"/>
<path d="M210.846 17.5229L210.727 17.574C208.165 18.672 205.914 20.3852 204.172 22.5618C203.643 23.2232 203.164 23.9234 202.74 24.6564L201.693 26.4648C200.713 28.1572 199.946 29.9641 199.409 31.8444C198.802 33.9681 198.494 36.166 198.494 38.3747V41.0779M198.494 41.0779L199.504 44.782C199.978 46.5169 200.694 48.1762 201.631 49.7106C202.787 51.6011 204.262 53.2759 205.992 54.66L207.966 56.2391C208.731 56.8508 209.599 57.3198 210.53 57.6237L219.165 60.4433C221.01 61.0456 222.839 59.4862 222.536 57.5697C222.41 56.7709 221.919 56.0764 221.208 55.6913L215.442 52.568L213.383 51.7257C212.001 51.1603 212.123 49.1644 213.564 48.7716C214.528 48.5086 215.001 47.4205 214.535 46.5361L213.419 44.4159C212.887 43.4047 211.893 42.7185 210.759 42.5796L198.494 41.0779Z" stroke="#001D32" stroke-width="3.87794" stroke-linecap="round"/>
</svg>
