<svg width="389" height="364" viewBox="0 0 389 364" fill="none" xmlns="http://www.w3.org/2000/svg">
<rect x="6" y="6" width="377" height="352" fill="#003FA4" stroke="black" stroke-width="12"/>
<path d="M195.12 43.1875C269.089 43.1875 328.374 107.21 328.374 185.32C328.374 263.43 269.089 327.453 195.12 327.453C121.152 327.453 61.8672 263.43 61.8672 185.32C61.8672 107.21 121.152 43.1878 195.12 43.1875Z" fill="#FCC900" stroke="black" stroke-width="12"/>
<rect x="169.67" y="115.594" width="12.415" height="74.375" rx="6.20748" fill="#120000"/>
<rect x="210.639" y="111.609" width="12.415" height="70.3906" rx="6.20748" fill="black"/>
<path d="M121.445 164.734C121.445 170.445 121.011 186.603 121.444 191.096C123.32 210.555 124.728 211.244 127.375 223.86C129.595 234.441 132.87 238.468 136.253 243.381C138.999 247.367 145.157 254.276 150.882 260.601C159.306 269.91 169.716 274.702 179.856 276.382C195.664 279.001 210.614 276.422 220.389 273.519C233.066 269.753 242.265 264.017 247.097 260.402C256.472 253.39 261.441 243.989 266.354 223.519C268.863 213.068 267.822 195.429 267.804 185.915C267.247 175.25 266.224 172.983 265.316 170.879C264.877 169.855 264.482 168.92 263.191 167.258" stroke="#120000" stroke-width="12" stroke-linecap="round"/>
<ellipse cx="107.596" cy="45.2031" rx="9.93197" ry="10.625" fill="#FFF5F2"/>
<ellipse cx="76.5577" cy="86.375" rx="8.69048" ry="9.29688" fill="#FFF5F2"/>
<ellipse cx="75.3167" cy="277.625" rx="9.93197" ry="10.625" fill="#FFF5F2"/>
<ellipse cx="36.8304" cy="182" rx="9.93197" ry="10.625" fill="#FFF5F2"/>
<ellipse cx="50.4874" cy="142.156" rx="8.69048" ry="9.29688" fill="#FFF5F2"/>
<ellipse cx="349.067" cy="45.8672" rx="9.31122" ry="9.96094" fill="#FFF5F2"/>
<ellipse cx="337.893" cy="87.0391" rx="9.31122" ry="9.96094" fill="#FFF5F2"/>
<ellipse cx="287.612" cy="41.2188" rx="9.93197" ry="10.625" fill="#FFF5F2"/>
<ellipse cx="57.3144" cy="47.1953" rx="10.5527" ry="11.2891" fill="#FFF5F2"/>
<ellipse cx="337.273" cy="143.484" rx="8.69048" ry="9.29688" fill="#FFF5F2"/>
<ellipse cx="357.135" cy="332.078" rx="9.93197" ry="10.625" fill="#FFF5F2"/>
<ellipse cx="313.684" cy="277.625" rx="9.93197" ry="10.625" fill="#FFF5F2"/>
<ellipse cx="247.885" cy="332.078" rx="9.93197" ry="10.625" fill="#FFF5F2"/>
<ellipse cx="57.9359" cy="328.094" rx="9.93197" ry="10.625" fill="#FFF5F2"/>
<ellipse cx="175.877" cy="30.5938" rx="9.93197" ry="10.625" fill="#FFF5F2"/>
<ellipse cx="241.676" cy="34.5781" rx="9.93197" ry="10.625" fill="#FFF5F2"/>
<ellipse cx="40.555" cy="95.6719" rx="9.93197" ry="10.625" fill="#FFF5F2"/>
<ellipse cx="49.2445" cy="235.125" rx="9.93197" ry="10.625" fill="#FFF5F2"/>
<ellipse cx="40.555" cy="290.906" rx="9.93197" ry="10.625" fill="#FFF5F2"/>
<ellipse cx="107.596" cy="317.469" rx="9.93197" ry="10.625" fill="#FFF5F2"/>
<ellipse cx="169.67" cy="340.047" rx="9.93197" ry="10.625" fill="#FFF5F2"/>
<ellipse cx="358.377" cy="196.609" rx="9.93197" ry="10.625" fill="#FFF5F2"/>
<ellipse cx="349.688" cy="245.75" rx="9.93197" ry="10.625" fill="#FFF5F2"/>
<ellipse cx="307.477" cy="318.797" rx="9.93197" ry="10.625" fill="#FFF5F2"/>
<ellipse cx="355.895" cy="288.25" rx="9.93197" ry="10.625" fill="#FFF5F2"/>
</svg>
