<svg width="1894" height="219" viewBox="0 0 1894 219" fill="none" xmlns="http://www.w3.org/2000/svg">
<g clip-path="url(#clip0_3627_8287)">
<rect width="1894" height="219" transform="matrix(-1 0 0 1 1894 0)" fill="white"/>
<rect width="227.014" height="225.598" transform="matrix(-0.721243 -0.692682 -0.692682 0.721243 29 113.248)" fill="white"/>
<rect width="208.126" height="220.657" transform="matrix(-0.721243 -0.692682 -0.692682 0.721243 78 96.1663)" fill="#A3F606"/>
<rect width="227.014" height="225.598" transform="matrix(-0.721243 -0.692682 -0.692682 0.721243 150 105.248)" fill="white"/>
<rect width="208.126" height="220.657" transform="matrix(-0.721243 -0.692682 -0.692682 0.721243 211 100.166)" fill="#A3F606"/>
<rect width="227.014" height="225.598" transform="matrix(-0.721243 -0.692682 -0.692682 0.721243 283 109.248)" fill="white"/>
<rect width="208.126" height="220.657" transform="matrix(-0.721243 -0.692682 -0.692682 0.721243 342 105.166)" fill="#A3F606"/>
<rect width="227.014" height="225.598" transform="matrix(-0.721243 -0.692682 -0.692682 0.721243 414 114.248)" fill="white"/>
<rect width="208.126" height="220.657" transform="matrix(-0.721243 -0.692682 -0.692682 0.721243 475 109.166)" fill="#A3F606"/>
<rect width="227.014" height="225.598" transform="matrix(-0.721243 -0.692682 -0.692682 0.721243 547 118.248)" fill="white"/>
<rect width="208.126" height="220.657" transform="matrix(-0.721243 -0.692682 -0.692682 0.721243 596 101.166)" fill="#A3F606"/>
<rect width="227.014" height="225.598" transform="matrix(-0.721243 -0.692682 -0.692682 0.721243 668 110.248)" fill="white"/>
<rect width="208.126" height="220.657" transform="matrix(-0.721243 -0.692682 -0.692682 0.721243 729 105.166)" fill="#A3F606"/>
<rect width="227.014" height="225.598" transform="matrix(-0.721243 -0.692682 -0.692682 0.721243 801 114.248)" fill="white"/>
<rect width="208.126" height="220.657" transform="matrix(-0.721243 -0.692682 -0.692682 0.721243 872 98.1663)" fill="#A3F606"/>
<rect width="227.014" height="225.598" transform="matrix(-0.721243 -0.692682 -0.692682 0.721243 944 107.248)" fill="white"/>
<rect width="208.126" height="220.657" transform="matrix(-0.721243 -0.692682 -0.692682 0.721243 1005 102.166)" fill="#A3F606"/>
<rect width="227.014" height="225.598" transform="matrix(-0.721243 -0.692682 -0.692682 0.721243 1077 111.248)" fill="white"/>
<rect width="208.126" height="220.657" transform="matrix(-0.721243 -0.692682 -0.692682 0.721243 1126 94.1663)" fill="#A3F606"/>
<rect width="227.014" height="225.598" transform="matrix(-0.721243 -0.692682 -0.692682 0.721243 1198 103.248)" fill="white"/>
<rect width="208.126" height="220.657" transform="matrix(-0.721243 -0.692682 -0.692682 0.721243 1259 98.1663)" fill="#A3F606"/>
<rect width="227.014" height="225.598" transform="matrix(-0.721243 -0.692682 -0.692682 0.721243 1331 107.248)" fill="white"/>
<rect width="208.126" height="220.657" transform="matrix(-0.721243 -0.692682 -0.692682 0.721243 1390 103.166)" fill="#A3F606"/>
<rect width="227.014" height="225.598" transform="matrix(-0.721243 -0.692682 -0.692682 0.721243 1462 112.248)" fill="white"/>
<rect width="208.126" height="220.657" transform="matrix(-0.721243 -0.692682 -0.692682 0.721243 1523 107.166)" fill="#A3F606"/>
<rect width="227.014" height="225.598" transform="matrix(-0.721243 -0.692682 -0.692682 0.721243 1595 116.248)" fill="white"/>
<rect width="208.126" height="220.657" transform="matrix(-0.721243 -0.692682 -0.692682 0.721243 1644 99.1663)" fill="#A3F606"/>
<rect width="227.014" height="225.598" transform="matrix(-0.721243 -0.692682 -0.692682 0.721243 1716 108.248)" fill="white"/>
<rect width="208.126" height="220.657" transform="matrix(-0.721243 -0.692682 -0.692682 0.721243 1777 103.166)" fill="#A3F606"/>
<rect width="227.014" height="225.598" transform="matrix(-0.721243 -0.692682 -0.692682 0.721243 1849 112.248)" fill="white"/>
<rect width="208.126" height="220.657" transform="matrix(-0.721243 -0.692682 -0.692682 0.721243 1898 95.165)" fill="#A3F606"/>
<rect width="227.014" height="225.598" transform="matrix(-0.721243 -0.692682 -0.692682 0.721243 1970 104.248)" fill="white"/>
<rect width="208.126" height="220.657" transform="matrix(-0.721243 -0.692682 -0.692682 0.721243 2029 95.165)" fill="#A3F606"/>
<rect width="138.079" height="137.218" transform="matrix(-0.721243 -0.692682 -0.692682 0.721243 2005 106.645)" fill="white"/>
</g>
<defs>
<clipPath id="clip0_3627_8287">
<rect width="1894" height="219" fill="white" transform="matrix(-1 0 0 1 1894 0)"/>
</clipPath>
</defs>
</svg>
