<svg width="1893" height="219" viewBox="0 0 1893 219" fill="none" xmlns="http://www.w3.org/2000/svg">
<g clip-path="url(#clip0_3278_3827)">
<rect width="1894" height="219" fill="white"/>
<rect x="1865" y="113.248" width="227.014" height="225.598" transform="rotate(-43.8428 1865 113.248)" fill="white"/>
<rect x="1816" y="96.166" width="208.126" height="220.657" transform="rotate(-43.8428 1816 96.166)" fill="#055FD2"/>
<rect x="1744" y="105.248" width="227.014" height="225.598" transform="rotate(-43.8428 1744 105.248)" fill="white"/>
<rect x="1683" y="100.166" width="208.126" height="220.657" transform="rotate(-43.8428 1683 100.166)" fill="#055FD2"/>
<rect x="1611" y="109.248" width="227.014" height="225.598" transform="rotate(-43.8428 1611 109.248)" fill="white"/>
<rect x="1552" y="105.166" width="208.126" height="220.657" transform="rotate(-43.8428 1552 105.166)" fill="#055FD2"/>
<rect x="1480" y="114.248" width="227.014" height="225.598" transform="rotate(-43.8428 1480 114.248)" fill="white"/>
<rect x="1419" y="109.166" width="208.126" height="220.657" transform="rotate(-43.8428 1419 109.166)" fill="#055FD2"/>
<rect x="1347" y="118.248" width="227.014" height="225.598" transform="rotate(-43.8428 1347 118.248)" fill="white"/>
<rect x="1298" y="101.166" width="208.126" height="220.657" transform="rotate(-43.8428 1298 101.166)" fill="#055FD2"/>
<rect x="1226" y="110.248" width="227.014" height="225.598" transform="rotate(-43.8428 1226 110.248)" fill="white"/>
<rect x="1165" y="105.166" width="208.126" height="220.657" transform="rotate(-43.8428 1165 105.166)" fill="#055FD2"/>
<rect x="1093" y="114.248" width="227.014" height="225.598" transform="rotate(-43.8428 1093 114.248)" fill="white"/>
<rect x="1022" y="98.166" width="208.126" height="220.657" transform="rotate(-43.8428 1022 98.166)" fill="#055FD2"/>
<rect x="950" y="107.248" width="227.014" height="225.598" transform="rotate(-43.8428 950 107.248)" fill="white"/>
<rect x="889" y="102.166" width="208.126" height="220.657" transform="rotate(-43.8428 889 102.166)" fill="#055FD2"/>
<rect x="817" y="111.248" width="227.014" height="225.598" transform="rotate(-43.8428 817 111.248)" fill="white"/>
<rect x="768" y="94.166" width="208.126" height="220.657" transform="rotate(-43.8428 768 94.166)" fill="#055FD2"/>
<rect x="696" y="103.248" width="227.014" height="225.598" transform="rotate(-43.8428 696 103.248)" fill="white"/>
<rect x="635" y="98.166" width="208.126" height="220.657" transform="rotate(-43.8428 635 98.166)" fill="#055FD2"/>
<rect x="563" y="107.248" width="227.014" height="225.598" transform="rotate(-43.8428 563 107.248)" fill="white"/>
<rect x="504" y="103.166" width="208.126" height="220.657" transform="rotate(-43.8428 504 103.166)" fill="#055FD2"/>
<rect x="432" y="112.248" width="227.014" height="225.598" transform="rotate(-43.8428 432 112.248)" fill="white"/>
<rect x="371" y="107.166" width="208.126" height="220.657" transform="rotate(-43.8428 371 107.166)" fill="#055FD2"/>
<rect x="299" y="116.248" width="227.014" height="225.598" transform="rotate(-43.8428 299 116.248)" fill="white"/>
<rect x="250" y="99.166" width="208.126" height="220.657" transform="rotate(-43.8428 250 99.166)" fill="#055FD2"/>
<rect x="178" y="108.248" width="227.014" height="225.598" transform="rotate(-43.8428 178 108.248)" fill="white"/>
<rect x="117" y="103.166" width="208.126" height="220.657" transform="rotate(-43.8428 117 103.166)" fill="#055FD2"/>
<rect x="45" y="112.248" width="227.014" height="225.598" transform="rotate(-43.8428 45 112.248)" fill="white"/>
<rect x="-4" y="95.165" width="208.126" height="220.657" transform="rotate(-43.8428 -4 95.165)" fill="#055FD2"/>
<rect x="-76" y="104.248" width="227.014" height="225.598" transform="rotate(-43.8428 -76 104.248)" fill="white"/>
<rect x="-135" y="95.165" width="208.126" height="220.657" transform="rotate(-43.8428 -135 95.165)" fill="#055FD2"/>
<rect x="-111" y="106.646" width="138.079" height="137.218" transform="rotate(-43.8428 -111 106.646)" fill="white"/>
</g>
<defs>
<clipPath id="clip0_3278_3827">
<rect width="1894" height="219" fill="white"/>
</clipPath>
</defs>
</svg>
