<svg width="534" height="357" viewBox="0 0 534 357" fill="none" xmlns="http://www.w3.org/2000/svg">
<g clip-path="url(#clip0_3619_7724)">
<rect width="534" height="357" rx="20" fill="white"/>
<rect width="324.838" height="334.957" transform="matrix(0.457417 -0.889253 0.415312 0.909679 507.719 167.303)" fill="white"/>
<rect width="297.812" height="327.621" transform="matrix(0.457417 -0.889253 0.415312 0.909679 454.701 158.678)" fill="#055FD2"/>
<rect width="324.838" height="334.957" transform="matrix(0.457417 -0.889253 0.415312 0.909679 389.881 174.246)" fill="white"/>
<rect width="297.812" height="327.621" transform="matrix(0.457417 -0.889253 0.415312 0.909679 335.074 163.728)" fill="#05D2BD"/>
<rect width="324.838" height="334.957" transform="matrix(0.457417 -0.889253 0.415312 0.909679 270.254 179.297)" fill="white"/>
<rect width="297.812" height="327.621" transform="matrix(0.457417 -0.889253 0.415312 0.909679 226.338 146.728)" fill="#05D2BD"/>
<rect width="324.838" height="334.957" transform="matrix(0.457417 -0.889253 0.415312 0.909679 161.516 162.294)" fill="white"/>
<rect width="297.812" height="327.621" transform="matrix(0.457417 -0.889253 0.415312 0.909679 106.711 151.781)" fill="#05D2BD"/>
<rect width="324.838" height="334.957" transform="matrix(0.457417 -0.889253 0.415312 0.909679 41.8867 167.35)" fill="white"/>
<rect width="297.812" height="327.621" transform="matrix(0.457417 -0.889253 0.415312 0.909679 -21.8164 136.24)" fill="#05D2BD"/>
<rect width="324.838" height="334.957" transform="matrix(0.457417 -0.889253 0.415312 0.909679 -86.6387 151.81)" fill="white"/>
<rect width="297.812" height="327.621" transform="matrix(0.457417 -0.889253 0.415312 0.909679 -141.445 141.298)" fill="#05D2BE"/>
<rect width="324.838" height="334.957" transform="matrix(0.457417 -0.889253 0.415312 0.909679 -206.266 156.862)" fill="white"/>
<rect width="297.812" height="327.621" transform="matrix(0.457417 -0.889253 0.415312 0.909679 -250.18 124.293)" fill="#05D2BD"/>
<path d="M42.4557 154.269C44.9832 152.685 47.5559 151.168 49.8663 149.978C59.1854 145.178 64.9536 143.61 74.8758 140.229C104.479 130.141 122.356 128.358 153.378 124.387C187.325 120.042 206.696 120.92 240.911 120.122C272.373 119.388 290.096 118.014 321.497 120.122C349.604 122.009 365.33 124.25 393.051 129.262C413.53 132.964 439.134 139.663 460.08 145.584C485.222 152.691 512.498 171.216 507.678 196.893C505.345 209.319 490.699 213.826 478.678 209.912C475.709 208.946 472.779 208.022 470.164 207.251C432.151 196.04 409.496 194.737 370.126 190.191C333.935 186.012 313.45 185.212 277.035 184.098C245.037 183.12 227.046 182.764 195.06 184.098C165.419 185.334 148.712 186.037 119.337 190.191C95.5416 193.556 81.7654 194.378 58.8975 201.768C51.833 204.05 43.1284 207.622 35.9567 210.734C29.4673 213.549 22.0781 208.841 22.0781 201.768C22.0781 192.488 19.6524 186.962 22.0781 178.005C24.881 167.655 33.3689 159.962 42.4557 154.269Z" fill="#F7F6F2" stroke="#050A06" stroke-width="10.8987" stroke-linecap="round"/>
<path d="M260.426 123.526C253.274 141.446 250.877 150.983 252.97 165.969C253.327 163.425 253.632 162.161 254.609 160.563C255.515 165.876 256.67 168.847 261.062 174.124C260.899 171.776 260.916 170.545 261.202 168.574C267.214 173.875 270.48 173.619 276.356 174.714C265.086 166.405 262.684 161.774 262.033 153.546C260.94 156.166 260.593 157.675 260.147 160.392C258.384 155.919 257.894 152.775 258.828 144.864C258.828 144.864 256.641 147.681 255.869 149.909C254.404 141.506 257.273 134.053 260.426 123.526Z" fill="#2A2F2D" stroke="#2A2F2D" stroke-width="2"/>
</g>
<defs>
<clipPath id="clip0_3619_7724">
<rect width="534" height="357" rx="20" fill="white"/>
</clipPath>
</defs>
</svg>
