<svg width="534" height="357" viewBox="0 0 534 357" fill="none" xmlns="http://www.w3.org/2000/svg">
<g clip-path="url(#clip0_3619_7838)">
<rect width="534" height="357" rx="20" fill="white"/>
<rect width="324.838" height="334.957" transform="matrix(0.457417 -0.889253 0.415312 0.909679 507.719 167.303)" fill="white"/>
<rect width="297.812" height="327.621" transform="matrix(0.457417 -0.889253 0.415312 0.909679 454.701 158.678)" fill="#055FD2"/>
<rect width="324.838" height="334.957" transform="matrix(0.457417 -0.889253 0.415312 0.909679 389.881 174.246)" fill="white"/>
<rect width="297.812" height="327.621" transform="matrix(0.457417 -0.889253 0.415312 0.909679 335.074 163.728)" fill="#1C9E61"/>
<rect width="324.838" height="334.957" transform="matrix(0.457417 -0.889253 0.415312 0.909679 270.254 179.297)" fill="white"/>
<rect width="297.812" height="327.621" transform="matrix(0.457417 -0.889253 0.415312 0.909679 226.338 146.728)" fill="#1C9E61"/>
<rect width="324.838" height="334.957" transform="matrix(0.457417 -0.889253 0.415312 0.909679 161.516 162.294)" fill="white"/>
<rect width="297.812" height="327.621" transform="matrix(0.457417 -0.889253 0.415312 0.909679 106.711 151.781)" fill="#1C9E61"/>
<rect width="324.838" height="334.957" transform="matrix(0.457417 -0.889253 0.415312 0.909679 41.8867 167.35)" fill="white"/>
<rect width="297.812" height="327.621" transform="matrix(0.457417 -0.889253 0.415312 0.909679 -21.8164 136.24)" fill="#1C9E61"/>
<rect width="324.838" height="334.957" transform="matrix(0.457417 -0.889253 0.415312 0.909679 -86.6387 151.81)" fill="white"/>
<rect width="297.812" height="327.621" transform="matrix(0.457417 -0.889253 0.415312 0.909679 -141.445 141.298)" fill="#1C9E61"/>
<rect width="324.838" height="334.957" transform="matrix(0.457417 -0.889253 0.415312 0.909679 -206.266 156.862)" fill="white"/>
<rect width="297.812" height="327.621" transform="matrix(0.457417 -0.889253 0.415312 0.909679 -250.18 124.293)" fill="#1C9E61"/>
<path d="M366.037 67.3489L364.801 68.1355C359.229 71.6835 354.49 76.394 350.909 81.9443L346.815 88.288C345.889 89.723 344.835 91.0718 343.668 92.318L342.14 93.9481C338.726 97.5908 334.179 99.9688 329.24 100.694L323.013 101.608C317.242 102.455 311.583 99.4812 309.008 94.2474L303.579 84.5599C300.248 78.6159 295.339 73.7078 289.394 70.3775C285.065 67.9521 280.292 66.4229 275.359 65.881L269.738 65.2634C265.25 64.7702 260.708 65.1939 256.389 66.5086C248.845 68.8048 242.359 73.7006 238.083 80.3265L231.963 89.8099L221.811 106.269C219.1 110.665 214.714 113.765 209.665 114.853C206.234 115.592 203.076 117.27 200.542 119.698L198.107 122.03C196.524 123.546 195.34 125.43 194.659 127.514L193.75 130.298C192.841 133.079 190.524 135.168 187.664 135.784C187.135 135.899 186.618 136.065 186.121 136.281L181.038 138.488C177.711 139.933 175.238 142.832 174.336 146.345C173.561 149.364 171.618 151.952 168.935 153.538L166.664 154.881L160.497 157.811C156.38 159.766 152.939 162.902 150.611 166.821L149.808 168.172C147.642 171.818 144.291 174.609 140.314 176.08C137.459 177.136 134.908 178.879 132.888 181.156L126.196 188.698L124.445 190.502C119.048 196.062 112.551 200.435 105.369 203.341C101.23 205.016 97.3068 207.183 93.6848 209.795L92.4449 210.689C89.4398 212.856 86.631 215.282 84.0507 217.941L80.4582 221.642C77.5147 224.675 74.0463 227.15 70.221 228.946C67.7165 230.123 65.3604 231.592 63.2019 233.323L61.0123 235.079C56.3868 238.789 52.3895 243.22 49.1745 248.202L48.3706 249.575C44.6482 255.933 42.8517 263.236 43.1991 270.595C43.298 272.689 43.5696 274.771 44.0113 276.82L44.7377 280.19C45.6892 284.604 47.5963 288.755 50.3249 292.352C52.8151 295.635 55.9367 298.387 59.506 300.445L62.6739 302.272C69.7837 306.373 77.8095 308.621 86.0148 308.812L87.4066 308.844C91.6857 308.944 95.9616 308.538 100.146 307.636L108.726 305.787C116.223 304.171 124.003 304.44 131.37 306.572C138.736 308.703 146.517 308.973 154.013 307.357L167.569 304.435C171.006 303.694 174.541 303.512 178.037 303.896L181.978 304.329C187.262 304.909 192.577 303.565 196.95 300.544L204.461 295.353C208.098 292.84 212.959 293.033 216.386 295.825C217.742 296.93 219.366 297.658 221.093 297.934L226.117 298.737C230.989 299.516 235.979 299.034 240.61 297.336L269.133 286.879C270.389 286.418 271.494 285.618 272.325 284.569L278.867 276.304C280.065 274.791 282.483 275.353 282.889 277.24C283.155 278.472 284.37 279.256 285.602 278.991L291.879 277.638L313.52 272.973C317.593 272.095 321.385 270.219 324.555 267.515L334.146 259.333C336.174 257.604 339.049 257.281 341.409 258.517C342.436 259.054 343.587 259.309 344.744 259.254L355.424 258.75C359.922 258.538 364.365 257.665 368.609 256.161L381.591 251.559C384.177 250.643 386.525 249.159 388.463 247.216L390.444 245.23C394.335 241.33 400.149 240.067 405.307 242.003C407.826 242.948 410.563 243.15 413.193 242.583L417.097 241.741C422.028 240.678 426.574 238.286 430.242 234.823L445.289 220.618C448.551 217.539 451.511 214.156 454.128 210.513L455.114 209.14C460.485 201.666 464.145 193.101 465.836 184.054L467.75 173.81C468.018 172.381 467.997 170.913 467.691 169.491L467.552 168.848C466.468 163.817 461.807 160.382 456.681 160.834C454.269 161.046 451.86 160.394 449.884 158.994L442.435 153.715L442.193 153.51C435.929 148.204 431.594 140.976 429.864 132.951L427.948 124.062C427.119 120.213 425.709 116.511 423.769 113.084L420.863 107.952C420.399 107.133 419.786 106.407 419.056 105.812L418.261 105.164C416.979 104.119 415.292 103.714 413.676 104.063C410.012 104.853 406.664 101.787 407.129 98.0674L408.257 89.0417L409.099 78.4335C409.398 74.6561 408.307 70.8995 406.029 67.8708C403.91 65.0518 400.894 63.0381 397.478 62.161L395.384 61.6235C393.452 61.1275 391.461 60.9002 389.467 60.9483L386.851 61.0113C379.465 61.1893 372.268 63.3806 366.037 67.3489Z" fill="#F3F5E8" stroke="black" stroke-width="15.8255"/>
<path d="M429.664 150.798C420.068 158.196 408.941 163.36 397.097 165.913L388.015 167.871C378.886 169.839 370.414 174.116 363.411 180.294L357.089 185.87L327.283 216.578L323.916 219.733" stroke="black" stroke-width="7.91273"/>
<path d="M235.417 248.527L230.088 249.309C218.149 251.061 206.86 255.851 197.303 263.218C189.598 269.102 180.326 272.578 170.652 273.21L163.935 273.649" stroke="black" stroke-width="7.91273"/>
<path d="M62.7635 243.657L70.9384 246.724C73.6756 247.752 76.1571 249.361 78.2112 251.442L79.1202 252.362C81.2243 254.493 82.6771 257.18 83.3082 260.108C84.0845 263.709 86.0986 266.923 89.0003 269.193L94.2455 273.295" stroke="black" stroke-width="7.91273"/>
<path d="M383.369 74.978L378.675 82.2528C375.773 86.7483 373.916 91.8364 373.238 97.1437C372.724 101.173 372.899 105.261 373.755 109.231L375.243 116.137C375.278 116.298 375.343 116.452 375.436 116.589C376.14 117.634 375.094 118.97 373.91 118.536L361.968 114.163C361.315 113.924 360.622 113.813 359.927 113.836L345.612 114.3C344.075 114.35 342.552 114.615 341.089 115.087L333.165 117.643C330.258 118.58 327.093 117.326 325.619 114.65C324.701 112.986 323.09 111.817 321.223 111.462L307.11 108.778C303.868 108.162 300.558 107.983 297.268 108.246L286.052 109.142C281.018 109.545 276.193 111.334 272.114 114.312C267.965 117.34 263.046 119.139 257.921 119.5L243.439 120.522M243.439 120.522L224.421 114.908M243.439 120.522L246.94 136.765C247.502 139.371 245.27 141.726 242.638 141.305L235.039 140.09C233.708 139.877 232.441 139.37 231.331 138.605L225.472 134.568C220.427 131.091 214.66 128.804 208.603 127.878L200.229 126.598" stroke="black" stroke-width="7.91273"/>
<path d="M194.996 139.867L208.165 143.515C211.399 144.41 214.4 145.997 216.96 148.166L221.191 151.75C222.349 152.731 223.15 154.067 223.47 155.55C224.504 160.349 220.323 164.657 215.495 163.766L207.629 162.314C206.164 162.044 204.76 161.508 203.488 160.732L191.939 153.691C188.623 151.67 184.658 151 180.862 151.818L179.578 152.095C179.22 152.172 178.874 152.292 178.545 152.454C174.777 154.308 175.411 159.865 179.5 160.823L182.878 161.614C183.31 161.715 183.728 161.866 184.125 162.064L188.633 164.311C194.004 166.989 197.867 171.962 199.132 177.829C199.887 181.333 196.636 184.378 193.19 183.395L188.409 182.033C188.045 181.929 187.69 181.799 187.346 181.644L169.381 173.531C167.958 172.888 166.457 172.438 164.915 172.191L155.948 170.757C153.686 170.396 151.452 171.544 150.43 173.594C148.971 176.522 150.521 180.056 153.664 180.965L165.797 184.475C168.559 185.275 170.952 187.019 172.559 189.404L173.261 190.446C174.282 191.962 174.786 193.767 174.698 195.592C174.454 200.638 169.879 204.353 164.891 203.555L161.103 202.949C159.81 202.742 158.56 202.324 157.403 201.71L141.786 193.429L132.11 189.848" stroke="black" stroke-width="7.91273"/>
</g>
<defs>
<clipPath id="clip0_3619_7838">
<rect width="534" height="357" rx="20" fill="white"/>
</clipPath>
</defs>
</svg>
