<svg width="552" height="643" viewBox="0 0 552 643" fill="none" xmlns="http://www.w3.org/2000/svg">
<rect x="6" y="6" width="540.599" height="630.997" fill="#003DA2" stroke="#020005" stroke-width="12"/>
<path d="M442.673 12C442.673 44.3103 437.953 74.0697 400.196 94.4762C362.439 114.883 321.536 120.835 275.912 122.535C228.716 119.984 183.093 116.583 148.482 94.4762C112.298 74.0697 102.857 46.0108 113.871 12H271.192H442.673Z" fill="#FFFDFA"/>
<path d="M144.6 12C144.6 23.1659 142.717 29.5269 144.601 44.8317C146.169 57.5858 156.657 68.3962 168.198 76.2917C179.739 84.1872 195.596 91.5749 210.675 95.8479C225.753 100.121 250.989 102.65 267.31 102.65C283.631 102.65 308.878 100.121 323.957 95.8479C339.036 91.5749 364.332 82.4867 375.873 74.5912C387.414 66.6957 396.372 55.1477 402.618 44.8317C408.863 34.5158 407.335 23.1659 407.335 12H144.6Z" fill="#0077FF"/>
<path d="M540.599 164.199C513.455 181.205 505.471 184.606 460.428 202.422C406.475 218.617 341.892 231.371 270.749 231.371C199.605 231.371 130.244 221.167 81.0688 202.422C30.7626 185.519 10.4906 165.9 12.087 159.948L13.6778 122.536C13.6779 142.528 70.0313 177.857 112.106 191.994C154.181 206.13 211.246 214.072 270.749 214.072C329.833 211.814 387.315 202.422 432.023 189.707C475.134 173.552 479.924 172.702 510.262 154.846L539.002 133.59L540.599 164.199Z" fill="#FFF8FF"/>
<path d="M12 340.205L255.249 336.804L431.449 333.403L540.599 336.804" stroke="#FDFCFC" stroke-width="12"/>
<path d="M405.304 336.802C405.304 375.309 347.547 406.524 276.3 406.524C205.054 406.524 147.297 375.309 147.297 336.802C147.297 298.296 205.054 267.08 276.3 267.08C347.547 267.08 405.304 298.296 405.304 336.802ZM185.399 336.802C185.399 363.935 226.097 385.931 276.3 385.931C326.503 385.931 367.201 363.935 367.201 336.802C367.201 309.669 326.503 287.673 276.3 287.673C226.097 287.673 185.399 309.669 185.399 336.802Z" fill="#FFF8FF"/>
<path d="M109.54 631.001C109.54 598.691 114.26 568.931 152.017 548.525C189.774 528.118 230.677 522.166 276.301 520.466C323.497 523.017 369.12 526.418 403.731 548.525C439.915 568.931 449.356 596.99 438.342 631.001H281.02H109.54Z" fill="#FFFDFA"/>
<path d="M407.226 631.001C407.226 619.835 409.109 613.474 407.225 598.169C405.657 585.415 395.169 574.605 383.628 566.709C372.088 558.814 356.23 551.426 341.152 547.153C326.073 542.88 300.837 540.351 284.516 540.351C268.195 540.351 242.948 542.88 227.869 547.153C212.79 551.426 187.494 560.514 175.953 568.41C164.412 576.305 155.454 587.853 149.209 598.169C142.963 608.485 144.491 619.835 144.491 631.001H407.226Z" fill="#0077FF"/>
<path d="M12.0005 499.204C39.1446 482.199 47.1282 478.797 92.1714 460.981C146.124 444.787 210.707 432.033 281.851 432.033C352.995 432.033 422.356 442.236 471.531 460.981C521.837 477.884 542.109 497.503 540.513 503.455L538.922 540.867C538.922 520.875 482.568 485.546 440.494 471.41C398.419 457.273 341.354 449.331 281.851 449.331C222.767 451.589 165.285 460.981 120.577 473.696C77.4657 489.851 72.6756 490.701 42.338 508.557L13.5972 529.814L12.0005 499.204Z" fill="#FFF8FF"/>
</svg>
