<svg width="1897" height="96" viewBox="0 0 1897 96" fill="none" xmlns="http://www.w3.org/2000/svg">
<rect width="1897" height="96" fill="white"/>
<path d="M101.929 47.6648C101.02 47.6648 100.086 47.6888 99.1523 47.6648C98.7692 47.6648 98.3622 47.6409 98.0031 47.593C97.261 47.4733 96.8301 46.9706 96.854 46.2285C96.9019 45.0554 97.4525 44.0021 97.8356 42.9248C98.051 42.3023 98.1947 41.6799 98.4101 41.0575C98.5298 40.6505 98.5538 40.1956 98.4341 39.7408C98.3144 39.2859 97.9313 38.9508 97.4765 39.0226C96.9019 39.1184 96.3752 39.1902 95.8486 39.6211C94.2446 40.866 92.8082 42.2545 91.2761 43.5472C90.2227 44.433 89.2173 45.3906 88.2357 46.3482C87.6133 46.9227 86.8951 47.2818 86.153 47.6648C85.8657 47.8324 85.5545 47.9042 85.2193 47.9042C82.8493 47.9282 80.5032 47.9761 78.1571 48C77.8219 48 77.4868 48 77.1516 47.9282C75.5477 47.6648 75.1167 46.827 75.7392 45.2948C76.1701 44.2175 76.5292 43.1402 76.9122 42.0629C77.3671 40.842 77.7741 39.5971 78.2289 38.3762C78.8274 36.7244 79.3301 35.0486 79.9047 33.4207C80.3835 32.0801 80.8623 30.7634 81.2693 29.4228C81.6762 28.13 82.4423 27.4358 83.8308 27.2442C84.8363 27.1245 85.7939 27.0288 86.7754 27.1006C88.0442 27.1724 89.2891 26.933 90.5579 27.1485C91.1085 27.2682 91.4437 27.5315 91.6352 28.0342C91.7309 28.2258 91.8506 28.4412 91.7309 28.6567C91.4437 29.3031 91.4915 30.0452 91.2282 30.7155C90.7733 31.8167 90.51 33.0137 90.2227 34.1628C90.127 34.5219 90.1988 34.9289 90.2706 35.3119C90.3185 35.5992 90.5579 35.7668 90.8691 35.7668C91.5394 35.7428 92.1858 35.6471 92.7364 35.2162C93.2391 34.8092 93.8137 34.4501 94.2446 33.9713C94.8192 33.301 95.6571 33.0137 96.2077 32.2955C96.7583 31.6013 97.5483 31.1943 98.1947 30.5958C99.248 29.5903 100.493 28.7764 101.69 27.8906C102.264 27.4597 102.983 27.2921 103.677 27.2442C105.257 27.1724 106.837 27.1245 108.417 27.2682C109.47 27.3879 110.548 27.1964 111.625 27.2682C113.301 27.3879 114.378 27.8188 113.54 29.9973C113.205 30.907 112.894 31.8167 112.535 32.7264C111.026 36.5568 109.494 40.3632 108.034 44.1936C107.818 44.7921 107.196 45.2469 107.34 45.9891C106.645 46.7073 106.191 47.7127 104.898 47.593C103.916 47.4973 102.935 47.5691 101.929 47.5691V47.6648ZM138.568 33.9474C138.927 33.6601 138.951 33.3728 138.759 32.9419C138.568 32.511 138.257 32.2237 137.802 32.104C137.179 31.9364 136.557 31.721 135.958 31.9364C135.097 31.7449 134.355 31.9843 133.612 32.0561C133.086 32.0801 132.655 32.3195 132.272 32.6546C131.578 33.2531 131.745 34.3304 132.607 34.6177C133.397 34.8571 134.163 35.1204 135.025 34.9289C135.719 34.7853 136.413 34.6656 137.132 34.6416C137.73 34.6177 138.137 34.2825 138.568 33.9474ZM137.419 41.5363C137.945 40.9378 137.898 40.3393 137.371 39.7647C136.94 39.3338 136.413 39.0465 135.791 38.9508C134.259 38.7353 132.727 39.0226 131.194 38.9747C130.213 38.9268 129.591 39.5253 128.968 40.1478C128.394 40.6984 128.513 41.6799 129.184 42.1587C129.614 42.4939 130.069 42.7811 130.692 42.6854C131.123 42.6136 131.554 42.6854 132.008 42.6854C132.391 42.6854 132.775 42.6614 133.158 42.6854C134.378 42.8051 135.528 42.5178 136.677 42.1587C136.964 42.0629 137.227 41.7757 137.419 41.5363ZM150.681 30.5C150.945 31.2422 151.017 32.0561 150.562 32.8701C150.203 33.4925 149.939 34.1389 149.269 34.5219C148.718 34.8331 148.455 35.3838 148.192 35.9344C147.928 36.5089 147.857 37.0595 148.216 37.658C148.503 38.1847 148.742 38.7353 148.958 39.3099C149.508 40.6505 149.508 40.6744 149.197 41.7996C148.958 42.7093 148.455 43.5233 147.713 44.1218C146.133 45.3906 144.361 46.1806 142.374 46.6594C140.818 47.0663 139.238 47.1142 137.682 47.4254C137.323 47.4973 136.94 47.4973 136.629 47.5212C135.935 47.186 135.36 47.593 134.762 47.5691C132.798 47.5451 130.811 47.593 128.824 47.6409C127.843 47.6409 126.861 47.8324 125.88 47.7606C124.037 47.617 122.217 48 120.35 47.8324C119.44 47.7367 118.482 47.9282 117.573 47.9042C116.256 47.8803 115.586 46.8988 115.993 45.6778C116.472 44.2893 117.022 42.9008 117.501 41.5123C118.099 39.8126 119.009 38.2326 119.296 36.4371C120.158 35.0247 120.469 33.3728 121.14 31.8885C121.571 30.9788 121.834 29.9734 122.313 29.0397C122.792 28.1061 123.438 27.6033 124.443 27.4597C124.922 27.3879 125.425 27.34 125.904 27.34C127.101 27.3161 128.322 27.5794 129.495 27.1964C130.189 27.4118 130.931 27.2442 131.625 27.3639C132.487 27.5076 133.301 27.0527 134.211 27.2442C134.977 27.4118 135.839 27.34 136.653 27.2442C138.664 27.0048 140.675 27.0048 142.686 27.1006C144.864 27.2203 147.043 27.4836 149.054 28.5609C149.915 29.0158 150.418 29.6861 150.681 30.5ZM174.22 40.1238C174.986 39.8365 175.393 38.9029 175.154 38.0889C174.867 37.0356 174.436 36.7723 173.358 36.9638C173.191 36.9877 173.023 37.0117 172.856 37.0595C171.922 37.3229 171.323 38.9029 171.874 39.7408C172.114 40.1478 172.449 40.3872 173.263 40.3393C173.382 40.2914 173.837 40.2675 174.22 40.1238ZM187.818 45.8694C188.081 46.803 187.243 47.9042 186.238 47.9521C185.424 48 184.61 47.9761 183.796 47.9761V48C182.384 48 180.971 48 179.559 48C178.553 48 177.715 47.6409 177.117 46.827C176.327 45.7257 175.178 45.3666 173.885 45.199C172.664 45.0554 171.467 45.0315 170.27 45.0554C169.767 45.0794 169.265 45.1272 168.786 45.0554C167.733 44.8639 166.727 45.1033 165.722 45.3666C165.099 45.5342 164.453 45.7257 164.022 46.3003C163.495 46.9706 162.633 47.1621 161.987 47.6888C161.843 47.8085 161.58 47.8803 161.365 47.8803C158.923 47.9282 156.457 47.9282 153.991 47.9521C153.704 47.9521 153.441 47.9282 153.177 47.8564C152.507 47.6409 152.244 46.9945 152.603 46.396C152.962 45.8454 153.369 45.2948 153.847 44.8639C155.691 43.1642 157.343 41.249 159.282 39.6211C160.12 38.9029 160.838 38.065 161.628 37.2989C164.309 34.6177 166.99 31.9604 169.672 29.2791C169.72 29.2312 169.767 29.2073 169.791 29.1594C171.228 27.723 172.951 27.1245 174.986 27.3879C175.8 27.4836 176.638 27.5076 177.452 27.3879C178.505 27.2442 179.511 27.4358 180.54 27.4597C180.971 27.4597 181.402 27.5794 181.809 27.7949C182.551 28.1539 183.03 28.6327 183.269 29.4467C183.82 31.2182 184.347 32.9898 184.754 34.8092C185.065 36.1977 185.592 37.5383 185.927 38.9029C186.477 41.249 187.196 43.5472 187.818 45.8694ZM208.954 33.8277C209.672 34.0671 210.701 33.7558 211.731 33.7319C213.454 33.708 214.412 32.7025 214.987 31.2182C215.346 30.3085 215.705 29.3988 216.088 28.4891C216.567 27.4358 217.452 26.933 218.578 26.8851C219.224 26.8612 219.87 26.6457 220.517 26.9809C220.78 27.1245 221.163 26.9809 221.498 26.957C221.714 26.933 221.929 26.7894 222.121 26.8373C222.767 27.0048 223.389 26.9809 224.036 26.9809C224.682 27.0048 225.353 27.0767 225.999 27.1485C227.172 27.2442 228.01 28.4412 227.507 29.4946C226.837 30.9788 226.645 32.6546 225.736 34.0431C225.568 35.3838 224.898 36.5089 224.491 37.7538C224.084 38.9987 223.581 40.1956 223.102 41.4166C222.552 42.7811 222.001 44.1457 221.474 45.5103C220.828 47.186 219.559 47.7606 217.955 47.593C216.686 47.4494 215.465 47.6888 214.221 47.5212C213.79 47.4494 213.359 47.5691 212.928 47.3536C212.76 47.2818 212.473 47.2818 212.305 47.3536C211.539 47.7606 210.917 47.2818 210.318 46.9706C209.768 46.6833 209.576 45.9412 209.816 45.199C209.983 44.6484 210.247 44.0978 210.438 43.5233C210.606 43.0684 210.749 42.5896 210.869 42.1108C211.18 40.7941 210.701 39.8844 209.433 39.4056C208.93 39.2381 208.427 38.8311 207.876 39.2859C206.823 38.9987 205.722 39.262 204.645 39.1902C203.663 39.1184 202.61 39.4774 201.939 40.4111C201.461 41.0814 201.054 41.7996 200.79 42.5896C200.503 43.4036 200.24 44.2415 199.929 45.0554C199.522 46.0848 199.043 47.0903 197.822 47.4254C197.606 47.4733 197.391 47.593 197.199 47.5691C195.691 47.4015 194.183 47.9761 192.675 47.617C191.837 48 190.975 47.8085 190.113 47.6648C189.73 47.593 189.587 47.3536 189.467 47.0185C189.275 46.5397 189.251 46.0609 189.395 45.5581C189.587 44.9357 189.706 44.2654 189.97 43.6669C190.855 41.6081 191.406 39.4535 192.244 37.3708C193.082 35.288 193.776 33.1574 194.47 31.0267C194.734 30.2367 195.093 29.4946 195.404 28.7524C195.835 27.6273 196.936 27.2203 198.061 27.0767C198.66 27.0048 199.258 27.0527 199.857 27.0767C200.312 27.0767 200.742 27.0048 201.173 26.957C202.394 26.8373 203.639 26.8133 204.86 27.1485C205.554 27.34 205.77 27.723 205.746 28.513C205.722 29.0876 205.459 29.5664 205.291 30.0931C205.123 30.5958 204.932 31.0985 204.956 31.6731C204.98 32.8461 205.483 33.5165 206.656 33.684C206.967 33.7558 207.302 33.7319 207.637 33.7558C207.972 33.7558 208.283 33.7798 208.954 33.8277ZM254.175 38.1368C255.036 36.2935 254.462 33.4207 252.595 32.3913C252.068 32.104 251.565 31.7928 250.967 31.6252C250.033 31.4098 249.123 30.9788 248.118 31.2661C247.328 31.3619 246.514 31.3858 245.7 31.6013C244.695 31.8646 243.761 32.3195 242.947 32.9658C242.085 33.708 241.367 34.5219 240.84 35.5992C240.218 36.868 240.098 38.0411 240.29 39.4056C240.433 40.3153 240.888 40.9617 241.558 41.4166C242.301 41.9432 243.138 42.446 244.072 42.5417C245.7 42.7093 247.328 42.9248 248.956 42.446C250.201 42.0629 251.326 41.5123 252.283 40.6984C253.073 40.0041 253.696 39.1423 254.175 38.1368ZM266.312 34.9528C266.647 37.2989 266.001 39.3099 264.732 41.2729C263.918 42.5657 262.841 43.4754 261.692 44.3851C260.279 45.5103 258.604 46.013 257.023 46.7073C256.545 46.9227 256.042 46.9227 255.563 46.9706C254.869 47.0663 254.294 47.7367 253.528 47.3536C252.906 47.5691 252.259 47.6409 251.589 47.6648C250.895 47.6888 250.201 47.9761 249.482 47.6648C248.884 48 248.214 47.8564 247.567 47.9042C246.418 48 245.269 47.9042 244.168 47.7606C243.115 47.6409 241.965 47.9042 240.936 47.3297C239.883 47.6409 238.901 47.1382 237.896 46.9945C236.818 46.8509 235.789 46.4679 234.783 46.0609C233.563 45.606 232.557 44.8878 231.576 44.0978C230.307 43.0684 229.708 41.7038 229.493 40.1238C229.229 38.1608 229.493 36.3174 230.402 34.5698C230.929 33.6122 231.504 32.7264 232.294 31.9364C232.844 31.3619 233.491 30.8831 234.041 30.3325C234.64 29.734 235.406 29.4228 236.1 28.9679C236.938 28.4173 237.872 28.1061 238.781 27.6991C240.792 26.8373 242.971 26.5979 245.102 26.1909C245.915 26.0472 246.753 26.1669 247.567 26.1669C248.692 25.9994 249.77 26.1191 250.871 26.2388C251.685 26.3585 252.523 26.3585 253.337 26.4063C253.672 26.4303 254.007 26.4542 254.318 26.55C255.946 27.0048 257.574 27.4597 259.202 27.9385C261.381 28.5849 263.2 29.7819 264.732 31.4098C265.642 32.3913 266.121 33.6122 266.312 34.9528ZM290.857 33.9474C291.216 33.6601 291.24 33.3728 291.048 32.9419C290.857 32.511 290.545 32.2237 290.09 32.104C289.468 31.9364 288.846 31.721 288.247 31.9364C287.385 31.7449 286.643 31.9843 285.901 32.0561C285.374 32.0801 284.943 32.3195 284.56 32.6546C283.866 33.2531 284.034 34.3304 284.896 34.6177C285.686 34.8571 286.452 35.1204 287.313 34.9289C288.008 34.7853 288.702 34.6656 289.42 34.6416C290.019 34.6177 290.426 34.2825 290.857 33.9474ZM289.707 41.5363C290.234 40.9378 290.186 40.3393 289.66 39.7647C289.229 39.3338 288.702 39.0465 288.08 38.9508C286.547 38.7353 285.015 39.0226 283.483 38.9747C282.502 38.9268 281.879 39.5253 281.257 40.1478C280.682 40.6984 280.802 41.6799 281.472 42.1587C281.903 42.4939 282.358 42.7811 282.98 42.6854C283.411 42.6136 283.842 42.6854 284.297 42.6854C284.68 42.6854 285.063 42.6614 285.446 42.6854C286.667 42.8051 287.816 42.5178 288.965 42.1587C289.253 42.0629 289.516 41.7757 289.707 41.5363ZM302.97 30.5C303.233 31.2422 303.305 32.0561 302.85 32.8701C302.491 33.4925 302.228 34.1389 301.558 34.5219C301.007 34.8331 300.744 35.3838 300.48 35.9344C300.217 36.5089 300.145 37.0595 300.504 37.658C300.792 38.1847 301.031 38.7353 301.246 39.3099C301.797 40.6505 301.797 40.6744 301.486 41.7996C301.246 42.7093 300.744 43.5233 300.002 44.1218C298.421 45.3906 296.65 46.1806 294.663 46.6594C293.107 47.0663 291.527 47.1142 289.971 47.4254C289.612 47.4973 289.229 47.4973 288.917 47.5212C288.223 47.186 287.649 47.593 287.05 47.5691C285.087 47.5451 283.1 47.593 281.113 47.6409C280.132 47.6409 279.15 47.8324 278.168 47.7606C276.325 47.617 274.506 48 272.638 47.8324C271.729 47.7367 270.771 47.9282 269.861 47.9042C268.545 47.8803 267.874 46.8988 268.281 45.6778C268.76 44.2893 269.311 42.9008 269.79 41.5123C270.388 39.8126 271.298 38.2326 271.585 36.4371C272.447 35.0247 272.758 33.3728 273.428 31.8885C273.859 30.9788 274.123 29.9734 274.601 29.0397C275.08 28.1061 275.727 27.6033 276.732 27.4597C277.211 27.3879 277.714 27.34 278.192 27.34C279.389 27.3161 280.61 27.5794 281.783 27.1964C282.478 27.4118 283.22 27.2442 283.914 27.3639C284.776 27.5076 285.59 27.0527 286.5 27.2442C287.266 27.4118 288.127 27.34 288.941 27.2442C290.952 27.0048 292.963 27.0048 294.974 27.1006C297.153 27.2203 299.331 27.4836 301.342 28.5609C302.204 29.0158 302.707 29.6861 302.97 30.5ZM326.509 40.1238C327.275 39.8365 327.682 38.9029 327.442 38.0889C327.155 37.0356 326.724 36.7723 325.647 36.9638C325.479 36.9877 325.312 37.0117 325.144 37.0595C324.211 37.3229 323.612 38.9029 324.163 39.7408C324.402 40.1478 324.737 40.3872 325.551 40.3393C325.671 40.2914 326.126 40.2675 326.509 40.1238ZM340.107 45.8694C340.37 46.803 339.532 47.9042 338.527 47.9521C337.713 48 336.899 47.9761 336.085 47.9761V48C334.672 48 333.26 48 331.847 48C330.842 48 330.004 47.6409 329.406 46.827C328.615 45.7257 327.466 45.3666 326.174 45.199C324.953 45.0554 323.756 45.0315 322.559 45.0554C322.056 45.0794 321.553 45.1272 321.074 45.0554C320.021 44.8639 319.016 45.1033 318.01 45.3666C317.388 45.5342 316.741 45.7257 316.31 46.3003C315.784 46.9706 314.922 47.1621 314.276 47.6888C314.132 47.8085 313.869 47.8803 313.653 47.8803C311.211 47.9282 308.746 47.9282 306.28 47.9521C305.992 47.9521 305.729 47.9282 305.466 47.8564C304.795 47.6409 304.532 46.9945 304.891 46.396C305.25 45.8454 305.657 45.2948 306.136 44.8639C307.979 43.1642 309.631 41.249 311.57 39.6211C312.408 38.9029 313.126 38.065 313.916 37.2989C316.598 34.6177 319.279 31.9604 321.96 29.2791C322.008 29.2312 322.056 29.2073 322.08 29.1594C323.516 27.723 325.24 27.1245 327.275 27.3879C328.089 27.4836 328.927 27.5076 329.741 27.3879C330.794 27.2442 331.799 27.4358 332.829 27.4597C333.26 27.4597 333.691 27.5794 334.098 27.7949C334.84 28.1539 335.319 28.6327 335.558 29.4467C336.109 31.2182 336.635 32.9898 337.042 34.8092C337.354 36.1977 337.88 37.5383 338.215 38.9029C338.766 41.249 339.484 43.5472 340.107 45.8694ZM372.607 47.9042C370.405 47.9042 368.202 47.9042 366 47.9042C364.252 47.9042 362.505 47.8564 360.733 47.8803C360.278 47.9042 359.871 47.8324 359.512 47.5451C358.962 47.1621 358.794 46.6594 358.985 45.9651C359.464 44.2893 359.991 42.6375 360.47 40.9378C360.949 39.2141 361.403 37.4905 361.858 35.7428C362.409 33.4686 363.151 31.2422 363.821 29.0158C363.917 28.7046 364.037 28.3933 364.18 28.1061C364.659 27.2442 365.258 26.5979 366.359 26.6457C367.125 26.6697 367.939 26.7894 368.657 26.5739C369.447 26.3106 370.141 26.6936 370.907 26.5979C371.674 26.5021 372.416 26.6936 373.206 26.5021C373.637 26.3824 374.163 26.6218 374.642 26.6218C376.94 26.55 379.239 26.7415 381.537 26.55C382.016 26.5021 382.494 26.6218 382.997 26.6218C385.774 26.5979 388.575 26.6218 391.376 26.6457C392.07 26.6457 392.788 26.6697 393.363 27.2203C393.698 27.5555 393.961 27.8667 393.818 28.3694C393.77 28.5849 393.77 28.8243 393.722 29.0397C393.459 30.907 392.477 31.8885 390.634 32.0322C388.886 32.1758 387.139 32.2476 385.391 32.2476C383.572 32.2476 381.776 32.0801 379.981 32.2716C379.334 32.3434 378.664 32.2237 377.994 32.1758C377.228 32.1279 376.485 32.2716 375.791 32.6546C375.456 32.8461 375.432 33.1334 375.695 33.4446C376.055 33.8755 376.533 34.1389 377.084 34.2107C377.467 34.2586 377.874 34.2825 378.257 34.2825C379.574 34.2825 380.89 34.2825 382.207 34.2825C384.146 34.2825 386.061 34.2825 387.977 34.2825C388.216 34.2825 388.431 34.2825 388.647 34.3065C389.916 34.5219 390.418 35.1683 390.418 36.461C390.418 37.3229 390.059 38.065 389.628 38.7593C389.389 39.1423 389.03 39.4296 388.599 39.5493C388.072 39.669 387.498 39.9084 386.995 39.8365C385.247 39.6211 383.5 40.052 381.776 39.7168C380.699 39.9562 379.598 39.8844 378.52 39.8126C377.443 39.7408 376.366 39.9323 375.288 39.8126C374.81 39.7647 374.307 39.9084 373.804 39.9323C373.445 39.9562 373.206 40.1717 373.014 40.459C372.44 41.3447 372.655 42.039 373.661 42.3502C373.972 42.4699 374.307 42.5657 374.618 42.5417C376.27 42.446 377.922 42.6854 379.574 42.5896C381.369 42.4699 383.189 42.5896 385.008 42.5896C385.774 42.5896 386.54 42.6375 387.306 42.6136C388.982 42.5657 390.059 43.1881 389.174 45.4863C388.623 46.9467 387.57 47.6888 386.037 47.7367C384.793 47.7845 383.524 47.8564 382.279 47.8085C381.058 47.7367 379.861 47.9042 378.664 47.8085C376.868 47.6648 375.049 48 373.254 47.7367C373.038 47.7127 372.823 47.8085 372.607 47.8324C372.607 47.8564 372.607 47.8803 372.607 47.9042ZM425.432 47.5691C424.713 48 423.804 47.1142 422.99 47.7127C422.176 47.4973 421.362 47.4973 420.524 47.4973C419.399 47.4494 418.824 46.7551 418.944 45.6539C418.944 45.4384 418.968 45.199 419.088 45.0075C419.638 44.0739 419.686 42.9727 420.165 41.9911C420.596 41.0575 420.931 40.052 421.29 39.0944C421.697 38.065 422.08 37.0595 422.463 36.0301C422.774 35.1922 422.798 34.3304 422.559 33.4446C422.367 32.8701 421.984 32.511 421.41 32.3673C420.189 32.0322 419.04 32.3195 417.867 32.6307C417.484 33.1574 416.885 33.4925 416.622 34.1149C416.071 35.3598 415.544 36.6286 414.994 37.8735C414.012 40.0281 412.911 42.1108 411.187 43.7387C409.895 44.9597 408.339 45.8933 406.615 46.5397C404.867 47.21 403.072 47.4494 401.205 47.5691C400.462 47.593 399.696 47.9282 398.954 47.5691C398.188 47.9761 397.446 47.5691 396.704 47.4733C395.674 47.3536 395.148 46.6594 395.339 45.7018C395.483 45.0554 395.746 44.433 396.034 43.8584C396.321 43.3078 396.824 42.853 397.47 42.829C398.045 42.8051 398.523 42.5417 399.074 42.5178C400.941 42.3981 402.09 41.249 402.904 39.7647C403.958 37.8495 404.843 35.8625 405.49 33.7558C406.016 32.0082 406.854 30.3564 407.477 28.6088C407.86 27.5315 408.722 27.1485 409.631 26.7415C409.751 26.6697 409.943 26.7176 410.086 26.7415C410.373 26.7654 410.637 26.9091 410.9 26.8612C411.547 26.7415 412.169 26.6218 412.839 26.7894C413.462 26.933 414.132 26.5739 414.754 26.8612C414.946 26.957 415.209 26.933 415.425 26.8851C416.023 26.6936 416.574 26.7176 417.172 26.8612C417.675 26.957 418.226 26.7894 418.776 26.9091C419.686 27.1006 420.62 26.8373 421.553 26.9091C422.87 27.0288 424.187 26.8851 425.503 26.9809C427.586 27.1006 429.669 26.7894 431.728 27.1485C432.637 26.933 433.571 27.1245 434.481 27.0767C434.84 27.0527 435.103 27.1485 435.414 27.2442C436.037 27.4358 436.276 27.8667 436.252 28.4891C436.228 29.1115 436.061 29.6861 435.869 30.2367C435.103 32.2476 434.385 34.2586 433.643 36.2695C432.59 39.1902 431.536 42.1348 430.483 45.0554C430.291 45.5581 430.004 46.0369 429.741 46.5157C429.501 46.9706 429.046 47.3776 428.592 47.3776C427.778 47.3776 427.036 47.9042 426.198 47.6409C425.982 47.5691 425.743 47.593 425.432 47.5691ZM464.252 47.6648C463.342 47.6648 462.408 47.6888 461.475 47.6648C461.092 47.6648 460.685 47.6409 460.326 47.593C459.583 47.4733 459.153 46.9706 459.177 46.2285C459.224 45.0554 459.775 44.0021 460.158 42.9248C460.374 42.3023 460.517 41.6799 460.733 41.0575C460.852 40.6505 460.876 40.1956 460.757 39.7408C460.637 39.2859 460.254 38.9508 459.799 39.0226C459.224 39.1184 458.698 39.1902 458.171 39.6211C456.567 40.866 455.131 42.2545 453.599 43.5472C452.545 44.433 451.54 45.3906 450.558 46.3482C449.936 46.9227 449.218 47.2818 448.475 47.6648C448.188 47.8324 447.877 47.9042 447.542 47.9042C445.172 47.9282 442.826 47.9761 440.48 48C440.144 48 439.809 48 439.474 47.9282C437.87 47.6648 437.439 46.827 438.062 45.2948C438.493 44.2175 438.852 43.1402 439.235 42.0629C439.69 40.842 440.097 39.5971 440.551 38.3762C441.15 36.7244 441.653 35.0486 442.227 33.4207C442.706 32.0801 443.185 30.7634 443.592 29.4228C443.999 28.13 444.765 27.4358 446.153 27.2442C447.159 27.1245 448.116 27.0288 449.098 27.1006C450.367 27.1724 451.612 26.933 452.88 27.1485C453.431 27.2682 453.766 27.5315 453.958 28.0342C454.053 28.2258 454.173 28.4412 454.053 28.6567C453.766 29.3031 453.814 30.0452 453.551 30.7155C453.096 31.8167 452.832 33.0137 452.545 34.1628C452.449 34.5219 452.521 34.9289 452.593 35.3119C452.641 35.5992 452.88 35.7668 453.192 35.7668C453.862 35.7428 454.508 35.6471 455.059 35.2162C455.562 34.8092 456.136 34.4501 456.567 33.9713C457.142 33.301 457.98 33.0137 458.53 32.2955C459.081 31.6013 459.871 31.1943 460.517 30.5958C461.57 29.5903 462.815 28.7764 464.012 27.8906C464.587 27.4597 465.305 27.2921 465.999 27.2442C467.579 27.1724 469.159 27.1245 470.739 27.2682C471.793 27.3879 472.87 27.1964 473.947 27.2682C475.623 27.3879 476.7 27.8188 475.863 29.9973C475.527 30.907 475.216 31.8167 474.857 32.7264C473.349 36.5568 471.817 40.3632 470.356 44.1936C470.141 44.7921 469.518 45.2469 469.662 45.9891C468.968 46.7073 468.513 47.7127 467.22 47.593C466.239 47.4973 465.257 47.5691 464.252 47.5691V47.6648ZM493.23 48C490.74 48 488.298 47.7845 485.856 47.3776C484.061 47.0663 482.361 46.5157 480.757 45.63C479.728 45.0554 478.962 44.2175 478.315 43.2599C477.908 42.6614 478.028 42.0869 478.267 41.5602C478.507 41.1054 478.866 40.5787 479.584 40.8899C481.475 40.4111 483.414 40.842 485.33 40.6266C486.862 40.459 488.178 41.1293 489.232 42.0629C490.237 42.9248 491.386 43.1881 492.535 43.3078C493.708 43.4275 494.929 43.3557 496.126 43.0924C496.557 42.9966 496.916 42.7572 497.323 42.6136C498.161 42.3263 498.257 41.5841 498.425 40.9138C498.449 40.7702 498.377 40.5547 498.281 40.459C497.826 39.9084 497.419 39.3099 496.605 39.2141C495.863 39.0944 495.145 38.7593 494.355 38.9508C493.732 39.0944 493.158 38.8071 492.583 38.6635C492.105 38.5199 491.841 37.9932 491.889 37.4905C492.033 35.8625 493.086 34.9289 494.762 35.0486C496.031 35.1683 497.252 34.8571 498.496 34.7374C499.31 34.6656 499.789 34.1868 499.981 33.3968C500.1 32.8461 500.076 32.487 499.646 32.2476C498.784 31.7688 497.946 31.314 496.869 31.4337C495.887 31.5295 494.882 31.4098 493.924 31.7688C493.517 31.9125 493.038 31.9604 492.703 32.2237C491.53 33.0616 490.189 33.2292 488.825 33.1334C487.508 33.0377 486.215 33.0855 484.899 33.1574C484.133 33.1813 483.438 32.7743 482.648 32.918C482.241 32.9658 481.787 32.511 481.571 32.0322C481.499 31.8167 481.451 31.6013 481.595 31.3858C482.026 30.7634 482.457 30.1409 483.103 29.71C484.875 28.5849 486.79 27.8667 488.873 27.4597C490.333 27.1724 491.793 27.0527 493.254 26.9091C495.097 26.7176 496.988 26.8612 498.856 26.8373C499.502 27.1964 500.148 26.9091 500.795 26.9091C503.117 26.9809 505.343 27.5555 507.57 28.1061C508.312 28.2736 509.006 28.6567 509.676 29.0158C510.801 29.6622 511.448 30.7634 511.591 31.9604C511.663 32.7983 511.328 33.684 510.658 34.3543C510.251 34.7374 509.868 35.1204 509.509 35.5513C509.221 35.8625 508.719 36.0062 508.743 36.5568C508.767 37.1553 508.791 37.7777 509.15 38.3044C509.341 38.5677 509.533 38.8311 509.724 39.1184C510.873 40.8899 510.562 42.7572 508.958 44.2654C507.522 45.6539 505.822 46.396 503.907 46.7791C502.949 46.9706 502.063 47.3536 501.058 47.4494C499.861 47.5691 498.664 47.617 497.467 47.7845C496.055 48 494.642 47.9282 493.23 48ZM534.859 40.1238C535.626 39.8365 536.032 38.9029 535.793 38.0889C535.506 37.0356 535.075 36.7723 533.998 36.9638C533.83 36.9877 533.662 37.0117 533.495 37.0595C532.561 37.3229 531.963 38.9029 532.513 39.7408C532.753 40.1478 533.088 40.3872 533.902 40.3393C534.022 40.2914 534.476 40.2675 534.859 40.1238ZM548.457 45.8694C548.721 46.803 547.883 47.9042 546.877 47.9521C546.063 48 545.249 47.9761 544.435 47.9761V48C543.023 48 541.61 48 540.198 48C539.193 48 538.355 47.6409 537.756 46.827C536.966 45.7257 535.817 45.3666 534.524 45.199C533.303 45.0554 532.106 45.0315 530.909 45.0554C530.407 45.0794 529.904 45.1272 529.425 45.0554C528.372 44.8639 527.366 45.1033 526.361 45.3666C525.738 45.5342 525.092 45.7257 524.661 46.3003C524.134 46.9706 523.273 47.1621 522.626 47.6888C522.483 47.8085 522.219 47.8803 522.004 47.8803C519.562 47.9282 517.096 47.9282 514.63 47.9521C514.343 47.9521 514.08 47.9282 513.816 47.8564C513.146 47.6409 512.883 46.9945 513.242 46.396C513.601 45.8454 514.008 45.2948 514.487 44.8639C516.33 43.1642 517.982 41.249 519.921 39.6211C520.759 38.9029 521.477 38.065 522.267 37.2989C524.948 34.6177 527.63 31.9604 530.311 29.2791C530.359 29.2312 530.407 29.2073 530.431 29.1594C531.867 27.723 533.591 27.1245 535.626 27.3879C536.439 27.4836 537.277 27.5076 538.091 27.3879C539.145 27.2442 540.15 27.4358 541.18 27.4597C541.61 27.4597 542.041 27.5794 542.448 27.7949C543.19 28.1539 543.669 28.6327 543.909 29.4467C544.459 31.2182 544.986 32.9898 545.393 34.8092C545.704 36.1977 546.231 37.5383 546.566 38.9029C547.117 41.249 547.835 43.5472 548.457 45.8694ZM572.897 33.9474C573.256 33.6601 573.28 33.3728 573.088 32.9419C572.897 32.511 572.585 32.2237 572.131 32.104C571.508 31.9364 570.886 31.721 570.287 31.9364C569.425 31.7449 568.683 31.9843 567.941 32.0561C567.415 32.0801 566.984 32.3195 566.601 32.6546C565.906 33.2531 566.074 34.3304 566.936 34.6177C567.726 34.8571 568.492 35.1204 569.354 34.9289C570.048 34.7853 570.742 34.6656 571.46 34.6416C572.059 34.6177 572.466 34.2825 572.897 33.9474ZM571.748 41.5363C572.274 40.9378 572.226 40.3393 571.7 39.7647C571.269 39.3338 570.742 39.0465 570.12 38.9508C568.588 38.7353 567.055 39.0226 565.523 38.9747C564.542 38.9268 563.919 39.5253 563.297 40.1478C562.722 40.6984 562.842 41.6799 563.512 42.1587C563.943 42.4939 564.398 42.7811 565.021 42.6854C565.451 42.6136 565.882 42.6854 566.337 42.6854C566.72 42.6854 567.103 42.6614 567.486 42.6854C568.707 42.8051 569.856 42.5178 571.005 42.1587C571.293 42.0629 571.556 41.7757 571.748 41.5363ZM585.01 30.5C585.274 31.2422 585.345 32.0561 584.891 32.8701C584.531 33.4925 584.268 34.1389 583.598 34.5219C583.047 34.8331 582.784 35.3838 582.52 35.9344C582.257 36.5089 582.185 37.0595 582.544 37.658C582.832 38.1847 583.071 38.7353 583.287 39.3099C583.837 40.6505 583.837 40.6744 583.526 41.7996C583.287 42.7093 582.784 43.5233 582.042 44.1218C580.462 45.3906 578.69 46.1806 576.703 46.6594C575.147 47.0663 573.567 47.1142 572.011 47.4254C571.652 47.4973 571.269 47.4973 570.958 47.5212C570.263 47.186 569.689 47.593 569.09 47.5691C567.127 47.5451 565.14 47.593 563.153 47.6409C562.172 47.6409 561.19 47.8324 560.209 47.7606C558.365 47.617 556.546 48 554.679 47.8324C553.769 47.7367 552.811 47.9282 551.902 47.9042C550.585 47.8803 549.915 46.8988 550.322 45.6778C550.8 44.2893 551.351 42.9008 551.83 41.5123C552.428 39.8126 553.338 38.2326 553.625 36.4371C554.487 35.0247 554.798 33.3728 555.469 31.8885C555.899 30.9788 556.163 29.9734 556.642 29.0397C557.12 28.1061 557.767 27.6033 558.772 27.4597C559.251 27.3879 559.754 27.34 560.233 27.34C561.43 27.3161 562.65 27.5794 563.824 27.1964C564.518 27.4118 565.26 27.2442 565.954 27.3639C566.816 27.5076 567.63 27.0527 568.54 27.2442C569.306 27.4118 570.168 27.34 570.982 27.2442C572.992 27.0048 575.003 27.0048 577.014 27.1006C579.193 27.2203 581.371 27.4836 583.382 28.5609C584.244 29.0158 584.747 29.6861 585.01 30.5ZM600.386 47.9042C598.183 47.9042 595.981 47.9042 593.778 47.9042C592.031 47.9042 590.283 47.8564 588.511 47.8803C588.057 47.9042 587.65 47.8324 587.29 47.5451C586.74 47.1621 586.572 46.6594 586.764 45.9651C587.243 44.2893 587.769 42.6375 588.248 40.9378C588.727 39.2141 589.182 37.4905 589.637 35.7428C590.187 33.4686 590.929 31.2422 591.6 29.0158C591.695 28.7046 591.815 28.3933 591.959 28.1061C592.438 27.2442 593.036 26.5979 594.137 26.6457C594.903 26.6697 595.717 26.7894 596.435 26.5739C597.225 26.3106 597.92 26.6936 598.686 26.5979C599.452 26.5021 600.194 26.6936 600.984 26.5021C601.415 26.3824 601.942 26.6218 602.42 26.6218C604.719 26.55 607.017 26.7415 609.315 26.55C609.794 26.5021 610.273 26.6218 610.775 26.6218C613.552 26.5979 616.353 26.6218 619.154 26.6457C619.849 26.6457 620.567 26.6697 621.141 27.2203C621.476 27.5555 621.74 27.8667 621.596 28.3694C621.548 28.5849 621.548 28.8243 621.5 29.0397C621.237 30.907 620.255 31.8885 618.412 32.0322C616.665 32.1758 614.917 32.2476 613.169 32.2476C611.35 32.2476 609.554 32.0801 607.759 32.2716C607.113 32.3434 606.442 32.2237 605.772 32.1758C605.006 32.1279 604.264 32.2716 603.569 32.6546C603.234 32.8461 603.21 33.1334 603.474 33.4446C603.833 33.8755 604.312 34.1389 604.862 34.2107C605.245 34.2586 605.652 34.2825 606.035 34.2825C607.352 34.2825 608.669 34.2825 609.985 34.2825C611.924 34.2825 613.84 34.2825 615.755 34.2825C615.994 34.2825 616.21 34.2825 616.425 34.3065C617.694 34.5219 618.197 35.1683 618.197 36.461C618.197 37.3229 617.838 38.065 617.407 38.7593C617.167 39.1423 616.808 39.4296 616.377 39.5493C615.851 39.669 615.276 39.9084 614.773 39.8365C613.026 39.6211 611.278 40.052 609.554 39.7168C608.477 39.9562 607.376 39.8844 606.299 39.8126C605.221 39.7408 604.144 39.9323 603.067 39.8126C602.588 39.7647 602.085 39.9084 601.582 39.9323C601.223 39.9562 600.984 40.1717 600.792 40.459C600.218 41.3447 600.433 42.039 601.439 42.3502C601.75 42.4699 602.085 42.5657 602.396 42.5417C604.048 42.446 605.7 42.6854 607.352 42.5896C609.147 42.4699 610.967 42.5896 612.786 42.5896C613.552 42.5896 614.318 42.6375 615.085 42.6136C616.76 42.5657 617.838 43.1881 616.952 45.4863C616.401 46.9467 615.348 47.6888 613.816 47.7367C612.571 47.7845 611.302 47.8564 610.057 47.8085C608.836 47.7367 607.639 47.9042 606.442 47.8085C604.647 47.6648 602.827 48 601.032 47.7367C600.816 47.7127 600.601 47.8085 600.386 47.8324C600.386 47.8564 600.386 47.8803 600.386 47.9042ZM649.188 33.1334C648.326 33.1334 647.44 33.1095 646.555 33.1334C645.238 33.1813 644.232 33.8516 643.634 34.9528C643.035 36.0301 642.605 37.2271 642.126 38.3762C641.503 39.8844 640.905 41.4166 640.306 42.9487C639.78 43.2599 640.163 43.9063 639.804 44.2893C639.468 44.6484 639.277 45.1033 639.181 45.606C638.99 46.6115 638.248 47.186 637.434 47.6648C637.218 47.8085 636.907 47.9282 636.668 47.9042C635.471 47.7367 634.297 48 633.124 47.9282C632.454 47.9042 631.736 47.3776 631.066 47.9521C630.347 47.8085 629.653 47.7127 628.935 47.6888C627.929 47.6648 627.355 46.9467 627.475 45.9651C627.523 45.5342 627.618 45.0794 627.762 44.6724C628.552 42.6375 629.294 40.5787 630.18 38.5917C630.587 37.6341 630.754 36.6047 631.305 35.695C631.88 34.7613 631.209 33.2771 630.18 32.7983C629.198 32.3434 628.145 32.3913 627.116 32.4392C626.158 32.511 625.248 32.4392 624.339 32.2476C623.525 32.0801 622.926 31.1943 623.022 30.4043C623.165 29.327 623.692 28.4412 624.506 27.723C625.033 27.2442 625.775 27.4118 626.373 27.1724C627.451 27.4836 628.528 27.1245 629.629 27.2203C632.789 27.4836 635.949 27.4118 639.109 27.5794C640.522 27.6512 641.91 27.6273 643.323 27.747C644.735 27.8906 646.172 27.747 647.584 27.8427C649.02 27.9624 650.433 27.8188 651.845 27.8906C652.587 27.9145 653.33 28.0342 654.096 27.9385C655.053 27.8188 655.819 28.92 655.604 30.0212C655.412 30.8831 655.053 31.7449 654.431 32.3434C653.76 33.0137 652.779 33.1574 651.845 33.1813C650.96 33.1813 650.074 33.1813 649.188 33.1813C649.188 33.1574 649.188 33.1334 649.188 33.1334ZM678.989 40.1238C679.755 39.8365 680.162 38.9029 679.923 38.0889C679.635 37.0356 679.204 36.7723 678.127 36.9638C677.959 36.9877 677.792 37.0117 677.624 37.0595C676.691 37.3229 676.092 38.9029 676.643 39.7408C676.882 40.1478 677.217 40.3872 678.031 40.3393C678.151 40.2914 678.606 40.2675 678.989 40.1238ZM692.587 45.8694C692.85 46.803 692.012 47.9042 691.007 47.9521C690.193 48 689.379 47.9761 688.565 47.9761V48C687.152 48 685.74 48 684.327 48C683.322 48 682.484 47.6409 681.886 46.827C681.096 45.7257 679.946 45.3666 678.654 45.199C677.433 45.0554 676.236 45.0315 675.039 45.0554C674.536 45.0794 674.033 45.1272 673.555 45.0554C672.501 44.8639 671.496 45.1033 670.49 45.3666C669.868 45.5342 669.221 45.7257 668.791 46.3003C668.264 46.9706 667.402 47.1621 666.756 47.6888C666.612 47.8085 666.349 47.8803 666.133 47.8803C663.691 47.9282 661.226 47.9282 658.76 47.9521C658.473 47.9521 658.209 47.9282 657.946 47.8564C657.276 47.6409 657.012 46.9945 657.371 46.396C657.73 45.8454 658.137 45.2948 658.616 44.8639C660.46 43.1642 662.111 41.249 664.05 39.6211C664.888 38.9029 665.607 38.065 666.397 37.2989C669.078 34.6177 671.759 31.9604 674.44 29.2791C674.488 29.2312 674.536 29.2073 674.56 29.1594C675.996 27.723 677.72 27.1245 679.755 27.3879C680.569 27.4836 681.407 27.5076 682.221 27.3879C683.274 27.2442 684.28 27.4358 685.309 27.4597C685.74 27.4597 686.171 27.5794 686.578 27.7949C687.32 28.1539 687.799 28.6327 688.038 29.4467C688.589 31.2182 689.115 32.9898 689.522 34.8092C689.834 36.1977 690.36 37.5383 690.695 38.9029C691.246 41.249 691.964 43.5472 692.587 45.8694ZM729.827 39.3577C728.511 38.9268 727.242 39.3338 725.949 39.4535C725.422 39.5014 725.087 39.7887 724.872 40.1238C724.034 41.2729 724.178 42.2066 725.494 42.6854C726.236 42.9487 727.05 43.1881 727.912 42.9727C728.271 42.8769 728.654 42.9487 729.037 42.9487C729.588 42.9966 730.139 43.0205 730.689 43.0205C731.695 43.0445 732.676 42.829 733.466 42.2305C734.639 41.3687 734.113 39.9562 733.083 39.645C732.317 39.4056 731.575 39.3099 730.809 39.3338C730.474 39.3338 730.115 39.4535 729.827 39.3577ZM746.346 27.5315C747.064 27.6512 747.399 28.0582 747.351 28.7764C747.303 29.327 747.184 29.8537 746.944 30.3564C746.465 31.4337 745.699 32.0561 744.502 32.0801C742.085 32.1279 739.667 32.1519 737.249 32.1998C737.249 32.1998 737.249 32.1998 737.249 32.2237C734.998 32.2237 732.748 32.1998 730.498 32.2237C730.067 32.2237 729.612 32.2716 729.205 32.3673C728.87 32.4152 728.606 32.6067 728.415 32.894C728.056 33.4446 728.176 34.0192 728.75 34.2586C729.492 34.5459 730.282 34.6177 731.024 34.5459C733.179 34.3783 735.31 34.5219 737.416 34.8092C739.475 35.0725 741.51 35.6231 743.377 36.5329C744.933 37.275 745.891 38.5438 746.035 40.3872C746.202 42.6375 745.101 44.1696 743.401 45.3666C742.3 46.1327 741.031 46.6354 739.667 46.9945C736.387 47.8324 733.059 47.8085 729.732 47.7606C728.199 47.7367 726.691 47.7367 725.159 47.7367C723.866 47.7367 722.55 47.7127 721.257 47.7606C719.677 47.8085 718.121 47.7367 716.541 47.8803C715.248 48.0239 713.931 48 712.615 47.7127C711.585 47.4733 711.25 46.803 711.561 45.7497C712.064 44.0978 712.734 42.4699 713.333 40.842C714.075 38.7593 714.865 36.6526 715.679 34.5937C715.942 33.8995 716.11 33.1813 716.493 32.511C716.852 31.9125 716.972 31.1704 717.187 30.5C717.403 29.8776 717.786 29.327 718.049 28.7285C718.528 27.723 719.366 27.4597 720.323 27.3879C723.148 27.1964 725.997 27.2682 728.822 27.1964C730.689 27.1485 732.556 27.4597 734.4 27.0527C736.459 27.3879 738.565 27.0767 740.624 27.1964C741.725 27.2442 742.827 27.2682 743.904 27.2442C744.742 27.1964 745.556 27.3879 746.346 27.5315ZM773.723 47.6409C772.214 47.8085 770.347 47.5451 768.504 47.7367C767.762 47.8085 767.019 47.5691 766.229 47.6409C764.386 47.7845 762.519 47.7845 760.675 47.7127C758.832 47.6648 756.989 48.0239 755.145 47.617C754.954 47.5691 754.714 47.6648 754.499 47.6888C753.134 47.8324 751.77 47.8085 750.405 47.6409C750.262 47.6409 750.094 47.5691 749.926 47.5451C748.969 47.3057 748.586 46.5636 748.993 45.6778C749.567 44.3612 750.549 43.4036 751.698 42.6854C753.494 41.5602 755.409 40.6505 757.444 40.0041C759.239 39.4296 761.058 38.879 762.878 38.2805C763.74 38.0171 764.673 37.8974 765.535 37.6341C766.9 37.2271 768.288 36.868 769.557 36.1977C769.796 36.078 769.988 35.8865 770.18 35.695C771.472 34.4022 771.017 33.301 769.413 32.6546C767.259 31.8167 765.2 32.2955 763.452 33.8516C763.045 34.2107 762.591 34.5219 762.16 34.881C761.753 35.2162 761.298 35.2641 760.795 35.3359C759.335 35.5513 757.874 35.5992 756.414 35.288C756.271 35.2641 756.079 35.288 755.935 35.3598C755.672 35.5035 755.409 35.4316 755.145 35.4316C754.523 35.4556 753.9 35.1683 753.805 34.6656C753.709 34.1149 753.446 33.4925 753.948 32.8222C754.762 31.7688 755.576 30.7394 756.749 30.117C757.611 29.6382 758.497 29.2552 759.407 28.8961C761.106 28.1779 762.902 28.0821 764.673 27.6752C765.176 27.5555 765.751 27.6033 766.301 27.6033C768.312 27.5794 770.347 27.4597 772.358 27.747C774.297 28.0342 776.284 28.2497 778.032 29.2552C778.367 29.4228 778.726 29.5664 779.109 29.6861C780.234 30.0691 780.928 30.8831 781.335 31.9604C781.527 32.4152 781.671 32.894 781.742 33.3728C781.838 33.9234 781.886 34.5459 781.551 34.9768C780.952 35.7907 780.665 36.9159 779.588 37.2989C778.678 38.3523 777.242 38.5199 776.212 39.3338C775.494 39.2141 775.015 39.7887 774.393 39.9562C773.531 40.1717 772.837 40.7702 772.119 41.2729C771.688 41.5841 771.807 42.2784 772.286 42.5178C772.478 42.6136 772.693 42.6614 772.909 42.6854C773.34 42.7572 773.77 42.8051 774.225 42.8051C775.327 42.829 776.404 42.9966 777.481 43.1642C778.582 43.3557 778.989 44.1218 778.534 45.1751C778.463 45.3187 778.319 45.4624 778.319 45.606C778.271 46.1327 778.104 46.5397 777.601 46.827C777.002 47.1621 776.524 47.7127 775.686 47.5691C775.159 47.4733 774.584 47.593 773.723 47.6409ZM804.303 36.3653C804.495 35.1683 804.495 33.9474 803.442 33.0616C803.202 32.8461 802.939 32.6307 802.652 32.487C800.305 31.4337 798.031 31.8646 796.164 33.3728C794.297 34.8571 793.195 36.9877 793.052 39.4535C793.028 39.6211 793.004 39.7887 793.004 39.9562C792.98 41.5363 793.89 42.7572 795.446 43.236C795.637 43.2839 795.853 43.3557 796.068 43.4275C797.911 43.8584 799.563 43.3796 801.024 42.3023C801.742 41.7757 802.34 41.0814 802.795 40.2675C803.489 39.0465 804.088 37.7777 804.303 36.3653ZM810.911 29.8776C813.257 31.5773 814.31 33.3489 813.831 36.3653C813.281 39.7647 811.461 42.3742 808.684 44.433C806.458 46.0609 804.016 46.9227 801.359 47.4973C799.659 47.8564 797.935 48.0239 796.188 47.9761C793.387 47.9282 790.586 47.7845 788 46.5157C786.564 45.8215 785.223 44.9836 784.29 43.619C783.835 42.9487 783.548 42.2545 783.5 41.4884C783.452 40.7941 783.117 40.1478 783.428 39.4056C783.667 38.8071 783.595 38.0889 783.787 37.4665C784.457 35.2162 785.774 33.3968 787.546 31.8407C790.203 29.5185 793.387 28.4891 796.786 27.9145C798.558 27.6033 800.353 27.6033 802.149 27.6033C803.801 27.6273 805.405 27.8427 807.009 28.2497C808.373 28.6088 809.786 29.0637 810.911 29.8776ZM840.632 47.6409C839.124 47.8085 837.257 47.5451 835.413 47.7367C834.671 47.8085 833.929 47.5691 833.139 47.6409C831.296 47.7845 829.429 47.7845 827.585 47.7127C825.742 47.6648 823.898 48.0239 822.055 47.617C821.864 47.5691 821.624 47.6648 821.409 47.6888C820.044 47.8324 818.68 47.8085 817.315 47.6409C817.171 47.6409 817.004 47.5691 816.836 47.5451C815.879 47.3057 815.496 46.5636 815.903 45.6778C816.477 44.3612 817.459 43.4036 818.608 42.6854C820.403 41.5602 822.318 40.6505 824.353 40.0041C826.149 39.4296 827.968 38.879 829.788 38.2805C830.649 38.0171 831.583 37.8974 832.445 37.6341C833.81 37.2271 835.198 36.868 836.467 36.1977C836.706 36.078 836.898 35.8865 837.089 35.695C838.382 34.4022 837.927 33.301 836.323 32.6546C834.169 31.8167 832.11 32.2955 830.362 33.8516C829.955 34.2107 829.5 34.5219 829.069 34.881C828.662 35.2162 828.208 35.2641 827.705 35.3359C826.245 35.5513 824.784 35.5992 823.324 35.288C823.18 35.2641 822.989 35.288 822.845 35.3598C822.582 35.5035 822.318 35.4316 822.055 35.4316C821.433 35.4556 820.81 35.1683 820.714 34.6656C820.619 34.1149 820.355 33.4925 820.858 32.8222C821.672 31.7688 822.486 30.7394 823.659 30.117C824.521 29.6382 825.407 29.2552 826.316 28.8961C828.016 28.1779 829.812 28.0821 831.583 27.6752C832.086 27.5555 832.66 27.6033 833.211 27.6033C835.222 27.5794 837.257 27.4597 839.268 27.747C841.207 28.0342 843.194 28.2497 844.941 29.2552C845.277 29.4228 845.636 29.5664 846.019 29.6861C847.144 30.0691 847.838 30.8831 848.245 31.9604C848.437 32.4152 848.58 32.894 848.652 33.3728C848.748 33.9234 848.796 34.5459 848.461 34.9768C847.862 35.7907 847.575 36.9159 846.498 37.2989C845.588 38.3523 844.151 38.5199 843.122 39.3338C842.404 39.2141 841.925 39.7887 841.303 39.9562C840.441 40.1717 839.747 40.7702 839.028 41.2729C838.597 41.5841 838.717 42.2784 839.196 42.5178C839.387 42.6136 839.603 42.6614 839.818 42.6854C840.249 42.7572 840.68 42.8051 841.135 42.8051C842.236 42.829 843.314 42.9966 844.391 43.1642C845.492 43.3557 845.899 44.1218 845.444 45.1751C845.372 45.3187 845.229 45.4624 845.229 45.606C845.181 46.1327 845.013 46.5397 844.511 46.827C843.912 47.1621 843.433 47.7127 842.595 47.5691C842.069 47.4733 841.494 47.593 840.632 47.6409ZM869.202 41.7996C869.944 40.8181 869.657 39.262 868.532 38.7832C867.622 38.4002 866.712 38.0411 865.683 38.065C864.366 38.065 863.098 38.3283 861.877 38.7353C860.68 39.1184 859.554 39.7168 858.334 39.9802C858.118 40.1717 857.783 40.2914 857.927 40.6984L857.974 40.7223C858.118 40.7702 858.238 40.866 858.334 40.9617C858.884 41.0096 859.195 41.4644 859.531 41.7757C861.23 43.3557 863.313 43.6669 865.492 43.5472C866.353 43.5233 867.191 43.236 868.005 42.8769C868.508 42.6614 868.867 42.2545 869.202 41.7996ZM879.424 27.7949C881.004 27.8427 881.579 28.8961 880.885 30.3803C880.837 30.5479 880.741 30.6916 880.693 30.8352C880.406 31.7928 879.784 32.3195 878.802 32.4152C878.132 32.487 877.533 32.7743 876.863 32.7983C876.336 32.8222 875.786 33.0137 875.307 33.3249C874.972 33.5643 874.924 33.7558 875.163 34.1149C875.642 34.8571 876.288 35.3359 877.03 35.7189C877.581 36.0062 878.012 36.3892 878.467 36.7962C880.334 38.5199 880.454 40.9378 878.994 43.0684C878.443 43.8345 877.701 44.433 876.935 44.9118C875.45 45.8215 873.894 46.6354 872.123 46.9467C871.429 47.0663 870.782 47.3057 870.088 47.4494C867.718 48 865.3 48 862.906 47.9761C862.284 47.9761 861.685 47.9521 861.087 47.9521C858.357 47.9521 855.796 47.0903 853.234 46.2763C852.205 45.9412 851.439 45.199 850.816 44.3851C850.026 43.3317 850.122 42.0869 851.583 41.3926C851.918 41.2251 852.301 41.1293 852.684 41.0575C853.139 40.9857 853.498 40.7463 853.976 40.3872C853.665 40.052 853.45 39.7887 853.234 39.5493C852.636 38.9508 852.516 38.2805 852.851 37.4426C853.186 36.5329 853.665 35.7189 854.144 34.8571C854.814 33.6122 855.509 32.3673 856.179 31.0985C856.682 30.1649 857.113 29.1355 858.046 28.4891C858.693 28.0342 859.363 27.723 860.177 27.723C862.092 27.747 864.007 27.747 865.922 27.723C868.34 27.723 870.758 27.6991 873.176 27.6991C875.259 27.6991 877.342 27.723 879.424 27.7949ZM913.016 33.2292C913.136 32.511 912.896 32.0082 912.298 31.6731C910.813 30.7873 907.965 31.4098 907.079 32.9419C906.073 34.6656 905.116 36.461 903.727 37.9692C903.416 38.3044 903.224 38.8071 903.057 39.262C902.794 40.0281 903.129 40.6984 903.895 41.0096C904.182 41.1293 904.517 41.1772 904.828 41.2251C905.427 41.2729 906.049 41.2969 906.648 41.3687C907.653 41.4884 908.587 41.2011 909.521 40.9138C909.784 40.842 910.047 40.6505 910.191 40.435C910.694 39.7168 911.268 39.0465 911.484 38.1608C911.627 37.5862 911.891 37.0356 912.082 36.461C912.441 35.3838 912.992 34.3543 913.016 33.2292ZM925.417 30.0931C924.267 32.6546 923.597 35.3838 922.735 38.0411C922.328 39.3099 922.783 40.5787 923.837 41.3447C924.076 41.5123 924.291 41.656 924.531 41.8235C925.632 42.5657 925.848 43.4275 925.393 44.7442C925.034 45.7497 924.794 46.827 924.459 47.8564C924.172 48.7182 923.884 49.604 923.525 50.4658C923.047 51.591 922.161 51.8543 921.084 51.9979C919.049 52.2852 917.038 51.8782 915.027 51.8543C913.806 51.8304 913.159 51.0164 913.183 49.8194C913.207 49.4364 913.231 49.0533 913.088 48.6943C912.633 47.4733 911.532 46.7073 910.167 46.7073C909.904 46.7073 909.616 46.7791 909.353 46.7791C909.09 46.7791 908.802 46.7073 908.539 46.6833C908.539 46.6594 908.539 46.6354 908.539 46.5876C907.39 46.5876 906.241 46.6115 905.092 46.5876C902.722 46.5636 900.376 46.4679 898.006 46.4918C896.88 46.5157 895.707 46.42 894.678 47.0903C894.199 47.4015 893.744 47.6648 893.529 48.2155C893.361 48.6703 893.026 49.0773 892.859 49.5321C892.332 50.8249 891.255 51.2319 890.01 51.4713C889.914 51.4713 889.794 51.4713 889.675 51.4713C888.095 51.4952 886.491 51.5431 884.911 51.5191C883.283 51.4713 882.756 50.7052 883.331 49.1252C883.761 47.9521 884.216 46.7551 884.671 45.5821C884.958 44.8878 885.294 44.1936 885.605 43.4993C885.988 42.6614 886.562 42.039 887.496 41.8475C887.711 41.7996 887.903 41.632 888.118 41.6081C890.321 41.2251 891.805 39.7408 893.218 38.2086C895.516 35.7189 897.287 32.894 898.676 29.8297C898.939 29.2312 899.298 28.6806 899.562 28.0821C899.993 27.1245 900.735 26.6936 901.74 26.5739C902.65 26.4782 903.584 26.3585 904.517 26.3585C905.499 26.3824 906.48 26.4782 907.462 26.2148C907.965 26.0951 908.563 26.2388 909.09 26.3345C910.191 26.526 911.244 26.143 912.345 26.2148C913.399 26.3106 914.524 26.1669 915.601 26.0951C917.684 25.9515 919.767 26.0233 921.85 26.0472C922.783 26.0712 923.717 25.9276 924.651 26.0472C925.776 26.1909 926.326 26.8133 926.087 27.9145C925.943 28.6567 925.728 29.3988 925.417 30.0931ZM932.075 40.0759C932.865 40.0759 933.583 40.1478 934.301 40.0759C935.378 39.9323 936.216 40.435 937.006 41.0335C937.222 41.2011 937.413 41.3926 937.605 41.6081C938.778 42.9727 940.31 43.3317 942.034 43.2121C942.824 43.1642 943.59 43.0445 944.284 42.7333C944.954 42.422 945.672 42.1587 945.601 41.1054C945.553 40.1956 945.481 39.7887 944.691 39.4535C943.925 39.1423 943.135 38.9747 942.321 38.855C941.076 38.6635 940.549 37.7059 941.028 36.5568C941.291 35.9344 941.651 35.5035 942.441 35.3598C943.183 35.2162 943.925 35.1204 944.691 35.1444C945.696 35.1683 946.654 35.0247 947.516 34.4022C947.995 34.0431 948.066 33.6122 947.995 33.1095C947.947 32.6307 947.707 32.3195 947.229 32.1519C945.96 31.6252 944.667 31.6252 943.35 31.8885C942.465 32.0561 941.722 32.5589 941.076 33.1095C940.19 33.8755 939.233 34.1868 938.084 34.1389C936.647 34.091 935.211 34.1389 933.798 34.1389C933.343 34.1389 932.936 34.1149 932.506 33.9474C931.38 33.5643 931.404 33.1095 931.74 32.1758C931.979 31.5055 932.53 31.0267 933.08 30.5479C934.325 29.4946 935.809 28.944 937.341 28.4652C939.185 27.9145 941.052 27.6033 942.991 27.4836C944.547 27.3879 946.103 27.34 947.707 27.4118C950.245 27.5315 951.777 27.6752 953.812 28.1539C954.841 28.3933 955.727 28.944 956.685 29.3509C957.475 29.6622 958.097 30.5 958.289 31.3379C958.456 32.1519 958.648 33.0377 958.001 33.8755C957.57 34.4262 957.307 35.0965 956.613 35.4316C955.895 35.7907 955.871 36.6047 955.583 37.2511C955.512 37.3947 955.655 37.658 955.727 37.8495C955.967 38.6396 956.35 39.3577 956.589 40.1478C956.948 41.3208 956.709 42.2784 956.062 43.236C955.033 44.7442 953.549 45.5821 951.921 46.2524C949.311 47.3297 946.558 47.7127 943.757 47.8085C942.991 47.8324 942.273 48 941.483 47.9761C938.921 47.8324 936.36 47.6888 933.846 47.0663C932.506 46.7312 931.285 46.1088 930.016 45.606C929.633 45.4384 929.322 45.0554 929.034 44.7203C928.651 44.2654 928.316 43.7627 927.933 43.2839C927.622 42.9248 927.55 42.5657 927.55 42.0869C927.574 40.7941 928.125 40.0999 929.393 40.0759C930.303 40.0281 931.237 39.8605 932.075 40.0759ZM968.382 47.9761C967.616 47.9761 966.85 47.9761 966.084 47.9761C965.701 47.9761 965.294 47.9761 964.935 47.9042C963.93 47.7127 963.427 47.0185 963.618 46.013C963.714 45.4145 963.906 44.84 964.121 44.2893C964.935 42.3742 965.629 40.4111 966.156 38.4002C966.467 37.2032 965.965 36.3174 964.815 36.078C964.121 35.9583 963.403 35.7668 962.709 35.8147C961.943 35.8386 961.296 35.5992 960.626 35.4316C960.099 35.3119 959.812 34.881 959.884 34.3304C959.98 33.2292 960.913 31.7688 962.23 31.7449C963.044 31.7449 963.81 31.2901 964.648 31.5534C966.324 31.1225 968.071 31.0028 969.603 30.0212C970.274 29.5903 971.016 29.2073 971.638 28.7285C972.141 28.3455 972.692 28.1061 973.29 28.0103C975.133 27.7709 976.977 27.6991 978.844 28.0342C979.802 28.2258 980.257 28.8961 979.993 29.8058C979.658 31.0507 979.299 32.2955 978.701 33.4207C978.413 33.9713 978.461 34.5937 978.174 35.1444C977.384 36.5807 977.264 38.2805 976.354 39.6929C975.9 41.6799 974.966 43.4993 974.367 45.4145C974.272 45.7257 974.104 46.013 973.96 46.3003C973.386 47.4494 972.356 47.8803 971.183 47.9521C970.25 48.0239 969.316 47.9521 968.382 47.9521V47.9761ZM990.008 47.9761C989.242 47.9761 988.476 47.9761 987.71 47.9761C987.326 47.9761 986.92 47.9761 986.56 47.9042C985.555 47.7127 985.052 47.0185 985.244 46.013C985.339 45.4145 985.531 44.84 985.746 44.2893C986.56 42.3742 987.255 40.4111 987.781 38.4002C988.093 37.2032 987.59 36.3174 986.441 36.078C985.746 35.9583 985.028 35.7668 984.334 35.8147C983.568 35.8386 982.922 35.5992 982.251 35.4316C981.725 35.3119 981.437 34.881 981.509 34.3304C981.605 33.2292 982.539 31.7688 983.855 31.7449C984.669 31.7449 985.435 31.2901 986.273 31.5534C987.949 31.1225 989.697 31.0028 991.229 30.0212C991.899 29.5903 992.641 29.2073 993.264 28.7285C993.766 28.3455 994.317 28.1061 994.915 28.0103C996.759 27.7709 998.602 27.6991 1000.47 28.0342C1001.43 28.2258 1001.88 28.8961 1001.62 29.8058C1001.28 31.0507 1000.92 32.2955 1000.33 33.4207C1000.04 33.9713 1000.09 34.5937 999.799 35.1444C999.009 36.5807 998.889 38.2805 997.98 39.6929C997.525 41.6799 996.591 43.4993 995.993 45.4145C995.897 45.7257 995.729 46.013 995.586 46.3003C995.011 47.4494 993.982 47.8803 992.809 47.9521C991.875 48.0239 990.941 47.9521 990.008 47.9521V47.9761ZM1031.76 26.7654C1032.91 26.6936 1034.06 26.6697 1035.21 26.8612C1036.45 27.0767 1036.88 27.747 1036.6 28.92C1036.48 29.3988 1036.31 29.8776 1036.16 30.3325C1036.07 30.6437 1035.95 30.9788 1035.95 31.2901C1035.9 32.918 1036.62 33.8037 1038.25 33.8995C1039.92 33.9713 1041.62 34.0192 1043.3 33.7319C1044.45 33.5165 1045.21 32.918 1045.72 31.9364C1046.22 30.931 1046.77 29.9015 1047.2 28.8482C1047.73 27.5076 1048.83 27.0767 1050.07 27.1006C1051.65 27.1245 1053.23 27.0288 1054.81 27.2682C1055.7 27.3879 1056.66 27.34 1057.59 27.4597C1058.5 27.5555 1058.84 28.0342 1058.62 28.944C1058.36 30.0931 1057.95 31.2182 1057.35 32.2716C1056.87 33.1334 1056.68 34.091 1056.27 35.0007C1055.01 37.7298 1053.86 40.4829 1052.75 43.2839C1052.42 44.0978 1052.04 44.8639 1051.7 45.6778C1051.17 47.0185 1050 47.3297 1048.78 47.3297C1047.73 47.3297 1046.7 47.4015 1045.67 47.4494C1044.33 47.4733 1042.96 47.4494 1041.62 47.2339C1041.19 47.1621 1040.98 46.8509 1040.93 46.42C1040.86 45.9172 1040.95 45.4384 1041.1 44.9597C1041.38 43.9542 1041.58 42.9248 1041.93 41.9672C1042.2 41.2251 1041.96 40.6744 1041.58 40.1238C1041.19 39.5971 1040.64 39.3099 1040.04 39.2859C1038.61 39.2381 1037.17 39.1902 1035.76 39.3338C1034.08 39.5014 1032.91 40.3393 1032.45 42.0869C1032.14 43.2839 1031.71 44.4809 1031.28 45.6539C1031.02 46.3003 1030.71 46.8988 1030.11 47.3536C1029.63 47.7127 1029.2 47.8564 1028.62 47.9042C1026.47 48.0239 1024.34 47.9521 1022.21 47.9521C1021.99 47.9521 1021.75 47.9521 1021.54 47.9282C1020.82 47.8564 1020.44 47.4973 1020.34 46.7791C1020.32 46.4679 1020.29 46.1088 1020.41 45.8215C1021.06 43.9063 1021.78 42.0151 1022.45 40.1238C1022.73 39.2859 1023.14 38.472 1023.24 37.6341C1023.36 36.6765 1023.84 35.8865 1024.03 34.9768C1024.39 33.3728 1024.98 31.8167 1025.46 30.2606C1025.58 29.8297 1025.82 29.4467 1025.89 29.0397C1026.25 27.34 1027.74 26.8373 1029.29 26.7654C1030.11 26.7415 1030.95 26.7654 1031.76 26.7654ZM1081.15 34.0192C1081.58 33.2292 1080.53 32.8701 1080.22 32.2955C1080.08 32.0561 1079.88 31.8407 1079.6 31.7688C1078.88 31.5295 1078.14 31.1464 1077.42 31.1464C1076.84 31.1464 1076.22 31.2182 1075.65 31.3858C1074.88 31.6013 1074.55 31.9604 1074.5 32.6067C1074.45 33.3249 1074.98 33.5883 1075.5 33.7558C1076.68 34.1628 1077.92 34.4262 1079.33 34.5698C1079.86 34.3783 1080.82 34.6416 1081.15 34.0192ZM1091.47 31.1464C1092.12 32.0801 1091.64 33.1334 1090.51 33.3968C1090.25 33.4686 1089.96 33.5883 1089.72 33.5404C1088.69 33.301 1087.67 33.5643 1086.64 33.5404C1085.63 33.5165 1084.58 33.5404 1083.64 34.0431C1083.24 34.2825 1083.16 34.6895 1083.5 34.9528C1083.79 35.1444 1084.07 35.3119 1084.36 35.4556C1085.85 36.1498 1087.26 36.9877 1088.53 38.0411C1089.6 38.9268 1090.04 40.0759 1090.13 41.3687C1090.18 42.039 1089.99 42.6854 1089.56 43.2121C1088.91 44.0739 1088.19 44.8639 1087.19 45.3906C1086.11 45.9412 1085.01 46.396 1083.81 46.6354C1083.76 46.6354 1083.69 46.6354 1083.64 46.6594C1082.45 47.2579 1081.11 47.21 1079.84 47.4015C1077.85 47.7127 1075.84 47.9282 1073.83 47.8564C1073.06 47.8324 1072.3 47.9042 1071.53 47.8803C1070.81 47.8564 1070.12 47.9282 1069.45 47.617C1068.68 48 1067.94 47.5691 1067.2 47.5691C1065.95 47.5451 1064.87 46.9945 1063.7 46.7073C1062.31 46.3482 1061.26 45.5103 1060.25 44.5527C1059.97 44.2893 1059.73 43.9781 1059.56 43.643C1058.96 42.5417 1059.34 41.632 1060.54 41.2251C1061.07 41.0335 1061.59 40.9378 1062.15 40.9378C1064.08 40.9617 1066 40.7223 1067.89 40.3632C1068.18 40.3153 1068.42 40.3632 1068.66 40.5547C1069.02 40.866 1069.47 41.1293 1069.76 41.5123C1070.48 42.4699 1071.55 42.7333 1072.54 43.1642C1072.75 43.2599 1072.94 43.2121 1073.18 43.1402C1073.71 42.9966 1074.24 42.9966 1074.79 43.1402C1075.5 43.3078 1076.2 42.9966 1076.84 42.7333C1077.28 42.5657 1077.54 42.2066 1077.71 41.7757C1077.9 41.3447 1077.8 40.8899 1077.42 40.5787C1077.04 40.2914 1076.63 39.9323 1076.17 39.8365C1074.57 39.4774 1073.01 38.9029 1071.34 38.9987C1070.96 39.0226 1070.57 39.0465 1070.17 39.0465C1069.57 39.0465 1068.94 39.0465 1068.39 38.7593C1067.12 38.0889 1065.81 37.5383 1064.64 36.7244C1062.7 35.4316 1062.22 32.894 1063.51 30.9549C1064.32 29.7579 1065.45 29.0397 1066.67 28.3933C1068.49 27.4358 1070.45 27.1485 1072.44 26.7654C1074.19 26.4303 1075.91 26.6218 1077.66 26.4782C1078.57 26.4063 1079.5 26.6218 1080.44 26.7415C1080.87 26.8133 1081.3 26.8612 1081.75 26.7894C1082.02 26.7415 1082.3 26.7415 1082.57 26.8133C1084.31 27.2682 1086.09 27.6512 1087.78 28.2258C1089.34 28.7285 1090.56 29.8058 1091.47 31.1464ZM1111.88 42.0629C1113.92 42.1587 1115.71 42.2305 1117.51 42.3023C1118.87 42.3502 1120.26 42.3742 1121.63 42.3742C1122.13 42.3742 1122.61 42.4939 1123.04 42.7572C1123.88 43.3078 1123.97 43.6669 1123.83 44.6963C1123.73 45.3906 1123.35 45.9172 1123.11 46.5397C1122.94 46.9706 1122.54 47.3057 1122.01 47.4254C1120.76 47.7127 1119.54 48 1118.28 47.8085C1118.06 47.7606 1117.84 47.7367 1117.63 47.7367C1115.55 47.7127 1113.44 47.7127 1111.36 47.7127C1109.73 47.6888 1108.05 47.7845 1106.43 47.6409C1103.65 47.4015 1100.85 47.4254 1098.07 47.2818C1096.66 47.186 1095.25 47.0663 1093.81 47.0185C1092.78 46.9945 1092.25 46.3242 1092.3 45.2948C1092.35 44.5766 1092.52 43.9302 1092.78 43.236C1093.21 42.0151 1093.67 40.7702 1094.07 39.5253C1094.84 37.1553 1095.84 34.8571 1096.73 32.5349C1097.09 31.5534 1097.54 30.6197 1097.95 29.6861C1098.14 29.2312 1098.33 28.7764 1098.55 28.3215C1099.22 26.9809 1100.39 26.4782 1101.78 26.4782C1103 26.4782 1104.2 26.55 1105.4 26.3106C1105.56 26.2627 1105.75 26.2627 1105.87 26.3345C1106.59 26.6218 1107.33 26.4782 1108.01 26.4063C1109.2 26.3106 1110.4 26.2866 1111.57 26.3585C1112.51 26.4303 1113.37 26.0951 1114.33 26.2627C1115.21 26.4303 1116.14 26.3106 1117.08 26.2148C1117.89 26.1191 1118.71 26.3106 1119.52 26.2627C1121.48 26.143 1123.45 26.2388 1125.41 26.1909C1126.13 26.1669 1126.7 26.4303 1127.35 26.5979C1127.78 26.6936 1128.16 27.1964 1128.04 27.5794C1127.78 28.513 1127.9 29.5185 1127.13 30.3325C1126.65 30.8352 1126.22 31.2901 1125.53 31.3379C1124.09 31.4576 1122.73 31.9364 1121.27 31.6731C1120.74 31.5773 1120.19 31.5534 1119.64 31.697C1119.16 31.8167 1118.63 31.7928 1118.16 31.6731C1117.51 31.5055 1116.84 31.4816 1116.19 31.5295C1114.78 31.6731 1113.37 31.6013 1111.96 31.5055C1111.21 31.4576 1110.54 31.6731 1109.85 31.8885C1109.56 31.9604 1109.42 32.2237 1109.39 32.511C1109.37 32.7504 1109.54 32.918 1109.7 33.0377C1110.09 33.2771 1110.49 33.4686 1110.95 33.4686C1111.76 33.4925 1112.6 33.5643 1113.42 33.5643C1114.52 33.5883 1115.59 33.5883 1116.7 33.684C1118.16 33.7798 1119.64 33.7319 1121.12 33.7558C1121.6 33.7558 1122.11 33.7558 1122.61 33.8037C1123.47 33.8516 1124.12 34.3783 1124.28 35.1204C1124.4 35.5992 1124.43 36.2216 1124.31 36.7244C1124.09 37.682 1123.57 38.5199 1122.73 39.1423C1122.58 39.2381 1122.35 39.3099 1122.13 39.3099C1120.98 39.3577 1119.83 39.4774 1118.71 39.3577C1117.72 39.2381 1116.77 39.3099 1115.81 39.1902C1114.88 39.0944 1113.94 39.0944 1113.01 39.0705C1112.03 39.0705 1111.02 39.1902 1110.04 39.0705C1109.03 38.9508 1108.08 38.9987 1107.14 39.262C1106.43 39.4774 1106.14 39.9323 1106.35 40.6266C1106.5 41.249 1106.76 41.7278 1107.53 41.7996C1108.29 41.8475 1109.03 42.1108 1109.8 42.0629C1110.57 42.0151 1111.33 42.0629 1111.88 42.0629ZM1168.2 38.472C1168.37 38.065 1168.25 37.7538 1167.96 37.4426C1167.17 36.485 1166.79 36.4371 1165.76 37.0835C1165.21 37.4426 1164.95 37.9692 1164.71 38.5199C1164.45 39.0944 1164.9 39.8844 1165.52 40.0759C1165.79 40.1238 1166.07 40.1238 1166.34 40.1478C1167.03 40.2196 1167.51 39.9802 1167.82 39.3817C1167.96 39.0944 1168.08 38.7832 1168.2 38.472ZM1180.63 44.816C1180.96 45.606 1180.75 46.3482 1180.48 47.0424C1180.27 47.6409 1179.65 47.8564 1178.98 47.8564C1178 47.8564 1177.01 47.8564 1176.03 47.8564C1176.03 47.8324 1176.03 47.8085 1176.03 47.7606C1174.81 47.7606 1173.61 47.7845 1172.39 47.7606C1171.34 47.7606 1170.5 47.3297 1169.88 46.4439C1169.16 45.3666 1168.08 44.9118 1166.79 44.9357C1164.88 44.9597 1162.94 44.9357 1161.02 44.9357C1159.54 44.9597 1158.2 45.3666 1157.1 46.396C1156.86 46.6115 1156.59 46.827 1156.33 46.9945C1155.47 47.4973 1154.63 47.8564 1153.58 47.9042C1151.49 48 1149.41 47.8803 1147.33 47.9042C1146.8 47.9042 1146.16 48 1145.84 47.4015C1145.53 46.7073 1146.06 46.2763 1146.42 45.7975C1147.18 44.7921 1148.17 44.0021 1149.05 43.1163C1152.52 39.5971 1156.07 36.1498 1159.56 32.6546C1160.81 31.4098 1162.05 30.1649 1163.27 28.8961C1164.4 27.723 1165.79 27.2203 1167.39 27.2921C1168.44 27.34 1169.47 27.3639 1170.53 27.1724C1170.67 27.1485 1170.86 27.0527 1171 27.1006C1172.01 27.4597 1173.06 27.3161 1174.12 27.3161C1175.15 27.3161 1175.67 27.8188 1176.08 28.7285C1176.65 29.9973 1176.87 31.3619 1177.21 32.6786C1177.44 33.5643 1177.73 34.4501 1177.97 35.3359C1178.43 36.9877 1178.81 38.6396 1179.26 40.2435C1179.69 41.7757 1180.03 43.3557 1180.63 44.816ZM1205.25 35.1444C1205.82 34.9289 1206.18 33.9952 1205.89 33.4686C1205.56 32.8701 1205.22 32.1998 1204.38 32.0801C1204.03 32.0322 1203.64 31.9125 1203.26 31.8646C1202.47 31.721 1201.63 31.8407 1200.87 31.6492C1199.79 31.3858 1198.78 31.6731 1197.8 31.9125C1197.01 32.0801 1196.46 32.9419 1196.44 33.7558C1196.41 34.6656 1196.7 35.0965 1197.68 35.4556C1198.04 35.5992 1198.42 35.671 1198.78 35.7189C1199.55 35.7668 1200.31 35.9104 1201.08 35.7428C1201.75 35.7428 1202.4 35.695 1203.07 35.7428C1203.88 35.8147 1204.55 35.4077 1205.25 35.1444ZM1217.5 30.4282C1219.16 32.5828 1218.65 34.6177 1216.69 36.3413C1216.19 36.7962 1215.61 37.2511 1214.89 37.4905C1214.51 37.6341 1214.15 37.9692 1213.84 38.2805C1213.36 38.7832 1213.17 39.3817 1213.31 40.0999C1213.46 40.7223 1213.53 41.3926 1213.74 42.0151C1214.03 42.8769 1214.03 43.7387 1213.89 44.6245C1213.82 45.0554 1213.84 45.4863 1213.84 45.9412C1213.84 47.186 1213.41 47.7127 1212.16 47.9042C1211.95 47.9521 1211.73 47.9521 1211.52 48C1211.47 48 1211.4 48.0239 1211.35 48C1210.49 47.5212 1209.56 47.9761 1208.67 47.7845C1207.76 47.5691 1206.83 47.7606 1205.89 47.4973C1205.37 47.3536 1204.72 47.5451 1204.12 47.4015C1203.4 47.21 1202.95 46.803 1202.73 46.1327C1202.52 45.5581 1202.33 44.9836 1202.45 44.3612C1202.64 43.3078 1202.04 42.4699 1201.68 41.5602C1201.58 41.3926 1201.39 41.2251 1201.22 41.1293C1199.26 39.9562 1197.15 39.8365 1194.98 40.2196C1194.07 40.3632 1193.49 41.0575 1193.06 41.8714C1192.53 42.7811 1192.22 43.7866 1191.94 44.7681C1191.74 45.3906 1191.41 45.8694 1191.1 46.3721C1190.79 46.8748 1190.26 47.2579 1189.49 47.3536C1188.15 47.5212 1186.81 47.593 1185.45 47.617C1184.59 47.617 1183.7 47.7127 1182.81 47.7367C1181.76 47.7606 1181.09 47.0663 1181.4 46.0848C1181.71 45.0794 1181.88 44.0739 1182.26 43.1163C1182.84 41.632 1183.27 40.0759 1183.72 38.5677C1184.47 36.2216 1185.16 33.8516 1185.93 31.5295C1186.26 30.4761 1186.5 29.4228 1186.96 28.4173C1187.22 27.8667 1187.7 27.6273 1187.91 27.1006C1187.99 26.933 1188.15 26.9091 1188.32 26.933C1188.61 26.9809 1188.87 26.9809 1189.11 26.8133C1189.61 26.4782 1190.14 26.6457 1190.69 26.6457C1191.72 26.6218 1192.73 27.0288 1193.76 26.6218C1193.99 26.55 1194.28 26.6457 1194.57 26.6697C1195.65 26.8133 1196.75 26.933 1197.82 26.8133C1198.21 26.7894 1198.61 26.7894 1199 26.8373C1201.2 27.1485 1203.45 26.8851 1205.65 27.3639C1207.71 26.8612 1209.65 27.8906 1211.66 27.747C1212.98 28.13 1214.37 28.2258 1215.59 28.8721C1216.33 29.2552 1217 29.7819 1217.5 30.4282ZM1244.72 32.4392C1243.78 32.4392 1242.85 32.4152 1241.92 32.4392C1240.38 32.487 1239.31 33.1813 1238.73 34.6177C1238.11 36.1977 1237.44 37.7538 1236.91 39.3577C1236.46 40.866 1235.81 42.3263 1235.24 43.8105C1234.95 44.6245 1234.76 45.4863 1234.28 46.2524C1233.78 47.0185 1233.27 47.5212 1232.27 47.6888C1231.02 47.9042 1229.8 48 1228.56 47.8085C1228.25 47.7606 1228.03 47.8803 1227.77 47.9042C1227 47.9521 1226.24 48 1225.47 47.9761C1224.32 47.9761 1223.77 47.3776 1223.77 46.2285C1223.79 45.9651 1223.84 45.6778 1223.94 45.4384C1224.3 44.3612 1224.65 43.2839 1225.06 42.2305C1225.42 41.2011 1225.85 40.1956 1226.21 39.1423C1226.57 38.1129 1226.76 37.0356 1227.19 36.0301C1227.48 35.3838 1227.38 34.7613 1227.36 34.1149C1227.34 33.3728 1226.91 32.9658 1226.28 32.8222C1225.21 32.5828 1224.13 32.3434 1223.03 32.6067C1222.09 32.8461 1221.16 32.6546 1220.25 32.4631C1219.75 32.3673 1219.51 32.0561 1219.44 31.5534C1219.29 30.0931 1219.89 28.92 1220.92 27.9385C1221.28 27.6273 1221.64 27.4358 1222.09 27.4597C1223.94 27.4836 1225.78 27.0527 1227.62 27.3639C1229.08 26.9809 1230.54 27.2921 1232 27.2442C1233.32 27.1964 1234.61 27.0288 1235.93 27.2682C1236.84 26.9809 1237.8 27.0527 1238.71 27.1724C1240.02 27.3161 1241.32 27.0288 1242.63 27.1485C1243.54 27.2442 1244.45 27.4118 1245.39 27.1724C1246.06 26.9809 1246.75 27.4358 1247.49 27.3639C1248.21 27.2921 1248.93 27.4118 1249.65 27.4836C1250.39 27.5555 1250.85 28.0342 1250.77 28.8003C1250.68 29.8058 1250.34 30.7394 1249.7 31.5055C1249.24 32.0322 1248.64 32.4631 1247.85 32.4152C1246.8 32.3913 1245.77 32.4152 1244.72 32.4152V32.4392ZM1290.87 38.472C1291.04 38.065 1290.92 37.7538 1290.63 37.4426C1289.84 36.485 1289.46 36.4371 1288.43 37.0835C1287.88 37.4426 1287.62 37.9692 1287.38 38.5199C1287.11 39.0944 1287.57 39.8844 1288.19 40.0759C1288.45 40.1238 1288.74 40.1238 1289 40.1478C1289.7 40.2196 1290.18 39.9802 1290.49 39.3817C1290.63 39.0944 1290.75 38.7832 1290.87 38.472ZM1303.3 44.816C1303.63 45.606 1303.42 46.3482 1303.15 47.0424C1302.94 47.6409 1302.31 47.8564 1301.64 47.8564C1300.66 47.8564 1299.68 47.8564 1298.7 47.8564C1298.7 47.8324 1298.7 47.8085 1298.7 47.7606C1297.48 47.7606 1296.28 47.7845 1295.06 47.7606C1294.01 47.7606 1293.17 47.3297 1292.55 46.4439C1291.83 45.3666 1290.75 44.9118 1289.46 44.9357C1287.54 44.9597 1285.6 44.9357 1283.69 44.9357C1282.21 44.9597 1280.86 45.3666 1279.76 46.396C1279.52 46.6115 1279.26 46.827 1279 46.9945C1278.14 47.4973 1277.3 47.8564 1276.24 47.9042C1274.16 48 1272.08 47.8803 1270 47.9042C1269.47 47.9042 1268.82 48 1268.51 47.4015C1268.2 46.7073 1268.73 46.2763 1269.09 45.7975C1269.85 44.7921 1270.83 44.0021 1271.72 43.1163C1275.19 39.5971 1278.73 36.1498 1282.23 32.6546C1283.47 31.4098 1284.72 30.1649 1285.94 28.8961C1287.06 27.723 1288.45 27.2203 1290.06 27.2921C1291.11 27.34 1292.14 27.3639 1293.19 27.1724C1293.34 27.1485 1293.53 27.0527 1293.67 27.1006C1294.68 27.4597 1295.73 27.3161 1296.78 27.3161C1297.81 27.3161 1298.34 27.8188 1298.75 28.7285C1299.32 29.9973 1299.54 31.3619 1299.87 32.6786C1300.11 33.5643 1300.4 34.4501 1300.64 35.3359C1301.09 36.9877 1301.48 38.6396 1301.93 40.2435C1302.36 41.7757 1302.7 43.3557 1303.3 44.816ZM1332.13 47.9042C1331.05 47.7127 1329.93 48 1328.87 47.5691C1327.89 48 1326.93 47.5691 1325.95 47.5212C1325.35 47.4973 1324.95 47.21 1324.56 46.7551C1323.27 45.2469 1322.31 43.5233 1321.33 41.8235C1320.71 40.7702 1319.89 39.8844 1319.18 38.9268C1318.82 38.4241 1318.05 38.2805 1317.55 38.6156C1317.09 38.9029 1316.66 39.1662 1316.4 39.7408C1315.68 41.4644 1315.01 43.1881 1314.44 44.9597C1314.17 45.7975 1313.62 46.4439 1313 46.8988C1312.47 47.2818 1311.66 47.3536 1310.96 47.3776C1310.1 47.3776 1309.22 47.4254 1308.33 47.3536C1307.49 47.3057 1306.61 47.4494 1305.75 47.4494C1304.33 47.4494 1303.76 46.7551 1304.05 45.3906C1304.36 43.8584 1305 42.3981 1305.48 40.8899C1305.99 39.3817 1306.56 37.8974 1307.09 36.4132C1307.97 33.9474 1308.86 31.4576 1309.72 28.9918C1309.98 28.2976 1310.53 27.8188 1310.94 27.2442C1310.99 27.1724 1311.11 27.0527 1311.18 27.0527C1312.02 27.0767 1312.76 26.4303 1313.57 26.6936C1314.34 26.933 1315.11 26.4303 1315.82 26.8373C1316.83 26.3345 1317.88 26.7894 1318.91 26.6936C1319.58 26.6218 1320.3 26.8851 1320.97 27.0767C1321.38 27.2203 1321.81 27.4118 1322.05 27.8188C1322.5 28.6327 1323.25 29.2552 1323.63 30.117C1323.8 30.4522 1324.11 30.7155 1324.35 31.0267C1324.51 31.2422 1324.73 31.4576 1324.8 31.697C1325.09 33.0616 1326.17 33.9234 1326.86 35.0486C1327.12 35.4556 1328.49 35.8625 1328.94 35.695C1329.21 35.5992 1329.42 35.4316 1329.54 35.1683C1330.02 34.2586 1330.52 33.3489 1330.83 32.3434C1331.19 31.1943 1331.58 30.0452 1332.03 28.92C1332.44 27.9385 1333.35 27.5076 1334.33 27.2442C1334.55 27.1964 1334.78 27.2921 1335 27.2442C1335.86 27.1006 1336.72 27.5555 1337.59 27.3161C1338.4 27.0767 1339.24 27.3879 1340.05 27.34C1340.67 27.2921 1341.34 27.5076 1341.97 27.6991C1342.69 27.9145 1342.97 28.3455 1342.88 29.0637C1342.8 29.5425 1342.61 29.9973 1342.45 30.4761C1341.7 32.5589 1340.96 34.6656 1340.2 36.7723C1339.45 38.7593 1338.83 40.7702 1337.9 42.6854C1338.02 43.6669 1337.23 44.3851 1337.08 45.3187C1336.99 45.9172 1336.53 46.5157 1336.13 47.0185C1335.62 47.6888 1334.83 47.9761 1334.09 47.8803C1333.42 47.8085 1332.77 47.9282 1332.13 47.9042ZM1369.08 37.1074C1369.46 35.5274 1368.75 33.8995 1367.29 33.3489C1365.75 32.7743 1364.13 32.4631 1362.47 32.4392C1359.98 32.4392 1358.91 33.2052 1358.07 35.5513C1357.76 36.4132 1357.42 37.275 1357.11 38.1608C1356.92 38.7114 1356.82 39.3338 1356.61 39.8844C1356.25 40.7223 1356.73 41.3687 1357.04 42.039C1357.28 42.5657 1357.85 42.4939 1358.33 42.5657C1358.71 42.6136 1359.1 42.7093 1359.39 42.7811C1360.08 42.6854 1360.65 42.5657 1361.28 42.5657C1362.38 42.5417 1363.43 42.3263 1364.48 41.9193C1366.78 41.0335 1368.48 39.6211 1369.08 37.1074ZM1379.49 32.2237C1380.05 33.2771 1380.19 34.4501 1380.05 35.7189C1379.85 37.4186 1379.3 38.9029 1378.35 40.2675C1377.91 40.866 1377.41 41.4405 1376.89 41.9432C1376.29 42.5178 1375.66 43.0445 1374.99 43.4993C1373.68 44.3851 1372.31 45.1751 1370.83 45.7975C1369.34 46.42 1367.79 46.7073 1366.26 47.0903C1364.41 47.5451 1362.47 47.5451 1360.58 47.7845C1359.1 47.9521 1357.61 47.7606 1356.15 47.9521C1354.96 47.7606 1353.81 48 1352.66 47.9521C1351.01 47.8803 1349.38 47.9042 1347.73 47.9042C1346.89 47.9042 1346.07 47.8324 1345.26 47.8085C1344.81 47.8085 1344.38 47.7606 1343.97 47.593C1343.39 47.3536 1343.08 46.9467 1343.08 46.3242C1343.08 45.8454 1343.08 45.3427 1343.25 44.8639C1343.92 42.9487 1344.61 41.0575 1345.26 39.1423C1346.07 36.7723 1346.77 34.3783 1347.68 32.0322C1348.13 30.8113 1348.44 29.5425 1349.07 28.3694C1349.74 27.1245 1350.77 26.8612 1351.92 26.8851C1352.51 26.8851 1353.11 26.933 1353.71 26.933C1354.93 26.957 1356.13 26.933 1357.35 27.0527C1357.97 27.1006 1358.64 27.2682 1359.29 27.0527C1359.6 26.957 1359.98 26.933 1360.27 27.0288C1361.3 27.3879 1362.35 27.2203 1363.38 27.2203C1365.08 27.2682 1366.81 27.1245 1368.48 27.3879C1370.54 27.6991 1372.65 27.7709 1374.59 28.6088C1375.35 28.92 1376.17 29.1355 1376.86 29.5664C1377.94 30.2367 1378.92 31.1225 1379.49 32.2237ZM1423.53 37.1074C1423.91 35.5274 1423.19 33.8995 1421.73 33.3489C1420.2 32.7743 1418.57 32.4631 1416.92 32.4392C1414.43 32.4392 1413.36 33.2052 1412.52 35.5513C1412.21 36.4132 1411.87 37.275 1411.56 38.1608C1411.37 38.7114 1411.27 39.3338 1411.06 39.8844C1410.7 40.7223 1411.18 41.3687 1411.49 42.039C1411.73 42.5657 1412.3 42.4939 1412.78 42.5657C1413.16 42.6136 1413.55 42.7093 1413.83 42.7811C1414.53 42.6854 1415.1 42.5657 1415.73 42.5657C1416.83 42.5417 1417.88 42.3263 1418.93 41.9193C1421.23 41.0335 1422.93 39.6211 1423.53 37.1074ZM1433.94 32.2237C1434.49 33.2771 1434.64 34.4501 1434.49 35.7189C1434.3 37.4186 1433.75 38.9029 1432.79 40.2675C1432.36 40.866 1431.86 41.4405 1431.33 41.9432C1430.74 42.5178 1430.11 43.0445 1429.44 43.4993C1428.13 44.3851 1426.76 45.1751 1425.28 45.7975C1423.79 46.42 1422.24 46.7073 1420.7 47.0903C1418.86 47.5451 1416.92 47.5451 1415.03 47.7845C1413.55 47.9521 1412.06 47.7606 1410.6 47.9521C1409.41 47.7606 1408.26 48 1407.11 47.9521C1405.46 47.8803 1403.83 47.9042 1402.18 47.9042C1401.34 47.9042 1400.52 47.8324 1399.71 47.8085C1399.25 47.8085 1398.82 47.7606 1398.42 47.593C1397.84 47.3536 1397.53 46.9467 1397.53 46.3242C1397.53 45.8454 1397.53 45.3427 1397.7 44.8639C1398.37 42.9487 1399.06 41.0575 1399.71 39.1423C1400.52 36.7723 1401.22 34.3783 1402.13 32.0322C1402.58 30.8113 1402.89 29.5425 1403.52 28.3694C1404.19 27.1245 1405.22 26.8612 1406.37 26.8851C1406.96 26.8851 1407.56 26.933 1408.16 26.933C1409.38 26.957 1410.58 26.933 1411.8 27.0527C1412.42 27.1006 1413.09 27.2682 1413.74 27.0527C1414.05 26.957 1414.43 26.933 1414.72 27.0288C1415.75 27.3879 1416.8 27.2203 1417.83 27.2203C1419.53 27.2682 1421.26 27.1245 1422.93 27.3879C1424.99 27.6991 1427.1 27.7709 1429.04 28.6088C1429.8 28.92 1430.62 29.1355 1431.31 29.5664C1432.39 30.2367 1433.37 31.1225 1433.94 32.2237ZM1454.38 42.0629C1456.42 42.1587 1458.21 42.2305 1460.01 42.3023C1461.37 42.3502 1462.76 42.3742 1464.12 42.3742C1464.63 42.3742 1465.11 42.4939 1465.54 42.7572C1466.37 43.3078 1466.47 43.6669 1466.33 44.6963C1466.23 45.3906 1465.85 45.9172 1465.61 46.5397C1465.44 46.9706 1465.03 47.3057 1464.51 47.4254C1463.26 47.7127 1462.04 48 1460.77 47.8085C1460.56 47.7606 1460.34 47.7367 1460.13 47.7367C1458.04 47.7127 1455.94 47.7127 1453.85 47.7127C1452.23 47.6888 1450.55 47.7845 1448.92 47.6409C1446.15 47.4015 1443.34 47.4254 1440.57 47.2818C1439.15 47.186 1437.74 47.0663 1436.31 47.0185C1435.28 46.9945 1434.75 46.3242 1434.8 45.2948C1434.85 44.5766 1435.01 43.9302 1435.28 43.236C1435.71 42.0151 1436.16 40.7702 1436.57 39.5253C1437.34 37.1553 1438.34 34.8571 1439.23 32.5349C1439.59 31.5534 1440.04 30.6197 1440.45 29.6861C1440.64 29.2312 1440.83 28.7764 1441.05 28.3215C1441.72 26.9809 1442.89 26.4782 1444.28 26.4782C1445.5 26.4782 1446.7 26.55 1447.89 26.3106C1448.06 26.2627 1448.25 26.2627 1448.37 26.3345C1449.09 26.6218 1449.83 26.4782 1450.5 26.4063C1451.7 26.3106 1452.9 26.2866 1454.07 26.3585C1455 26.4303 1455.86 26.0951 1456.82 26.2627C1457.71 26.4303 1458.64 26.3106 1459.58 26.2148C1460.39 26.1191 1461.2 26.3106 1462.02 26.2627C1463.98 26.143 1465.94 26.2388 1467.91 26.1909C1468.62 26.1669 1469.2 26.4303 1469.85 26.5979C1470.28 26.6936 1470.66 27.1964 1470.54 27.5794C1470.28 28.513 1470.4 29.5185 1469.63 30.3325C1469.15 30.8352 1468.72 31.2901 1468.03 31.3379C1466.59 31.4576 1465.23 31.9364 1463.76 31.6731C1463.24 31.5773 1462.69 31.5534 1462.14 31.697C1461.66 31.8167 1461.13 31.7928 1460.65 31.6731C1460.01 31.5055 1459.34 31.4816 1458.69 31.5295C1457.28 31.6731 1455.86 31.6013 1454.45 31.5055C1453.71 31.4576 1453.04 31.6731 1452.35 31.8885C1452.06 31.9604 1451.91 32.2237 1451.89 32.511C1451.87 32.7504 1452.03 32.918 1452.2 33.0377C1452.59 33.2771 1452.99 33.4686 1453.45 33.4686C1454.26 33.4925 1455.1 33.5643 1455.91 33.5643C1457.01 33.5883 1458.09 33.5883 1459.19 33.684C1460.65 33.7798 1462.14 33.7319 1463.62 33.7558C1464.1 33.7558 1464.6 33.7558 1465.11 33.8037C1465.97 33.8516 1466.61 34.3783 1466.78 35.1204C1466.9 35.5992 1466.93 36.2216 1466.81 36.7244C1466.59 37.682 1466.06 38.5199 1465.23 39.1423C1465.08 39.2381 1464.84 39.3099 1464.63 39.3099C1463.48 39.3577 1462.33 39.4774 1461.2 39.3577C1460.22 39.2381 1459.26 39.3099 1458.31 39.1902C1457.37 39.0944 1456.44 39.0944 1455.51 39.0705C1454.52 39.0705 1453.52 39.1902 1452.54 39.0705C1451.53 38.9508 1450.57 38.9987 1449.64 39.262C1448.92 39.4774 1448.64 39.9323 1448.85 40.6266C1448.99 41.249 1449.26 41.7278 1450.02 41.7996C1450.79 41.8475 1451.53 42.1108 1452.3 42.0629C1453.06 42.0151 1453.83 42.0629 1454.38 42.0629ZM1492.99 34.0192C1493.42 33.2292 1492.37 32.8701 1492.06 32.2955C1491.91 32.0561 1491.72 31.8407 1491.44 31.7688C1490.72 31.5295 1489.98 31.1464 1489.26 31.1464C1488.68 31.1464 1488.06 31.2182 1487.49 31.3858C1486.72 31.6013 1486.38 31.9604 1486.34 32.6067C1486.29 33.3249 1486.82 33.5883 1487.34 33.7558C1488.52 34.1628 1489.76 34.4262 1491.17 34.5698C1491.7 34.3783 1492.66 34.6416 1492.99 34.0192ZM1503.31 31.1464C1503.96 32.0801 1503.48 33.1334 1502.35 33.3968C1502.09 33.4686 1501.8 33.5883 1501.56 33.5404C1500.53 33.301 1499.5 33.5643 1498.47 33.5404C1497.47 33.5165 1496.42 33.5404 1495.48 34.0431C1495.07 34.2825 1495 34.6895 1495.34 34.9528C1495.63 35.1444 1495.91 35.3119 1496.2 35.4556C1497.68 36.1498 1499.1 36.9877 1500.37 38.0411C1501.44 38.9268 1501.87 40.0759 1501.97 41.3687C1502.02 42.039 1501.83 42.6854 1501.4 43.2121C1500.75 44.0739 1500.03 44.8639 1499.03 45.3906C1497.95 45.9412 1496.85 46.396 1495.65 46.6354C1495.6 46.6354 1495.53 46.6354 1495.48 46.6594C1494.28 47.2579 1492.94 47.21 1491.68 47.4015C1489.69 47.7127 1487.68 47.9282 1485.67 47.8564C1484.9 47.8324 1484.13 47.9042 1483.37 47.8803C1482.65 47.8564 1481.96 47.9282 1481.29 47.617C1480.52 48 1479.78 47.5691 1479.04 47.5691C1477.79 47.5451 1476.71 46.9945 1475.54 46.7073C1474.15 46.3482 1473.1 45.5103 1472.09 44.5527C1471.81 44.2893 1471.57 43.9781 1471.4 43.643C1470.8 42.5417 1471.18 41.632 1472.38 41.2251C1472.91 41.0335 1473.43 40.9378 1473.98 40.9378C1475.92 40.9617 1477.84 40.7223 1479.73 40.3632C1480.02 40.3153 1480.26 40.3632 1480.5 40.5547C1480.85 40.866 1481.31 41.1293 1481.6 41.5123C1482.32 42.4699 1483.39 42.7333 1484.37 43.1642C1484.59 43.2599 1484.78 43.2121 1485.02 43.1402C1485.55 42.9966 1486.07 42.9966 1486.62 43.1402C1487.34 43.3078 1488.04 42.9966 1488.68 42.7333C1489.11 42.5657 1489.38 42.2066 1489.54 41.7757C1489.74 41.3447 1489.64 40.8899 1489.26 40.5787C1488.87 40.2914 1488.47 39.9323 1488.01 39.8365C1486.41 39.4774 1484.85 38.9029 1483.18 38.9987C1482.79 39.0226 1482.41 39.0465 1482 39.0465C1481.41 39.0465 1480.78 39.0465 1480.23 38.7593C1478.96 38.0889 1477.65 37.5383 1476.47 36.7244C1474.53 35.4316 1474.06 32.894 1475.35 30.9549C1476.16 29.7579 1477.29 29.0397 1478.51 28.3933C1480.33 27.4358 1482.29 27.1485 1484.28 26.7654C1486.03 26.4303 1487.75 26.6218 1489.5 26.4782C1490.41 26.4063 1491.34 26.6218 1492.27 26.7415C1492.7 26.8133 1493.14 26.8612 1493.59 26.7894C1493.85 26.7415 1494.14 26.7415 1494.4 26.8133C1496.15 27.2682 1497.92 27.6512 1499.62 28.2258C1501.18 28.7285 1502.4 29.8058 1503.31 31.1464ZM1516.28 26.9809C1517.43 27.0767 1518.5 26.7654 1519.6 27.0288C1520.68 27.3161 1521.09 27.7709 1520.94 28.8721C1520.85 29.4228 1520.75 29.9494 1520.56 30.4761C1519.65 33.1095 1518.79 35.7668 1517.88 38.4002C1517.14 40.6266 1516.37 42.829 1515.58 45.0554C1515.46 45.4145 1515.25 45.7497 1515.13 46.1088C1514.72 47.3297 1513.76 47.7367 1512.59 47.7845C1511.56 47.8085 1510.53 48 1509.48 47.8085C1508.64 47.6409 1507.73 47.8085 1506.84 47.8085C1506.46 47.8085 1506.08 47.7845 1505.7 47.7127C1504.38 47.4015 1504.35 47.3297 1504.12 46.013C1504.09 45.7257 1504.14 45.5103 1504.26 45.2469C1504.91 43.7387 1505.53 42.2305 1506.1 40.7223C1506.68 39.262 1507.18 37.7538 1507.75 36.2935C1508.21 35.1204 1508.59 33.9234 1508.98 32.7264C1509.38 31.4337 1509.96 30.1888 1510.41 28.92C1510.77 27.8427 1511.56 27.4358 1512.61 27.1964C1513.86 26.933 1515.1 27.0767 1516.28 26.9809ZM1546.44 36.0062C1547.23 35.5513 1547.32 35.1204 1546.72 34.4501C1546.46 34.1149 1546.17 33.7798 1545.91 33.4207C1545.53 32.918 1545 32.5828 1544.45 32.3913C1543.78 32.1519 1543.08 32.0082 1542.37 31.9843C1540.52 31.8646 1538.7 31.9125 1536.88 32.5828C1534.3 33.5883 1532.55 35.8386 1532.31 38.472C1532.26 39.2381 1532.46 40.052 1532.93 40.6505C1534.18 42.1587 1535.74 43.0684 1537.96 42.9008C1538.63 42.9966 1539.42 42.8051 1540.19 42.5178C1541.15 42.1826 1541.34 41.656 1541.03 40.6026C1540.86 39.9802 1540.62 39.3338 1540.86 38.6874C1541.29 37.5144 1541.96 36.6047 1543.37 36.5089C1544.14 36.4371 1544.9 36.2935 1545.67 36.2216C1545.93 36.1977 1546.2 36.1498 1546.44 36.0062ZM1556.3 36.5329C1556.4 36.7723 1556.42 37.0595 1556.54 37.2989C1556.8 37.8735 1556.71 38.3762 1556.47 38.9029C1555.99 39.9802 1555.7 41.1293 1554.93 42.0869C1554.84 42.2066 1554.79 42.3742 1554.74 42.5417C1554.48 43.7387 1553.71 44.6963 1553.24 45.7736C1552.71 46.9467 1551.77 47.3776 1550.65 47.4733C1549.19 47.5691 1547.71 47.5212 1546.24 47.21C1545.29 46.9945 1544.31 46.803 1543.3 46.827C1542.44 46.8748 1541.58 46.9945 1540.71 47.2579C1539.42 47.6648 1538.06 47.8085 1536.69 47.8324C1536.14 47.8324 1535.59 47.8324 1535.09 47.8324C1532.6 48 1530.23 47.5691 1527.91 46.8748C1525.94 46.3003 1524.22 45.1751 1522.9 43.5472C1522.66 43.2599 1522.5 42.9008 1522.33 42.5657C1521.63 41.1054 1521.2 39.5253 1521.25 37.9453C1521.28 36.5807 1521.66 35.1922 1522.45 33.9474C1524 31.5534 1526.28 30.0691 1528.86 29.0397C1531.69 27.9145 1534.61 27.34 1537.67 27.2442C1538.63 27.1964 1539.61 26.9091 1540.6 27.0048C1541.36 27.0767 1542.13 27.0288 1542.89 27.0048C1543.54 26.9809 1544.21 27.0527 1544.86 27.1245C1545.89 27.2682 1546.92 27.5315 1547.94 27.5794C1549.48 27.6512 1550.82 28.2258 1552.21 28.6567C1553.57 29.0397 1554.67 29.9015 1555.75 30.6916C1556.61 31.314 1557.19 32.1758 1557.16 33.3489C1557.14 33.9713 1557.09 34.5698 1556.61 35.0247C1556.16 35.4556 1556.08 35.9344 1556.3 36.5329ZM1585.67 47.9042C1584.59 47.7127 1583.47 48 1582.41 47.5691C1581.43 48 1580.47 47.5691 1579.49 47.5212C1578.89 47.4973 1578.49 47.21 1578.1 46.7551C1576.81 45.2469 1575.85 43.5233 1574.87 41.8235C1574.25 40.7702 1573.44 39.8844 1572.72 38.9268C1572.36 38.4241 1571.59 38.2805 1571.09 38.6156C1570.63 38.9029 1570.2 39.1662 1569.94 39.7408C1569.22 41.4644 1568.55 43.1881 1567.98 44.9597C1567.71 45.7975 1567.16 46.4439 1566.54 46.8988C1566.01 47.2818 1565.2 47.3536 1564.51 47.3776C1563.64 47.3776 1562.76 47.4254 1561.87 47.3536C1561.04 47.3057 1560.15 47.4494 1559.29 47.4494C1557.88 47.4494 1557.3 46.7551 1557.59 45.3906C1557.9 43.8584 1558.55 42.3981 1559.02 40.8899C1559.53 39.3817 1560.1 37.8974 1560.63 36.4132C1561.51 33.9474 1562.4 31.4576 1563.26 28.9918C1563.52 28.2976 1564.08 27.8188 1564.48 27.2442C1564.53 27.1724 1564.65 27.0527 1564.72 27.0527C1565.56 27.0767 1566.3 26.4303 1567.12 26.6936C1567.88 26.933 1568.65 26.4303 1569.37 26.8373C1570.37 26.3345 1571.42 26.7894 1572.45 26.6936C1573.12 26.6218 1573.84 26.8851 1574.51 27.0767C1574.92 27.2203 1575.35 27.4118 1575.59 27.8188C1576.05 28.6327 1576.79 29.2552 1577.17 30.117C1577.34 30.4522 1577.65 30.7155 1577.89 31.0267C1578.06 31.2422 1578.27 31.4576 1578.34 31.697C1578.63 33.0616 1579.71 33.9234 1580.4 35.0486C1580.67 35.4556 1582.03 35.8625 1582.49 35.695C1582.75 35.5992 1582.96 35.4316 1583.08 35.1683C1583.56 34.2586 1584.07 33.3489 1584.38 32.3434C1584.74 31.1943 1585.12 30.0452 1585.57 28.92C1585.98 27.9385 1586.89 27.5076 1587.87 27.2442C1588.09 27.1964 1588.33 27.2921 1588.54 27.2442C1589.4 27.1006 1590.27 27.5555 1591.13 27.3161C1591.94 27.0767 1592.78 27.3879 1593.59 27.34C1594.22 27.2921 1594.89 27.5076 1595.51 27.6991C1596.23 27.9145 1596.51 28.3455 1596.42 29.0637C1596.35 29.5425 1596.15 29.9973 1595.99 30.4761C1595.25 32.5589 1594.5 34.6656 1593.74 36.7723C1592.99 38.7593 1592.37 40.7702 1591.44 42.6854C1591.56 43.6669 1590.77 44.3851 1590.62 45.3187C1590.53 45.9172 1590.07 46.5157 1589.67 47.0185C1589.16 47.6888 1588.37 47.9761 1587.63 47.8803C1586.96 47.8085 1586.32 47.9282 1585.67 47.9042ZM1636.05 34.0192C1636.48 33.2292 1635.42 32.8701 1635.11 32.2955C1634.97 32.0561 1634.78 31.8407 1634.49 31.7688C1633.77 31.5295 1633.03 31.1464 1632.31 31.1464C1631.74 31.1464 1631.11 31.2182 1630.54 31.3858C1629.77 31.6013 1629.44 31.9604 1629.39 32.6067C1629.34 33.3249 1629.87 33.5883 1630.4 33.7558C1631.57 34.1628 1632.81 34.4262 1634.23 34.5698C1634.75 34.3783 1635.71 34.6416 1636.05 34.0192ZM1646.36 31.1464C1647.01 32.0801 1646.53 33.1334 1645.41 33.3968C1645.14 33.4686 1644.86 33.5883 1644.62 33.5404C1643.59 33.301 1642.56 33.5643 1641.53 33.5404C1640.52 33.5165 1639.47 33.5404 1638.54 34.0431C1638.13 34.2825 1638.06 34.6895 1638.39 34.9528C1638.68 35.1444 1638.97 35.3119 1639.25 35.4556C1640.74 36.1498 1642.15 36.9877 1643.42 38.0411C1644.5 38.9268 1644.93 40.0759 1645.02 41.3687C1645.07 42.039 1644.88 42.6854 1644.45 43.2121C1643.8 44.0739 1643.08 44.8639 1642.08 45.3906C1641 45.9412 1639.9 46.396 1638.7 46.6354C1638.66 46.6354 1638.58 46.6354 1638.54 46.6594C1637.34 47.2579 1636 47.21 1634.73 47.4015C1632.74 47.7127 1630.73 47.9282 1628.72 47.8564C1627.95 47.8324 1627.19 47.9042 1626.42 47.8803C1625.7 47.8564 1625.01 47.9282 1624.34 47.617C1623.57 48 1622.83 47.5691 1622.09 47.5691C1620.84 47.5451 1619.77 46.9945 1618.59 46.7073C1617.21 46.3482 1616.15 45.5103 1615.15 44.5527C1614.86 44.2893 1614.62 43.9781 1614.45 43.643C1613.85 42.5417 1614.24 41.632 1615.43 41.2251C1615.96 41.0335 1616.49 40.9378 1617.04 40.9378C1618.98 40.9617 1620.89 40.7223 1622.78 40.3632C1623.07 40.3153 1623.31 40.3632 1623.55 40.5547C1623.91 40.866 1624.36 41.1293 1624.65 41.5123C1625.37 42.4699 1626.45 42.7333 1627.43 43.1642C1627.64 43.2599 1627.83 43.2121 1628.07 43.1402C1628.6 42.9966 1629.13 42.9966 1629.68 43.1402C1630.4 43.3078 1631.09 42.9966 1631.74 42.7333C1632.17 42.5657 1632.43 42.2066 1632.6 41.7757C1632.79 41.3447 1632.69 40.8899 1632.31 40.5787C1631.93 40.2914 1631.52 39.9323 1631.07 39.8365C1629.46 39.4774 1627.91 38.9029 1626.23 38.9987C1625.85 39.0226 1625.46 39.0465 1625.06 39.0465C1624.46 39.0465 1623.84 39.0465 1623.29 38.7593C1622.02 38.0889 1620.7 37.5383 1619.53 36.7244C1617.59 35.4316 1617.11 32.894 1618.4 30.9549C1619.22 29.7579 1620.34 29.0397 1621.56 28.3933C1623.38 27.4358 1625.35 27.1485 1627.33 26.7654C1629.08 26.4303 1630.8 26.6218 1632.55 26.4782C1633.46 26.4063 1634.39 26.6218 1635.33 26.7415C1635.76 26.8133 1636.19 26.8612 1636.64 26.7894C1636.91 26.7415 1637.2 26.7415 1637.46 26.8133C1639.21 27.2682 1640.98 27.6512 1642.68 28.2258C1644.23 28.7285 1645.45 29.8058 1646.36 31.1464ZM1660.91 47.9521C1659 47.8564 1657.2 47.7606 1655.4 47.3297C1653.8 46.9227 1652.32 46.2524 1650.9 45.3906C1649.78 44.7442 1649.01 43.7387 1648.22 42.8051C1647.6 42.0869 1647.34 41.1293 1647.26 40.1956C1647.17 38.7114 1647.15 37.2511 1647.62 35.7907C1648.17 34.1868 1649.11 32.8701 1650.28 31.721C1651.84 30.2367 1653.68 29.2791 1655.67 28.4891C1657.2 27.8667 1658.8 27.4597 1660.41 27.1964C1662.01 26.933 1663.64 26.55 1665.29 26.7176C1665.55 26.7415 1665.84 26.7176 1666.11 26.6218C1666.87 26.3824 1667.64 26.4303 1668.38 26.55C1669.27 26.6936 1670.13 26.7415 1671.01 26.7654C1673.55 26.8133 1675.85 27.6273 1678.05 28.8482C1679.34 29.5664 1680.06 30.6916 1680.66 31.9125C1681.04 32.7025 1680.47 33.8755 1679.63 33.9713C1678.65 34.091 1677.72 34.4022 1676.69 34.2825C1675.78 34.1868 1674.84 34.2586 1673.91 34.3543C1672.62 34.498 1671.47 34.3065 1670.46 33.2531C1669.55 32.2955 1668.4 31.721 1666.97 31.6731C1663.62 31.5295 1660.93 32.5349 1659.23 35.5992C1658.42 37.0356 1658.11 38.448 1658.4 39.9562C1658.52 40.5069 1658.8 41.0335 1659.16 41.3926C1659.98 42.1108 1660.84 42.8051 1662.01 42.9008C1663.02 42.9487 1664.02 42.9966 1664.98 42.7811C1666.03 42.5657 1667.04 42.0869 1667.9 41.3447C1670.15 39.3817 1669.96 39.645 1672.88 39.4056C1674.34 39.2859 1675.83 39.3577 1677.31 39.3338C1677.69 39.3338 1678.08 39.3338 1678.43 39.5253C1679.01 39.8126 1679.2 40.2435 1679.06 40.866C1678.82 41.8954 1678.1 42.6136 1677.36 43.2599C1675.51 44.8639 1673.34 45.9172 1670.99 46.5876C1669.05 47.1382 1667.06 47.593 1665.03 47.7367C1663.62 47.8085 1662.2 48 1660.91 47.9521ZM1692.63 26.7654C1693.78 26.6936 1694.93 26.6697 1696.08 26.8612C1697.32 27.0767 1697.75 27.747 1697.46 28.92C1697.34 29.3988 1697.18 29.8776 1697.03 30.3325C1696.94 30.6437 1696.82 30.9788 1696.82 31.2901C1696.77 32.918 1697.49 33.8037 1699.12 33.8995C1700.79 33.9713 1702.49 34.0192 1704.17 33.7319C1705.32 33.5165 1706.08 32.918 1706.58 31.9364C1707.09 30.931 1707.64 29.9015 1708.07 28.8482C1708.6 27.5076 1709.7 27.0767 1710.94 27.1006C1712.52 27.1245 1714.1 27.0288 1715.68 27.2682C1716.57 27.3879 1717.53 27.34 1718.46 27.4597C1719.37 27.5555 1719.7 28.0342 1719.49 28.944C1719.22 30.0931 1718.82 31.2182 1718.22 32.2716C1717.74 33.1334 1717.55 34.091 1717.14 35.0007C1715.87 37.7298 1714.72 40.4829 1713.62 43.2839C1713.29 44.0978 1712.9 44.8639 1712.57 45.6778C1712.04 47.0185 1710.87 47.3297 1709.65 47.3297C1708.6 47.3297 1707.57 47.4015 1706.54 47.4494C1705.2 47.4733 1703.83 47.4494 1702.49 47.2339C1702.06 47.1621 1701.84 46.8509 1701.8 46.42C1701.72 45.9172 1701.82 45.4384 1701.96 44.9597C1702.25 43.9542 1702.44 42.9248 1702.8 41.9672C1703.07 41.2251 1702.83 40.6744 1702.44 40.1238C1702.06 39.5971 1701.51 39.3099 1700.91 39.2859C1699.47 39.2381 1698.04 39.1902 1696.63 39.3338C1694.95 39.5014 1693.78 40.3393 1693.32 42.0869C1693.01 43.2839 1692.58 44.4809 1692.15 45.6539C1691.89 46.3003 1691.57 46.8988 1690.98 47.3536C1690.5 47.7127 1690.07 47.8564 1689.49 47.9042C1687.34 48.0239 1685.21 47.9521 1683.08 47.9521C1682.86 47.9521 1682.62 47.9521 1682.41 47.9282C1681.69 47.8564 1681.3 47.4973 1681.21 46.7791C1681.18 46.4679 1681.16 46.1088 1681.28 45.8215C1681.93 43.9063 1682.64 42.0151 1683.32 40.1238C1683.6 39.2859 1684.01 38.472 1684.11 37.6341C1684.22 36.6765 1684.7 35.8865 1684.9 34.9768C1685.25 33.3728 1685.85 31.8167 1686.33 30.2606C1686.45 29.8297 1686.69 29.4467 1686.76 29.0397C1687.12 27.34 1688.61 26.8373 1690.16 26.7654C1690.98 26.7415 1691.81 26.7654 1692.63 26.7654ZM1744.77 38.1368C1745.64 36.2935 1745.06 33.4207 1743.19 32.3913C1742.67 32.104 1742.17 31.7928 1741.57 31.6252C1740.63 31.4098 1739.72 30.9788 1738.72 31.2661C1737.93 31.3619 1737.11 31.3858 1736.3 31.6013C1735.29 31.8646 1734.36 32.3195 1733.55 32.9658C1732.69 33.708 1731.97 34.5219 1731.44 35.5992C1730.82 36.868 1730.7 38.0411 1730.89 39.4056C1731.03 40.3153 1731.49 40.9617 1732.16 41.4166C1732.9 41.9432 1733.74 42.446 1734.67 42.5417C1736.3 42.7093 1737.93 42.9248 1739.56 42.446C1740.8 42.0629 1741.93 41.5123 1742.88 40.6984C1743.67 40.0041 1744.3 39.1423 1744.77 38.1368ZM1756.91 34.9528C1757.25 37.2989 1756.6 39.3099 1755.33 41.2729C1754.52 42.5657 1753.44 43.4754 1752.29 44.3851C1750.88 45.5103 1749.2 46.013 1747.62 46.7073C1747.14 46.9227 1746.64 46.9227 1746.16 46.9706C1745.47 47.0663 1744.89 47.7367 1744.13 47.3536C1743.51 47.5691 1742.86 47.6409 1742.19 47.6648C1741.5 47.6888 1740.8 47.9761 1740.08 47.6648C1739.48 48 1738.81 47.8564 1738.17 47.9042C1737.02 48 1735.87 47.9042 1734.77 47.7606C1733.71 47.6409 1732.57 47.9042 1731.54 47.3297C1730.48 47.6409 1729.5 47.1382 1728.5 46.9945C1727.42 46.8509 1726.39 46.4679 1725.38 46.0609C1724.16 45.606 1723.16 44.8878 1722.18 44.0978C1720.91 43.0684 1720.31 41.7038 1720.09 40.1238C1719.83 38.1608 1720.09 36.3174 1721 34.5698C1721.53 33.6122 1722.1 32.7264 1722.89 31.9364C1723.44 31.3619 1724.09 30.8831 1724.64 30.3325C1725.24 29.734 1726.01 29.4228 1726.7 28.9679C1727.54 28.4173 1728.47 28.1061 1729.38 27.6991C1731.39 26.8373 1733.57 26.5979 1735.7 26.1909C1736.52 26.0472 1737.35 26.1669 1738.17 26.1669C1739.29 25.9994 1740.37 26.1191 1741.47 26.2388C1742.29 26.3585 1743.12 26.3585 1743.94 26.4063C1744.27 26.4303 1744.61 26.4542 1744.92 26.55C1746.55 27.0048 1748.17 27.4597 1749.8 27.9385C1751.98 28.5849 1753.8 29.7819 1755.33 31.4098C1756.24 32.3913 1756.72 33.6122 1756.91 34.9528ZM1782.34 38.1368C1783.21 36.2935 1782.63 33.4207 1780.76 32.3913C1780.24 32.104 1779.73 31.7928 1779.14 31.6252C1778.2 31.4098 1777.29 30.9788 1776.29 31.2661C1775.5 31.3619 1774.68 31.3858 1773.87 31.6013C1772.86 31.8646 1771.93 32.3195 1771.12 32.9658C1770.25 33.708 1769.54 34.5219 1769.01 35.5992C1768.39 36.868 1768.27 38.0411 1768.46 39.4056C1768.6 40.3153 1769.06 40.9617 1769.73 41.4166C1770.47 41.9432 1771.31 42.446 1772.24 42.5417C1773.87 42.7093 1775.5 42.9248 1777.13 42.446C1778.37 42.0629 1779.5 41.5123 1780.45 40.6984C1781.24 40.0041 1781.87 39.1423 1782.34 38.1368ZM1794.48 34.9528C1794.82 37.2989 1794.17 39.3099 1792.9 41.2729C1792.09 42.5657 1791.01 43.4754 1789.86 44.3851C1788.45 45.5103 1786.77 46.013 1785.19 46.7073C1784.71 46.9227 1784.21 46.9227 1783.73 46.9706C1783.04 47.0663 1782.46 47.7367 1781.7 47.3536C1781.08 47.5691 1780.43 47.6409 1779.76 47.6648C1779.06 47.6888 1778.37 47.9761 1777.65 47.6648C1777.05 48 1776.38 47.8564 1775.74 47.9042C1774.59 48 1773.44 47.9042 1772.34 47.7606C1771.28 47.6409 1770.13 47.9042 1769.11 47.3297C1768.05 47.6409 1767.07 47.1382 1766.07 46.9945C1764.99 46.8509 1763.96 46.4679 1762.95 46.0609C1761.73 45.606 1760.73 44.8878 1759.75 44.0978C1758.48 43.0684 1757.88 41.7038 1757.66 40.1238C1757.4 38.1608 1757.66 36.3174 1758.57 34.5698C1759.1 33.6122 1759.67 32.7264 1760.46 31.9364C1761.01 31.3619 1761.66 30.8831 1762.21 30.3325C1762.81 29.734 1763.58 29.4228 1764.27 28.9679C1765.11 28.4173 1766.04 28.1061 1766.95 27.6991C1768.96 26.8373 1771.14 26.5979 1773.27 26.1909C1774.08 26.0472 1774.92 26.1669 1775.74 26.1669C1776.86 25.9994 1777.94 26.1191 1779.04 26.2388C1779.85 26.3585 1780.69 26.3585 1781.51 26.4063C1781.84 26.4303 1782.18 26.4542 1782.49 26.55C1784.12 27.0048 1785.74 27.4597 1787.37 27.9385C1789.55 28.5849 1791.37 29.7819 1792.9 31.4098C1793.81 32.3913 1794.29 33.6122 1794.48 34.9528ZM1812.23 42.3981C1814.84 42.4699 1817.45 42.5178 1820.03 42.5896C1820.37 42.5896 1820.7 42.6375 1821.01 42.6136C1821.71 42.5896 1822.14 42.9487 1822.48 43.4993C1822.71 43.8824 1822.74 44.1696 1822.52 44.5527C1822.36 44.8878 1822.26 45.2709 1822.14 45.63C1821.64 47.1621 1820.68 47.7127 1819.08 47.7127C1818.09 47.7367 1817.14 47.7367 1816.18 47.7845C1815.32 47.8564 1814.48 47.5212 1813.64 47.8085C1811.75 47.6409 1809.84 47.7367 1807.94 47.7127C1806.41 47.6648 1804.88 47.7845 1803.35 47.7367C1801.67 47.6648 1799.97 47.9761 1798.32 47.6409C1797.7 48.0239 1797.05 47.7367 1796.4 47.6888C1796 47.6648 1795.66 47.4973 1795.35 47.2579C1795.11 47.0903 1794.94 46.8509 1794.99 46.5636C1795.06 46.013 1795.04 45.4145 1795.26 44.9597C1795.73 44.026 1795.93 42.9966 1796.33 42.039C1796.81 40.842 1797.24 39.5971 1797.67 38.3523C1798.51 35.9583 1799.4 33.5643 1800.28 31.1704C1800.59 30.3564 1800.88 29.5185 1801.26 28.7285C1801.77 27.6512 1802.68 27.1006 1803.9 27.1245C1806.08 27.1964 1808.28 26.957 1810.46 27.1964C1810.55 27.2203 1810.67 27.1724 1810.79 27.1964C1811.94 27.3161 1812.4 28.0821 1811.99 29.2791C1811.06 31.8885 1810.19 34.5459 1809.19 37.1314C1808.88 37.9453 1808.57 38.7593 1808.35 39.5971C1808.02 40.9378 1809.05 42.2545 1810.41 42.3742C1811.03 42.422 1811.63 42.3742 1812.23 42.3742C1812.23 42.3981 1812.23 42.3981 1812.23 42.3981Z" fill="#003FA4"/>
</svg>
