<svg width="621" height="611" viewBox="0 0 621 611" fill="none" xmlns="http://www.w3.org/2000/svg">
<rect width="621" height="610.853" fill="#1C9E61"/>
<path d="M177.164 356.266L206.416 298.378L227.158 264.327L250.027 227.438L280.343 188.846L295.766 168.415" stroke="#FFFCFF" stroke-width="10"/>
<path d="M386.713 301.213L404.796 324.482L411.178 313.699L404.796 301.213L398.414 290.998L384.586 273.405C384.586 273.405 379.564 267.315 376.608 263.189C372.06 256.841 370.125 252.812 365.971 246.163L345.761 213.815L340.442 203.032L329.805 187.708L321.296 176.358L310.127 160.467L297.894 144.009C297.894 144.009 290.97 134.765 286.725 128.686C282.009 121.93 279.642 117.926 275.025 111.093C271.113 105.303 266.403 103.296 264.92 96.3369C264.457 94.165 265.604 92.4718 264.388 90.6616C262.342 87.6169 258.586 89.5564 255.416 91.193L255.346 91.2292C251.755 93.0835 251.02 96.0931 248.964 99.742C247.768 101.866 247.22 103.14 246.305 105.417C244.102 110.902 246.239 115.658 242.582 120.173C241.33 121.719 238.859 123.578 238.859 123.578C238.859 123.578 234.402 125.591 231.413 126.416C225.167 128.14 221.271 126.3 214.926 127.551C210.913 128.342 208.356 128.214 204.821 130.388C201.891 132.19 200.773 134.022 198.438 136.631C196.914 138.335 195.789 139.112 194.716 141.171C192.687 145.065 193.652 152.522 193.652 152.522L192.588 168.413L190.993 180.331L189.929 187.141L186.206 189.978L175.569 193.951L164.4 199.059C164.4 199.059 157.652 204.629 153.763 208.707C151.142 211.455 149.201 212.678 147.381 216.085C145.657 219.312 145.151 221.478 144.722 225.165C144.286 228.911 144.992 231.049 145.254 234.813C145.826 243.038 147.381 255.811 147.381 255.811L142.062 258.649L128.234 267.162L119.193 277.377C119.193 277.377 116.454 280.943 116.534 283.62C116.629 286.815 120.788 290.43 120.788 290.43L126.639 319.374L119.193 325.049L101.642 343.21L95.7916 352.858C95.7916 352.858 94.0105 357.393 95.7916 358.533C96.8602 359.218 98.9827 358.533 98.9827 358.533L104.833 355.696C104.833 355.696 106.454 359.859 108.556 361.371C111.162 363.246 116.534 362.506 116.534 362.506C116.534 362.506 123.691 364.119 128.234 365.344C134.099 366.924 137.128 369.057 143.126 369.884C148.276 370.594 156.422 369.884 156.422 369.884C156.422 369.884 163.186 374.592 168.123 375.559C171.8 376.28 177.696 375.559 177.696 375.559L187.801 376.694L223.967 385.207L262.26 392.585L285.13 399.395L304.276 404.503L317.041 405.638L339.91 412.448L354.802 414.151L361.184 401.665L332.996 393.72L317.041 389.747L306.936 385.207L294.171 381.802L265.983 374.992L239.391 369.884L210.139 363.641L187.801 359.101L170.782 355.696L146.849 351.156L133.021 347.183L121.852 343.778H116.534L120.788 336.967L127.171 329.59L136.744 323.347L139.403 317.672V311.996V302.348L136.744 292.133L133.021 279.08V275.107L135.68 272.27H139.403L145.254 275.107L167.059 286.458L192.056 300.078L210.139 311.996L236.2 326.184L253.751 333.562L268.111 342.075L307.468 364.209L319.168 371.586L332.996 379.532L347.356 388.612L364.375 395.422L371.821 382.937L364.375 378.397L351.079 370.451L332.996 360.803L320.232 352.858L292.044 336.967L278.748 328.455L265.451 320.509L255.346 316.537L236.2 306.889L222.372 298.943L204.289 289.295L184.61 279.08L170.782 272.27L160.145 268.297L152.699 263.189C152.699 263.189 158.241 259.526 160.145 255.811C160.997 254.15 161.385 253.126 161.741 251.271C162.2 248.883 161.741 247.466 161.741 245.028C161.741 241.926 162.178 240.151 161.741 237.083C161.247 233.619 159.082 228.57 159.082 228.57L158.018 221.76L161.741 213.247L169.719 207.004L178.228 203.599L196.843 221.76L210.671 234.813L237.795 259.217L248.432 269.432L275.557 290.998L288.853 303.483L314.913 326.184L329.273 340.94L348.42 355.128L362.248 366.479L377.672 373.289L382.99 364.209L377.672 357.966L367.035 349.453L345.229 331.292L338.315 324.482L332.996 320.509L319.168 308.591L302.149 294.403L288.853 283.62L273.961 272.27L263.324 264.324L255.346 257.514L245.773 250.136L231.413 238.786C231.413 238.786 226.089 233.684 222.372 230.84C219.562 228.691 217.933 227.552 214.926 225.733C212.098 224.021 210.322 223.443 207.48 221.76C204.053 219.731 202.199 218.455 198.97 216.085C195.309 213.396 193.083 212.049 189.929 208.707C187.627 206.267 184.61 201.897 184.61 201.897L187.27 199.059C187.27 199.059 194.816 195.557 198.438 191.681C200.638 189.327 198.97 193.383 203.225 184.871C207.48 176.359 204.821 173.52 205.353 167.277C205.884 161.035 207.48 148.549 207.48 148.549L222.372 167.277L250.56 201.897L259.601 213.247L275.557 231.975C275.557 231.975 284.327 241.642 289.917 247.866C297.845 256.694 302.149 260.352 310.127 270.567C318.105 280.782 312.786 275.106 313.85 276.81C314.913 278.513 324.487 288.728 324.487 288.728L344.165 311.996L349.484 320.509L364.375 338.102L376.608 346.615L382.99 349.453L386.713 347.75L388.841 343.778L392.032 347.75L397.35 338.102L390.436 331.292L385.118 324.482L379.799 319.374L373.949 313.699L367.035 307.456L359.057 297.808L356.398 294.403L349.484 288.728L339.91 279.08L334.06 272.27L328.21 263.189L322.359 255.811L313.85 246.163L310.127 241.056L299.49 229.138L290.98 218.922L282.471 209.274L267.579 190.546L261.729 184.871L256.942 179.196L250.56 173.52L246.305 167.277L239.391 160.467L232.477 151.387L226.095 142.874L223.967 139.469L226.095 138.334C226.095 138.334 230.024 137.448 232.477 136.631C235.238 135.712 236.801 135.168 239.391 133.794C241.56 132.643 242.718 131.86 244.709 130.388C247.136 128.594 248.575 127.612 250.56 125.281C252.264 123.278 254.283 119.605 254.283 119.605L256.942 112.228L258.537 109.957L276.088 140.604L284.066 154.224L306.404 187.708L319.7 206.437L336.719 231.975L352.143 254.676L367.035 276.81L373.949 285.323L386.713 301.213Z" fill="#FFFCFF" stroke="#FFFCFF" stroke-width="2"/>
<path d="M436.708 325.616C448.973 333.253 462.365 343.181 472.075 353.201C481.915 361.938 492.725 373.193 498.403 384.071C504.08 394.949 505.6 404.638 506.38 414.717C507.16 424.797 504.164 435.854 499.928 443.6C495.692 451.347 488.927 459.858 480.32 464.092C471.712 468.326 461.672 469.69 450.004 469.767C438.336 469.845 427.855 468.183 414.902 464.092C401.95 460.001 384.086 449.597 371.821 441.96L406.531 385.444L436.708 325.616Z" fill="#FFFCFF"/>
<rect width="30.3278" height="138.708" rx="5" transform="matrix(0.841376 0.540451 -0.491335 0.870971 414.976 306.889)" fill="#F03C40"/>
<path d="M243.646 384.074L266.732 333.357L283.103 303.524L301.152 271.204L325.078 237.392L337.251 219.492" stroke="#FFFCFF" stroke-width="10"/>
<path d="M376.076 283.054L360.121 300.079L340.442 329.591L324.487 357.399L307.468 389.181" stroke="#FFFCFF" stroke-width="4"/>
<ellipse cx="420" cy="201.172" rx="20" ry="20.9555" fill="#FFFDEE"/>
<ellipse cx="347.5" cy="491.93" rx="17.5" ry="18.3361" fill="#FFFDEE"/>
<ellipse cx="564" cy="52.3891" rx="20" ry="20.9555" fill="#FFFDEE"/>
<ellipse cx="512" cy="138.306" rx="20" ry="20.9555" fill="#FFFDEE"/>
<ellipse cx="256" cy="562.656" rx="20" ry="20.9555" fill="#FFFDEE"/>
<ellipse cx="420" cy="79.6313" rx="20" ry="20.9555" fill="#FFFDEE"/>
<ellipse cx="109" cy="159.262" rx="20" ry="20.9555" fill="#FFFDEE"/>
<ellipse cx="524" cy="510.267" rx="20" ry="20.9555" fill="#FFFDEE"/>
<ellipse cx="418" cy="569.991" rx="20" ry="20.9555" fill="#FFFDEE"/>
<ellipse cx="537" cy="272.421" rx="20" ry="20.9555" fill="#FFFDEE"/>
<ellipse cx="186" cy="465.212" rx="20" ry="20.9555" fill="#FFFDEE"/>
<ellipse cx="51" cy="251.466" rx="20" ry="20.9555" fill="#FFFDEE"/>
<ellipse cx="51" cy="58.6752" rx="20" ry="20.9555" fill="#FFFDEE"/>
<ellipse cx="307.5" cy="40.339" rx="17.5" ry="18.3361" fill="#FFFDEE"/>
<ellipse cx="66" cy="552.178" rx="20" ry="20.9555" fill="#FFFDEE"/>
<ellipse cx="168.5" cy="49.7697" rx="17.5" ry="18.3361" fill="#FFFDEE"/>
<ellipse cx="48.5" cy="413.348" rx="17.5" ry="18.3361" fill="#FFFDEE"/>
<ellipse cx="574.5" cy="393.44" rx="17.5" ry="18.3361" fill="#FFFDEE"/>
<ellipse cx="581.5" cy="572.609" rx="17.5" ry="18.3361" fill="#FFFDEE"/>
</svg>
