<svg width="759" height="537" viewBox="0 0 759 537" fill="none" xmlns="http://www.w3.org/2000/svg">
<path d="M81.6951 455.547L100.495 453.056L294.214 427.394L553.876 384.68L741.57 332.369L766.909 329.012L769.941 351.899L764.03 382.624L746.46 413.23L683.294 432.41L628.687 447.13L459.154 479.568L386.948 493.292L246.358 511.916L194.046 518.846L152.202 516.903L106.234 496.378L83.5358 469.442L81.6951 455.547Z" fill="white" stroke="#030402" stroke-width="1.64904"/>
<path d="M93.3762 430.713L86.7672 449.886L265.005 432.929L475.841 398.346L577.039 377.454L673.777 348.005L749.419 328.836L768.988 319.59L728.846 173.533L695.117 176.338L651.796 182.077L628.623 201.781L610.343 233.313L583.132 260.206L553.755 270.751L488.965 277.67L429.827 302.139L392.856 336.979L344.728 356.662L305.543 368.507L236.834 370.955L181.252 378.318L137.644 400.729L93.3762 430.713Z" fill="#0077FF" stroke="#030402" stroke-width="1.64904"/>
<path d="M129.653 315.289L183.247 274.089L204.321 288.763L232.139 316.684L258.128 318.231L267.79 296.99L262.376 256.121L259.994 238.139L270.62 236.731L289.999 257.452L329.094 288.869L347.076 286.487L347.216 249.873L346.49 206.719L368.045 231.311L393.146 251.274L407.21 244.42L415.967 197.515L423.75 143.254L446.62 96.143L486.947 86.6422L514.127 97.181L542.271 127.554L565.157 124.522L576.129 100.612L598.653 76.0031L638.704 70.6975L679.877 92.6902L709.537 134.506L725.409 178.98L696.102 171.218L637.132 190.674L611.555 217.351L582.482 255.303L537.299 272.101L494.519 281.926L457.737 286.799L425.031 303.607L392.807 330.333L344.344 360.041L287.944 367.512L227.794 365.5L162.068 384.187L114.205 412.152L78.7608 445.958L68.4702 437.34L70.8564 386.289L85.9747 356.008L129.653 315.289Z" fill="#A3F606" stroke="#030402" stroke-width="1.64904"/>
<path d="M136.741 180.435L154.182 173.965L191.582 211.429L227.515 244.097L201.975 164.308L204.665 140.663L224.282 138.064L252.268 160.972L285.424 191.512L305.464 204.66L283.772 147.65L273.513 101.6L285.568 85.8641L306.652 88.0614L329.41 109.167L355.642 143.951L351.203 110.438L355.863 76.5521L362.462 69.8559L376.13 78.8577L388.705 92.163L397.615 121.756L412.205 200.501L412.666 235.372L398.435 247.238L385.525 243.958L347.15 199.138L338.701 204.416L349.441 260.382L341.571 288.872L324.249 283.681L273.132 230.568L256.784 232.734L256.005 251.967L270.459 298.292L255.893 320.183L210.633 298.732L136.741 180.435Z" fill="white" stroke="#030402" stroke-width="1.64904"/>
<path d="M203.613 289.691L149.572 214.509C149.572 214.509 132.055 197.53 135.758 185.565C137.442 180.123 139.182 176.413 144.158 173.64C152.587 168.943 167.635 181.342 167.635 181.342L192.894 208.77L236.812 270.322L205.717 186.278L201.386 153.583C201.386 153.583 200.592 140.725 205.651 135.552C214.137 126.873 235.775 143.205 235.775 143.205L263.269 168.674L319.713 236.883L285.565 154.907L273.071 110.818C273.071 110.818 272.374 97.7363 277.228 91.9691C284.277 83.5928 294.405 85.6035 305.019 88.2876C315.182 90.8579 327.018 103.671 327.018 103.671L379.679 199.829L350.771 107.179C350.771 107.179 348.123 73.4693 362.679 71.5003C370.244 70.4771 381.035 78.2177 381.035 78.2177L397.736 110.106L411.812 216.366" stroke="#030402" stroke-width="16.4904"/>
<path d="M729.987 175.873L749.719 230.648L766.653 308.251L768.277 320.51M729.987 175.873L706.493 124.092C706.493 124.092 693.271 102.928 681.511 92.4684C671.098 83.2074 664.507 78.172 651.506 73.155C640.106 68.7559 632.922 65.8743 620.781 67.2444C612.309 68.2004 600.07 74.1466 600.07 74.1466C600.07 74.1466 587.012 82.2189 581.368 89.9317C574.903 98.7665 571.538 116.186 571.538 116.186C568.096 129.732 550.261 132.881 542.195 121.466C541.599 120.622 540.921 119.831 540.178 119.114L532.432 111.641C518.797 98.4851 502.544 86.8306 483.613 86.0384C479.816 85.8795 476.106 86.0767 472.835 86.8429C465.579 88.5421 457.652 93.7015 451.401 98.5768C443.411 104.808 437.467 113.151 432.546 122.008C425.902 133.963 421.463 147.017 419.441 160.544L415.602 186.22C414.03 196.735 413.722 207.408 412.79 218C411.657 230.871 408.166 247.128 397.833 248.984C386.486 251.022 375.017 233.709 375.017 233.709L348.183 200.667C344.451 195.808 336.714 199.309 337.901 205.32L345.748 245.071L346.45 250.37C348.213 263.68 353.953 281.286 343.313 289.475C333.374 297.124 313.465 277.627 313.465 277.627L274.489 234.55C266.648 225.688 252.225 233.562 255.439 244.95L264.156 275.841C264.156 275.841 274.805 303.292 264.125 313.273C258.127 318.878 252.44 320.181 244.232 320.067C233.784 319.921 220.213 308.278 220.213 308.278L195.772 280.741C190.826 274.905 182.141 274.044 176.146 278.797L125.18 319.203L95.4092 345.093C86.0463 353.236 78.6742 363.416 73.8592 374.852C71.5748 380.277 69.8873 385.935 68.8264 391.726L68.2517 394.863C66.1719 406.215 65.8846 417.823 67.4002 429.264L67.8784 432.874C68.8457 440.176 70.7672 447.319 73.5936 454.121M729.987 175.873L684.975 175.494C671.869 175.384 658.919 178.352 647.169 184.161C631.868 191.725 619.244 203.784 610.99 218.724L600.858 237.06L592.523 248.295C583.415 260.57 569.723 268.63 554.571 270.638L495.683 278.439C469.916 281.852 445.071 291.48 423.654 306.206C416.639 311.03 409.927 316.445 403.74 322.293L393.882 331.609C380.2 344.54 363.899 354.381 346.083 360.465C332.372 365.148 317.982 367.531 303.493 367.519L250.512 367.474L207.153 373.218C195.226 374.798 183.507 377.678 172.206 381.808L163.315 385.057C152.051 389.174 141.27 394.507 131.162 400.961L123.371 405.937C108.133 415.669 94.5982 427.84 83.3097 441.964L73.5936 454.121M73.5936 454.121L76.1805 460.347C80.5298 470.814 86.8653 480.339 94.8368 488.397C102.722 496.367 112.061 502.752 122.349 507.208L126.197 508.875C139.584 514.672 153.994 517.736 168.582 517.885L187.23 518.075C195.033 518.154 202.832 517.68 210.567 516.655L269.244 508.882L382.043 493.94L531.466 466.66L628.578 446.31L706.776 429.369C713.913 427.823 720.855 425.486 727.474 422.4L732.707 419.961C740.78 416.197 748.045 410.901 754.098 404.367C764.654 392.971 771.041 378.337 772.217 362.848L772.268 362.179C772.638 357.301 772.501 352.396 771.859 347.546L768.277 320.51M73.5936 454.121L229.039 437.688L387.07 412.595L572.458 380.551L738.191 331.981L768.277 320.51" stroke="#030402" stroke-width="16.4904"/>
</svg>
