<svg width="542" height="360" viewBox="0 0 542 360" fill="none" xmlns="http://www.w3.org/2000/svg">
<rect x="542" width="360" height="542" transform="rotate(90 542 0)" fill="#020005"/>
<rect x="524" y="16.906" width="325.193" height="505" transform="rotate(90 524 16.906)" fill="#FA0402"/>
<path d="M61.999 253.095H73.499H191.999L351.499 248.123L468.499 231.714H483.999V245.637L477.999 263.537L464.999 280.443L425.499 286.907L391.499 291.382L286.999 297.349L242.499 299.835H156.499H124.499L99.499 295.36L73.499 279.449L61.999 261.548V253.095Z" fill="white" stroke="#030402" stroke-width="12"/>
<path d="M71 239.172L65.5 250.111L174 254.089L303.5 250.111L366 245.636L426.5 235.691L473.5 230.222L486 226.244L473.5 135.746L453 134.752H426.5L411 144.697L397.5 162.1L379 176.023L360.5 180.001L321 179.006L283.5 188.951L258.5 206.851L228 214.807L203.5 218.785L162 214.807H128L100 224.752L71 239.172Z" fill="#FCC900" stroke="#030402" stroke-width="12"/>
<path d="M102 173.039L137.5 152.653L149 163.095L163.5 181.99L179 184.973L186.5 173.039V148.178V137.238H193L203 151.161L224 173.039H235L238 151.161L241 125.305L252 141.713L265.5 155.636L274.5 152.653L283.5 125.305L292.5 93.4814L310 67.1278L335 64.6416L350.5 73.0946L365 93.4814H379L387.5 80.056L403 67.1278H427.5L450.5 83.5366L465 110.885L471 138.73L454 131.769L417 138.73L399.5 152.653L379 173.039L350.5 179.503L324 181.99H301.5L280.5 189.448L259 202.874L227.5 216.796H193L157 210.829L116 216.796L85 229.724L61 247.128L55.5 241.161L61 210.829L72.5 193.923L102 173.039Z" fill="#0077FF" stroke="#030402" stroke-width="12"/>
<path d="M116.999 92.984L127.999 90.4978L147.499 115.857L166.499 138.233L157.499 88.5089L160.999 74.5862H172.999L187.999 90.4978L205.499 111.382L216.499 120.829L207.999 85.0282L205.499 56.6857L213.999 48.2326L226.499 51.216L238.499 65.6359L251.499 88.5089V68.1221L256.999 48.2326L261.499 44.752L268.999 51.216L275.499 60.1663L278.499 78.5641L280.999 126.796L278.499 147.68L268.999 153.647L261.499 150.664L241.999 120.829L236.499 123.315L238.499 157.625L231.499 174.034L221.499 169.559L194.999 133.757H184.999L182.999 145.194L187.999 174.034L177.499 185.967L151.999 169.559L116.999 92.984Z" fill="white" stroke="#030402" stroke-width="12"/>
<path d="M148.499 163.592L121.999 114.366C121.999 114.366 112.821 102.828 115.999 95.9681C117.445 92.8479 118.787 90.7676 121.999 89.504C127.44 87.3637 135.499 95.9681 135.499 95.9681L148.499 114.366L169.999 154.642L157.999 101.935V82.0454C157.999 82.0454 158.546 74.2959 161.999 71.6034C167.792 67.0869 179.499 78.5648 179.499 78.5648L193.999 95.9681L222.499 141.217L208.499 89.504L204.499 62.1559C204.499 62.1559 205.122 54.2802 208.499 51.2167C213.404 46.7673 219.332 48.7714 225.499 51.2167C231.404 53.5582 237.499 62.1559 237.499 62.1559L261.499 123.813L251.499 66.1338C251.499 66.1338 252.592 45.7714 261.499 45.7471C266.128 45.7344 271.999 51.2167 271.999 51.2167L279.499 71.6034V136.244" stroke="#030402" stroke-width="12"/>
<path d="M474 137.239L481.5 171.548L485.5 219.283V226.741M474 137.239L464 104.421C464 104.421 457.737 90.7216 451.5 83.5373C445.978 77.176 442.416 73.6437 435 69.6146C428.497 66.0819 424.408 63.7903 417 63.6478C411.831 63.5484 404 66.134 404 66.134C404 66.134 395.507 69.9258 391.5 74.0898C386.91 78.8596 383.5 89.0069 383.5 89.0069C380.342 96.8582 369.394 97.33 365.443 89.8463C365.15 89.2906 364.803 88.7599 364.41 88.2691L360.342 83.179C353.199 74.243 344.375 66.0161 333.109 64.0319C330.816 63.6281 328.547 63.4469 326.5 63.6478C321.992 64.0901 316.802 66.5574 312.651 68.9825C307.374 72.065 303.147 76.5705 299.49 81.4663C294.537 88.0964 290.822 95.5659 288.522 103.516L284.208 118.431C282.407 124.657 281.363 131.081 279.936 137.403C278.223 144.991 274.832 154.352 268.5 154.642C261.516 154.962 256 143.703 256 143.703L242.5 121.825C240.637 118.613 235.713 120.107 235.949 123.812L237.5 148.178V151.389C237.5 159.494 239.526 170.492 232.5 174.532C225.916 178.318 215.5 165.084 215.5 165.084L195.5 136.244C191.479 130.307 182.196 133.904 183.226 141.001L186 160.112C186 160.112 190.215 177.367 183 182.488C178.948 185.363 175.426 185.692 170.5 184.974C164.231 184.059 157 176.023 157 176.023L144.5 157.626C141.988 153.739 136.852 152.534 132.874 154.899L99 175.029L79.0074 188.171C72.7524 192.283 67.5235 197.774 63.7224 204.223C61.9129 207.293 60.4439 210.551 59.3415 213.939L58.7535 215.746C56.598 222.372 55.5 229.296 55.5 236.264V238.445C55.5 242.889 56.0863 247.313 57.2437 251.603M474 137.239L446.94 133.443C439.088 132.342 431.089 133.09 423.577 135.627C413.76 138.942 405.188 145.175 399.007 153.492L391.5 163.593L385.623 169.619C379.15 176.257 370.271 180.001 361 180.001H324.859C309.173 180.001 293.707 183.691 279.711 190.773L279.403 190.929C274.808 193.254 270.399 195.93 266.217 198.934L259.579 203.701C250.301 210.365 239.703 214.966 228.499 217.194C219.892 218.906 211.061 219.191 202.361 218.037L170.5 213.813H143.918C136.661 213.813 129.425 214.603 122.339 216.169L116.637 217.429C109.566 218.991 102.687 221.317 96.119 224.365L90.9899 226.746C81.0639 231.352 71.9614 237.557 64.0452 245.112L57.2437 251.603M57.2437 251.603L58.2932 255.493C60.0807 262.119 63.1387 268.334 67.2973 273.793C71.3945 279.171 76.4837 283.715 82.29 287.18L84.5272 288.515C92.0999 293.033 100.496 295.999 109.227 297.24L127.5 299.836H170.5H239.5L331.5 295.36L391.5 290.885L439.871 286.95C444.277 286.591 448.629 285.745 452.848 284.426L456.239 283.366C461.364 281.764 466.131 279.185 470.276 275.769C477.543 269.782 482.562 261.504 484.512 252.292L484.579 251.978C485.191 249.084 485.5 246.135 485.5 243.177V226.741M57.2437 251.603L152 254.089L249 251.603L363 247.128L466.5 231.216L485.5 226.741" stroke="#030402" stroke-width="12"/>
<ellipse cx="41.5" cy="74.0891" rx="6.46409" ry="6.5" transform="rotate(90 41.5 74.0891)" fill="#000300"/>
<ellipse cx="80.5" cy="87.0178" rx="6.46409" ry="6.5" transform="rotate(90 80.5 87.0178)" fill="#000300"/>
<ellipse cx="80.5" cy="140.719" rx="6.46409" ry="6.5" transform="rotate(90 80.5 140.719)" fill="#000300"/>
<ellipse cx="47.5" cy="149.669" rx="6.46409" ry="6.5" transform="rotate(90 47.5 149.669)" fill="#000300"/>
<ellipse cx="509.499" cy="37.2942" rx="6.46409" ry="6.5" transform="rotate(90 509.499 37.2942)" fill="#000300"/>
<ellipse cx="499.999" cy="76.5752" rx="5.96685" ry="6" transform="rotate(90 499.999 76.5752)" fill="#000300"/>
<ellipse cx="470.5" cy="41.2717" rx="6.46409" ry="6.5" transform="rotate(90 470.5 41.2717)" fill="#000300"/>
<ellipse cx="423.499" cy="33.3157" rx="6.46409" ry="6.5" transform="rotate(90 423.499 33.3157)" fill="#000300"/>
<ellipse cx="379.5" cy="50.2219" rx="6.46409" ry="6.5" transform="rotate(90 379.5 50.2219)" fill="#000300"/>
<ellipse cx="339.5" cy="39.2824" rx="6.46409" ry="6.5" transform="rotate(90 339.5 39.2824)" fill="#000300"/>
<ellipse cx="295.499" cy="43.261" rx="6.46409" ry="6.5" transform="rotate(90 295.499 43.261)" fill="#000300"/>
<ellipse cx="238" cy="29.8357" rx="4.97238" ry="5" transform="rotate(90 238 29.8357)" fill="#000300"/>
<ellipse cx="181.5" cy="52.2112" rx="6.46409" ry="6.5" transform="rotate(90 181.5 52.2112)" fill="#000300"/>
<ellipse cx="153.499" cy="33.8132" rx="4.97238" ry="5.5" transform="rotate(90 153.499 33.8132)" fill="#000300"/>
<ellipse cx="128.5" cy="70.6085" rx="5.96685" ry="5.5" transform="rotate(90 128.5 70.6085)" fill="#000300"/>
<ellipse cx="123.5" cy="38.2883" rx="6.46409" ry="6.5" transform="rotate(90 123.5 38.2883)" fill="#000300"/>
<ellipse cx="28.5" cy="260.056" rx="6.46409" ry="6.5" transform="rotate(90 28.5 260.056)" fill="#000300"/>
<ellipse cx="35.5" cy="192.432" rx="6.46409" ry="6.5" transform="rotate(90 35.5 192.432)" fill="#000300"/>
<ellipse cx="505.499" cy="115.858" rx="6.46409" ry="6.5" transform="rotate(90 505.499 115.858)" fill="#000300"/>
<ellipse cx="499.499" cy="156.631" rx="6.46409" ry="6.5" transform="rotate(90 499.499 156.631)" fill="#000300"/>
<ellipse cx="509.499" cy="262.045" rx="6.46409" ry="6.5" transform="rotate(90 509.499 262.045)" fill="#000300"/>
<ellipse cx="504.499" cy="202.377" rx="4.47514" ry="4.5" transform="rotate(90 504.499 202.377)" fill="#000300"/>
<ellipse cx="471.5" cy="73.5919" rx="5.96685" ry="5.5" transform="rotate(90 471.5 73.5919)" fill="#000300"/>
<ellipse cx="87.5" cy="52.2102" rx="6.46409" ry="6.5" transform="rotate(90 87.5 52.2102)" fill="#000300"/>
<ellipse cx="58.5" cy="36.2981" rx="6.46409" ry="6.5" transform="rotate(90 58.5 36.2981)" fill="#000300"/>
<ellipse cx="33.5" cy="310.774" rx="6.46409" ry="6.5" transform="rotate(90 33.5 310.774)" fill="#000300"/>
<ellipse cx="80.5" cy="323.701" rx="6.46409" ry="6.5" transform="rotate(90 80.5 323.701)" fill="#000300"/>
<ellipse cx="498.5" cy="310.774" rx="6.46409" ry="6.5" transform="rotate(90 498.5 310.774)" fill="#000300"/>
<ellipse cx="464.5" cy="323.701" rx="6.46409" ry="6.5" transform="rotate(90 464.5 323.701)" fill="#000300"/>
<ellipse cx="429.5" cy="306.795" rx="6.46409" ry="6.5" transform="rotate(90 429.5 306.795)" fill="#000300"/>
<ellipse cx="410.5" cy="323.701" rx="6.46409" ry="6.5" transform="rotate(90 410.5 323.701)" fill="#000300"/>
<ellipse cx="374.5" cy="310.774" rx="6.46409" ry="5.5" transform="rotate(90 374.5 310.774)" fill="#000300"/>
<ellipse cx="352.5" cy="329.668" rx="6.46409" ry="6.5" transform="rotate(90 352.5 329.668)" fill="#000300"/>
<ellipse cx="314.5" cy="312.763" rx="6.46409" ry="6.5" transform="rotate(90 314.5 312.763)" fill="#000300"/>
<ellipse cx="282.5" cy="330.166" rx="5.96685" ry="6.5" transform="rotate(90 282.5 330.166)" fill="#000300"/>
<ellipse cx="256" cy="334.143" rx="4.97238" ry="5" transform="rotate(90 256 334.143)" fill="#000300"/>
<ellipse cx="222.5" cy="323.701" rx="6.46409" ry="6.5" transform="rotate(90 222.5 323.701)" fill="#000300"/>
<ellipse cx="175.5" cy="330.663" rx="6.46409" ry="6.5" transform="rotate(90 175.5 330.663)" fill="#000300"/>
</svg>
