<svg width="782" height="537" viewBox="0 0 782 537" fill="none" xmlns="http://www.w3.org/2000/svg">
<path d="M699.319 455.547L680.519 453.056L486.799 427.394L227.138 384.68L39.4434 332.369L14.1046 329.012L11.0728 351.899L16.9834 382.624L34.5538 413.23L97.7193 432.41L152.327 447.13L321.86 479.568L394.066 493.292L534.655 511.916L586.968 518.846L628.811 516.903L674.78 496.378L697.478 469.442L699.319 455.547Z" fill="white" stroke="#030402" stroke-width="1.64904"/>
<path d="M687.637 430.713L694.247 449.886L516.008 432.929L305.173 398.346L203.975 377.454L107.237 348.005L31.5943 328.836L12.026 319.59L52.1673 173.533L85.8965 176.338L129.218 182.077L152.391 201.781L170.671 233.313L197.882 260.206L227.259 270.751L292.048 277.67L351.186 302.139L388.157 336.979L436.285 356.662L475.471 368.506L544.18 370.955L599.762 378.318L643.369 400.729L687.637 430.713Z" fill="#A3F606" stroke="#030402" stroke-width="1.64904"/>
<path d="M651.36 315.289L597.766 274.089L576.692 288.763L548.873 316.684L522.885 318.231L513.223 296.99L518.637 256.121L521.019 238.139L510.393 236.731L491.013 257.452L451.919 288.869L433.937 286.487L433.797 249.873L434.523 206.719L412.967 231.311L387.866 251.274L373.803 244.42L365.045 197.515L357.262 143.254L334.393 96.143L294.065 86.6421L266.886 97.181L238.742 127.554L215.855 124.522L204.883 100.612L182.36 76.0031L142.308 70.6975L101.135 92.6902L71.4761 134.506L55.6039 178.98L84.9108 171.218L143.881 190.674L169.458 217.351L198.531 255.303L243.714 272.101L286.494 281.926L323.276 286.799L355.982 303.607L388.206 330.333L436.669 360.041L493.068 367.512L553.219 365.5L618.945 384.187L666.807 412.152L702.252 445.958L712.542 437.34L710.156 386.289L695.038 356.008L651.36 315.289Z" fill="#0077FF" stroke="#030402" stroke-width="1.64904"/>
<path d="M644.272 180.435L626.831 173.965L589.431 211.429L553.498 244.097L579.039 164.307L576.349 140.663L556.732 138.064L528.746 160.972L495.59 191.512L475.55 204.66L497.241 147.65L507.5 101.6L495.445 85.8641L474.361 88.0614L451.604 109.167L425.371 143.951L429.811 110.438L425.151 76.5521L418.552 69.8559L404.884 78.8577L392.309 92.1629L383.398 121.756L368.808 200.501L368.347 235.372L382.578 247.238L395.489 243.958L433.863 199.138L442.313 204.416L431.572 260.382L439.443 288.872L456.765 283.681L507.882 230.568L524.23 232.734L525.009 251.967L510.555 298.292L525.121 320.183L570.381 298.732L644.272 180.435Z" fill="white" stroke="#030402" stroke-width="1.64904"/>
<path d="M577.4 289.691L631.441 214.509C631.441 214.509 648.959 197.53 645.256 185.565C643.572 180.123 641.832 176.413 636.855 173.64C628.426 168.943 613.378 181.342 613.378 181.342L588.12 208.77L544.202 270.322L575.297 186.278L579.628 153.583C579.628 153.583 580.421 140.725 575.363 135.552C566.877 126.873 545.238 143.205 545.238 143.205L517.745 168.673L461.301 236.883L495.448 154.907L507.943 110.818C507.943 110.818 508.639 97.7363 503.786 91.9691C496.736 83.5927 486.608 85.6035 475.995 88.2876C465.831 90.8579 453.995 103.671 453.995 103.671L401.335 199.829L430.242 107.179C430.242 107.179 432.891 73.4693 418.334 71.5003C410.77 70.4771 399.978 78.2177 399.978 78.2177L383.278 110.106L369.202 216.366" stroke="#030402" stroke-width="16.4904"/>
<path d="M51.0254 175.873L31.2934 230.648L14.3596 308.251L12.7356 320.51M51.0254 175.873L74.5194 124.091C74.5194 124.091 87.7416 102.928 99.5016 92.4684C109.914 83.2074 116.506 78.172 129.507 73.1549C140.907 68.7559 148.09 65.8743 160.232 67.2444C168.704 68.2004 180.943 74.1466 180.943 74.1466C180.943 74.1466 194.001 82.2189 199.645 89.9316C206.11 98.7665 209.474 116.186 209.474 116.186C212.916 129.732 230.751 132.881 238.817 121.466C239.413 120.622 240.092 119.831 240.835 119.114L248.581 111.641C262.216 98.4851 278.469 86.8306 297.399 86.0384C301.197 85.8795 304.907 86.0767 308.178 86.8429C315.434 88.5421 323.36 93.7015 329.612 98.5768C337.601 104.808 343.545 113.151 348.467 122.008C355.111 133.963 359.55 147.017 361.572 160.544L365.411 186.22C366.983 196.735 367.291 207.408 368.223 218C369.356 230.871 372.847 247.128 383.179 248.984C394.527 251.022 405.996 233.709 405.996 233.709L432.83 200.667C436.562 195.808 444.299 199.309 443.112 205.32L435.265 245.071L434.563 250.37C432.8 263.68 427.059 281.286 437.7 289.475C447.638 297.124 467.548 277.627 467.548 277.627L506.523 234.55C514.365 225.688 528.787 233.562 525.574 244.95L516.856 275.841C516.856 275.841 506.207 303.292 516.888 313.273C522.886 318.878 528.573 320.181 536.781 320.067C547.229 319.921 560.799 308.278 560.799 308.278L585.24 280.741C590.187 274.905 598.872 274.044 604.867 278.797L655.832 319.203L685.603 345.093C694.966 353.236 702.338 363.416 707.153 374.852C709.438 380.277 711.125 385.935 712.186 391.726L712.761 394.863C714.841 406.215 715.128 417.823 713.613 429.264L713.134 432.874C712.167 440.176 710.246 447.319 707.419 454.121M51.0254 175.873L96.0375 175.494C109.144 175.384 122.094 178.352 133.844 184.161C149.145 191.725 161.768 203.784 170.023 218.724L180.155 237.06L188.49 248.295C197.597 260.57 211.29 268.63 226.442 270.638L285.33 278.439C311.097 281.852 335.942 291.48 357.359 306.206C364.374 311.03 371.086 316.445 377.273 322.293L387.13 331.609C400.813 344.54 417.114 354.381 434.93 360.465C448.641 365.148 463.031 367.531 477.519 367.519L530.501 367.474L573.86 373.218C585.787 374.798 597.506 377.678 608.807 381.808L617.698 385.057C628.962 389.174 639.743 394.507 649.85 400.961L657.641 405.937C672.88 415.669 686.415 427.84 697.703 441.964L707.419 454.121M707.419 454.121L704.832 460.347C700.483 470.814 694.147 480.339 686.176 488.397C678.291 496.367 668.952 502.752 658.664 507.208L654.816 508.875C641.429 514.672 627.018 517.736 612.431 517.884L593.782 518.075C585.98 518.154 578.181 517.68 570.446 516.655L511.769 508.882L398.97 493.94L249.546 466.66L152.435 446.31L74.2365 429.369C67.0996 427.823 60.1574 425.486 53.5387 422.4L48.3053 419.961C40.2323 416.197 32.9674 410.901 26.9145 404.367C16.3583 392.971 9.97189 378.337 8.79567 362.848L8.74493 362.179C8.37444 357.301 8.51157 352.396 9.15413 347.546L12.7356 320.51M707.419 454.121L551.974 437.688L393.943 412.595L208.555 380.551L42.8216 331.981L12.7356 320.51" stroke="#030402" stroke-width="16.4904"/>
</svg>
