<svg width="219" height="195" viewBox="0 0 219 195" fill="none" xmlns="http://www.w3.org/2000/svg">
<rect x="5" y="5" width="209" height="185" fill="#FE0000" stroke="black" stroke-width="10"/>
<path d="M49.2616 89.7275C33.9064 98.9586 5.5 103.5 5.5 103.5V118.5C5.5 118.5 18.0537 114.873 26.2372 115.297C39.032 115.959 45.8993 120.53 56.7579 127.33C66.7312 133.575 71.7311 138.33 79.2469 147.384C91.0842 161.645 100.13 190 100.13 190H111.91C111.91 190 111.264 168.388 116.193 155.907C120.139 145.916 123.908 140.747 131.186 132.845C144.808 118.053 157.645 115.614 176.164 107.777C192.32 100.939 216 94.5 216 94.5L190.621 89.7275C190.621 89.7275 159.651 88.1469 144.572 77.1935C132.248 68.2415 127.522 59.8798 121.012 46.109C114.148 31.5879 111.91 6 111.91 6H100.13C100.13 6 92.9471 42.9124 79.2469 61.6512C69.7791 74.6012 63.0103 81.4622 49.2616 89.7275Z" fill="#FAFFFF" stroke="#030402" stroke-width="10"/>
</svg>
